
<svg xmlns="http://www.w3.org/2000/svg" version="1.1" xmlns:xlink="http://www.w3.org/1999/xlink" preserveAspectRatio="none" x="0px" y="0px" width="1080px" height="1080px" viewBox="0 0 1080 1080">
<defs>
<linearGradient id="Gradient_1" gradientUnits="userSpaceOnUse" x1="37.05" y1="-31.875" x2="37.05" y2="-243.22500000000002" spreadMethod="pad">
<stop  offset="0%" stop-color="#FFFFFF" stop-opacity="0.4980392156862745"/>

<stop  offset="100%" stop-color="#FFFFFF" stop-opacity="0"/>
</linearGradient>

<g id="Layer14_0_FILL">
<path fill="#000000" stroke="none" d="
M 604.35 668.3
Q 603.1 670 602.95 674.05 602.1 693.5 602.15 703.2 602.2 719.4 604.25 732.2 604.55 734.15 606.05 742.05
L 614.8 787.65
Q 616.35 795.55 617.5 799.2 619 803.85 622.9 812.9 625.9 820.9 625.2 826.85 624.85 829.6 623.3 835.05 622.15 840 622 850.15 621.6 871.15 621.85 882.25 622.35 900 624.6 914.05 632.2 917 642.4 917.15 648.8 917.25 660.85 916.05 671.85 914.95 677.3 912.9 679.95 911.9 684.95 909.2 689.95 906.4 692.6 905.35 694.35 904.75 697.95 903.65 701.1 902.6 703 901.35 704.3 900.45 706.85 898.15 709.25 896 710.75 895.1 712.5 894 715.9 893.05 719.95 891.95 721.3 891.35 724.9 889.75 730.4 884.65 734.6 880.7 736.6 878.5 739.85 874.85 741.55 871.35 743.2 868.05 744 863.4 744.55 860.5 745 855.05 746.1 841.05 745.9 830.3 745.7 816.9 743.45 805.7 740.35 789.55 732.8 775.85 730.25 771.25 724.15 762.05 716.95 751.2 712.15 746.25 709.85 743.85 709.45 743.35 707.95 741.65 707.3 740.05 706.05 736.2 705.3 734.35 703.95 731.2 701.65 731 686.4 709.05 666.9 690.1 652.95 676.5 641.5 670.65 634.05 666.75 626.35 665.35 618.05 663.7 610.45 665.2 606.05 666 604.35 668.3
M 616.65 691.65
L 619.1 690.15
Q 619.3 685 623.05 681.4 635.55 687.75 645.25 697.85 647.45 700.1 648.75 700.95 650.9 702.4 652.95 702.05 654.05 705.65 657.25 709.35 658.6 710.95 663.3 715.5 677.2 729 686.95 745.35
L 692.25 747.05
Q 691.3 748.85 691.75 751.2 692.2 753.3 693.55 755.25 694.55 756.6 696.45 758.5 699 760.95 699.55 761.55 701.3 763.45 706.45 771.8 710.45 778.35 714.5 780.8 714.3 784.2 716.75 788.35 718.15 790.7 721.35 795.35 723.6 799.1 725.9 807.3
L 728.45 816.15
Q 730.25 822.6 731 826 732.15 831.5 732.3 836 732.45 845.6 728.3 854.15
L 725.75 855.8
Q 726.3 857.85 725.3 860.15 724.4 862.2 722.6 863.8 721.65 864.7 719.05 866.6 716.65 868.4 715.5 869.55 715.35 869.65 712.6 873.05 710.8 875.2 709.25 876.05 707.55 877.1 703.9 877.6 700 878.25 698.45 878.9 696.6 879.8 694.2 882.2 691.35 884.95 690.2 885.7 688.15 887.1 684.3 888.15 679.55 889.5 678.15 890.05 676.25 890.95 673.5 892.8 670 895.1 668.95 895.7 662.95 899.05 654.4 899.5 649 899.85 638.95 899
L 638.85 892.9 636.2 891.5
Q 635.9 882.05 635.9 878.05 635.9 870.55 636.65 864.65 637.9 856.9 638.4 853 639 847.7 639 837.05
L 639 813.1
Q 639 808.2 638.8 805.8 638.55 801.75 637.6 798.7 636.75 796.05 634.65 791.95 632.05 787 631.4 785.4 629.2 780.05 628.35 773.4 627.65 766.85 627.2 763.6
L 618.55 718.6
Q 616.85 709.85 616.35 705.1 615.6 697.65 616.65 691.65
M 481.1 615.3
Q 452.3 612.3 423.4 615.75 411.9 617.2 404.2 619.55 394 622.75 387.35 628.5 382.2 632.9 378.8 639 375.45 645 374.45 651.75 373.9 655.7 373.9 662.15
L 373.75 678.75
Q 373.7 686.2 374.35 690.3 375.4 696.55 378.45 700.6 382.05 705.3 388.7 707.55 390.8 708.25 393.25 708.7 390.6 713.25 389.6 719.55 388.75 724.3 388.7 731.75 388.55 741.75 391.1 747 393.05 751 397 754 400.6 756.8 405.3 758.35 409.3 759.7 414.4 760.35 417.95 760.75 423.8 760.95 431.9 761.3 437.1 761 444.35 760.6 450.2 759.1 464 755.45 476.55 743.6 486.1 734.55 496.5 719.05 499.95 713.95 501.65 711.35 504.7 707 507.25 704 507.65 703.6 514.55 695.95 519 691.1 521.3 687.45 527.65 677.45 526.9 664.9 526.2 652.35 518.7 643.15 515.25 638.9 507.55 632.7 499.05 625.95 496 622.65 492.55 618.9 493 615.95 487.15 615.2 481.1 615.3
M 452.9 628.75
Q 461.45 628.25 476 627.6 477.1 632 479.8 635.6 481.5 637.95 484.45 640.45 486.15 641.95 489.7 644.75 499.2 652.4 507.3 662.05 509.65 665 509.55 667.05 509.4 668.45 507.75 670.65
L 482 705.3
Q 471.1 720.05 464.3 727.2 450.5 742.05 436.35 745.45 427.75 747.45 419.5 745.05 410.65 742.5 405.9 735.85 403.95 733.15 403.65 730.8 403.25 727.35 406.6 722.45 409.05 719 410.25 717.2 412.35 714.15 413.45 711.8 414.35 709.85 414.8 708.05 420.85 706.8 426.6 704.55 429.55 703.35 430.45 701.85 431.35 700.4 431.2 697.5
L 431.05 690.85
Q 431.05 689.05 430.4 688.4 429.85 687.85 428.15 687.7 422.45 687.55 420.05 688.05 418.1 688.45 412.85 690.4 408.4 692.05 405.65 692.2 401.5 692.4 397.6 689.95 393.95 687.7 391.7 683.85 387.75 677.05 389.05 667.25 390.2 658.55 395.3 651 400.4 643.35 408 639 411.6 637 416.6 635.15 430.8 630.05 452.9 628.75 Z"/>

<path fill="#0D0D0D" stroke="none" d="
M 619.1 690.15
L 616.65 691.65
Q 615.6 697.65 616.35 705.1 616.85 709.85 618.55 718.6
L 627.2 763.6
Q 627.65 766.85 628.35 773.4 629.2 780.05 631.4 785.4 632.05 787 634.65 791.95 636.75 796.05 637.6 798.7 638.55 801.75 638.8 805.8 639 808.2 639 813.1
L 639 837.05
Q 639 847.7 638.4 853 637.9 856.9 636.65 864.65 635.9 870.55 635.9 878.05 635.9 882.05 636.2 891.5
L 638.85 892.9 638.95 899
Q 649 899.85 654.4 899.5 662.95 899.05 668.95 895.7 670 895.1 673.5 892.8 676.25 890.95 678.15 890.05 679.55 889.5 684.3 888.15 688.15 887.1 690.2 885.7 691.35 884.95 694.2 882.2 696.6 879.8 698.45 878.9 700 878.25 703.9 877.6 707.55 877.1 709.25 876.05 710.8 875.2 712.6 873.05 715.35 869.65 715.5 869.55 716.65 868.4 719.05 866.6 721.65 864.7 722.6 863.8 724.4 862.2 725.3 860.15 726.3 857.85 725.75 855.8
L 728.3 854.15
Q 732.45 845.6 732.3 836 732.15 831.5 731 826 730.25 822.6 728.45 816.15
L 725.9 807.3
Q 723.6 799.1 721.35 795.35 718.15 790.7 716.75 788.35 714.3 784.2 714.5 780.8 710.45 778.35 706.45 771.8 701.3 763.45 699.55 761.55 699 760.95 696.45 758.5 694.55 756.6 693.55 755.25 692.2 753.3 691.75 751.2 691.3 748.85 692.25 747.05
L 686.95 745.35
Q 677.2 729 663.3 715.5 658.6 710.95 657.25 709.35 654.05 705.65 652.95 702.05 650.9 702.4 648.75 700.95 647.45 700.1 645.25 697.85 635.55 687.75 623.05 681.4 619.3 685 619.1 690.15
M 476 627.6
Q 461.45 628.25 452.9 628.75 430.8 630.05 416.6 635.15 411.6 637 408 639 400.4 643.35 395.3 651 390.2 658.55 389.05 667.25 387.75 677.05 391.7 683.85 393.95 687.7 397.6 689.95 401.5 692.4 405.65 692.2 408.4 692.05 412.85 690.4 418.1 688.45 420.05 688.05 422.45 687.55 428.15 687.7 429.85 687.85 430.4 688.4 431.05 689.05 431.05 690.85
L 431.2 697.5
Q 431.35 700.4 430.45 701.85 429.55 703.35 426.6 704.55 420.85 706.8 414.8 708.05 414.35 709.85 413.45 711.8 412.35 714.15 410.25 717.2 409.05 719 406.6 722.45 403.25 727.35 403.65 730.8 403.95 733.15 405.9 735.85 410.65 742.5 419.5 745.05 427.75 747.45 436.35 745.45 450.5 742.05 464.3 727.2 471.1 720.05 482 705.3
L 507.75 670.65
Q 509.4 668.45 509.55 667.05 509.65 665 507.3 662.05 499.2 652.4 489.7 644.75 486.15 641.95 484.45 640.45 481.5 637.95 479.8 635.6 477.1 632 476 627.6 Z"/>
</g>

<g id="Layer13_0_FILL">
<path fill="#000000" stroke="none" d="
M 604.25 665.95
Q 604.25 665.2 604.2 664.3 602.95 658.65 603.15 655.8
L 578.55 655.05 578.55 659.5
Q 537.3 657.1 491.7 655.25 488.75 662.05 491.65 669.6 494.6 677.25 501.4 680.15 494.45 695.85 488.85 718.15 485.6 731.15 480.05 757.4 476.5 772.95 471.25 792.55 468.55 802.85 461.6 827.45 459 836.5 457.95 839.9 455.75 846.8 453.45 852 451.4 856.6 448 862.8 446.05 866.35 442.1 873.35 428.35 898.25 419.85 926.05 417.45 933.7 416.6 939.15 415.3 946.45 415.9 952.55 417.2 964.6 424.9 973.65 440.2 987.25 461.2 995.6 480.3 1003.15 502.8 1005.85 522.05 1008.25 545.5 1007.3 562.3 1006.6 588.3 1003.75 607.05 1001.7 618.55 999.9 635.05 997.15 648.2 993.1 665.05 987.85 681.05 979.15 708.85 963.9 712.85 944.2 715.7 930.2 706.85 915.7 699.1 903.2 685.1 893.65 678.6 889.2 677 887.8 672.65 884.2 670.9 880.35 652.2 861.45 640.9 837.7 629 812.9 622.5 773.85 616.35 729.25 612.15 707.3 608.6 688.65 608.35 686.9 606.55 675.2 607.25 666.35 605.75 666.1 604.25 665.95
M 525.95 676.15
L 525.95 675.8
Q 526.6 675.95 527.35 676.15
L 525.95 676.15
M 503.2 719.65
Q 505.6 710 507.3 704.75 509.9 696.7 513.3 690.7 554.2 691.9 595 686.3 592.9 694.35 596.25 706.4 598.15 713.2 602 726.75 602.75 730.7 603.15 736.65 603.4 740 603.8 746.6 604.25 752.85 606.15 765.2 610.5 793.45 613.9 807.95 619.35 831.4 627.65 848.7 630.05 853.6 633.85 860.2 630.65 857.5 625.25 856.9 620.8 856.5 612.7 858.2
L 615.4 878.7
Q 620.25 884.15 625.4 888.35 629.1 891.35 633.55 894.55 637.7 897.6 640.65 899.3 644.05 901.35 648.75 903.4 651.2 904.4 657.25 906.75 666 910.05 670.95 911.35 672.45 911.75 673.95 912.1
L 673.95 919.65
Q 676.55 920.05 677.65 920.55 679.6 921.5 680.3 923.1
L 692 923.1
Q 696.2 927.95 696.85 932.95 697.95 939.85 693 946.8 689.05 952.3 681.65 957.4 666.7 967.7 645.65 975.8 622.9 984.65 599.25 988.75 590.6 990.25 579.7 991.4 573.2 992.05 560.05 993.15 547.15 994.25 540.7 994.6 529.85 995.15 521.25 994.7 503.4 993.95 486.2 989.05 468.95 984.1 453.35 975.4 443.05 969.55 437.05 962.75 429.5 954.35 429.45 945 429.45 941.35 430.65 937 431.5 934 433.4 929.25 443.3 904.15 455.8 881.1 458.95 875.3 460.45 872.4 463.1 867.35 464.75 863.5 468.05 855.85 471.25 844.5 477.85 822.15 487.8 781.9
L 503.2 719.65
M 639.55 871.55
Q 638.95 870.4 638 867.3 640.8 871.85 644.1 877.15 640.85 874.3 639.55 871.55
M 520.1 868.85
Q 514.75 876.95 510.1 883.7
L 484.9 920.4
Q 480.85 926.45 477.25 929.5 472.2 933.7 467.05 933.45
L 466.95 945.5
Q 476.7 947.85 487.85 942.2 492.15 940.05 496.9 936.45 499.7 934.35 505.2 929.65 511.05 924.6 513.6 922.15 518.15 917.75 521.05 913.65 524.25 909.1 526.95 902.6 528.6 898.7 531.25 890.7
L 534.75 880.2
Q 537.75 871.25 538.7 866.35 540.25 858.5 539.1 852.25
L 528.25 851.65
Q 527.15 853.35 526.55 856.2 526.2 857.85 525.6 861.15 524.25 867.55 520.1 868.85 Z"/>

<path fill="#666666" stroke="none" d="
M 507.3 704.75
Q 505.6 710 503.2 719.65
L 487.8 781.9
Q 477.85 822.15 471.25 844.5 468.05 855.85 464.75 863.5 463.1 867.35 460.45 872.4 458.95 875.3 455.8 881.1 443.3 904.15 433.4 929.25 431.5 934 430.65 937 429.45 941.35 429.45 945 429.5 954.35 437.05 962.75 443.05 969.55 453.35 975.4 468.95 984.1 486.2 989.05 503.4 993.95 521.25 994.7 529.85 995.15 540.7 994.6 547.15 994.25 560.05 993.15 573.2 992.05 579.7 991.4 590.6 990.25 599.25 988.75 622.9 984.65 645.65 975.8 666.7 967.7 681.65 957.4 689.05 952.3 693 946.8 697.95 939.85 696.85 932.95 696.2 927.95 692 923.1
L 680.3 923.1
Q 679.6 921.5 677.65 920.55 676.55 920.05 673.95 919.65
L 673.95 912.1
Q 672.45 911.75 670.95 911.35 666 910.05 657.25 906.75 651.2 904.4 648.75 903.4 644.05 901.35 640.65 899.3 637.7 897.6 633.55 894.55 629.1 891.35 625.4 888.35 620.25 884.15 615.4 878.7
L 612.7 858.2
Q 620.8 856.5 625.25 856.9 630.65 857.5 633.85 860.2 630.05 853.6 627.65 848.7 619.35 831.4 613.9 807.95 610.5 793.45 606.15 765.2 604.25 752.85 603.8 746.6 603.4 740 603.15 736.65 602.75 730.7 602 726.75 598.15 713.2 596.25 706.4 592.9 694.35 595 686.3 554.2 691.9 513.3 690.7 509.9 696.7 507.3 704.75
M 510.1 883.7
Q 514.75 876.95 520.1 868.85 524.25 867.55 525.6 861.15 526.2 857.85 526.55 856.2 527.15 853.35 528.25 851.65
L 539.1 852.25
Q 540.25 858.5 538.7 866.35 537.75 871.25 534.75 880.2
L 531.25 890.7
Q 528.6 898.7 526.95 902.6 524.25 909.1 521.05 913.65 518.15 917.75 513.6 922.15 511.05 924.6 505.2 929.65 499.7 934.35 496.9 936.45 492.15 940.05 487.85 942.2 476.7 947.85 466.95 945.5
L 467.05 933.45
Q 472.2 933.7 477.25 929.5 480.85 926.45 484.9 920.4
L 510.1 883.7 Z"/>
</g>

<g id="Layer12_0_FILL">
<path fill="#0D0D0D" stroke="none" d="
M 629.1 791.4
Q 629.1 791.45 629.1 791.55 628.15 796.55 626.5 798.7 625.35 800.25 622.95 801.8 621.65 802.6 618.9 804.3 616.7 805.8 615.6 807.85 614.3 810.15 615.05 812.3
L 609.45 813.65
Q 605.2 820.25 603.9 828.1 602.55 836.1 604.4 843.6 604.55 844.05 605.3 847 605.8 849.05 606.1 850.4
L 606.5 853.6
Q 606.8 855.5 607.1 856.75 607.65 858.6 609.1 862.25 610.2 865.45 609.35 867.7 612.1 868.05 613.8 870.55 615.5 873 614.85 875.65
L 624.65 880.5
Q 629.95 883.15 633.35 884.3 637.65 885.7 646.6 886.95 657.15 888.35 662.65 888.8 668.25 889.2 673.15 889 676.05 888.85 678.7 888.5 685.25 885.4 692.85 883.15 693.2 879.2 695.15 875.65 695.05 875.5 694.9 875.4 692 872.8 687.1 865.95 680.55 856.8 677.95 851.8 675.8 847.55 673.2 840.85
L 645.15 769.85 640.25 769.85
Q 640.7 774.2 640.3 778.55
L 637.4 780
Q 637.7 783.85 635.25 787.2 632.8 790.5 629.1 791.4
M 482 703.15
Q 481.1 704.15 479.75 707.1 478.55 709.75 477.3 710.75 476.35 711.5 473.25 712.6 470.5 713.55 469.55 714.85 468.8 715.85 468.25 718.5 467.7 720.95 466.75 722 465.95 722.95 463.8 723.75 461.45 724.65 460.65 725.4 459.55 726.4 459.1 728.3 458.75 729.45 458.35 731.85 457.85 733.65 456.65 734.95 455.15 736.3 453.65 735.8
L 441.15 755.7 436.8 758.5
Q 434.35 763.95 428.2 774.15
L 409.25 805.75
Q 405.65 811.85 402.9 814.5 402.5 817.85 400.8 821.75 399.7 824.1 397.2 828.55
L 384.75 850.3
Q 381.55 855.8 380.4 859.45 378.8 864.75 380.2 869
L 377.3 870.5
Q 377.9 874.9 376.55 882 374.9 891 374.75 893.55 374.2 902.05 378.15 909.7 382.25 917.7 389.5 921.4 392.05 922.7 395.9 923.85 398.1 924.55 402.5 925.75 405.15 926.6 409.9 928.5 414.95 930.45 417.35 931.2 432.65 936.15 449.3 933.7 465.75 931.25 479.3 922.25 479.95 919.6 482.2 916.65 485.05 913.4 486.4 911.7 489.7 907.75 494.65 898.65 498.25 892.1 499.7 888.35 501.45 884.1 502.85 877.6 504.8 869.35 504.85 863.9 504.9 860.2 504.15 854.7
L 503 845.55
Q 501.7 833.15 501.45 831.8 499.95 824.1 495.95 819.85 491.5 815.15 483.45 813.5 482.2 813.25 480.5 813.1 480.35 814.8 479.95 815.95 479 818.4 475.7 821.05 471.4 824.5 470.45 825.6 469.75 826.5 468.45 828.55 467.3 830.5 466.5 831.45 464 834.4 457.85 836.1
L 457.85 840.3 446.65 839.6 446.65 823.55 453.3 820.85
Q 454.85 820.15 455.35 819.9 456.35 819.3 456.9 818.45 457.3 817.9 457.7 816.85 458.25 815.2 458.35 815.15 459.15 813.5 461.25 811.95 463.8 810.25 464.85 809.3 466.7 807.65 467.9 805.6 468 804.2 468.25 802.75 469.2 797.8 472.15 794 472.8 793.05 474.7 791 476.4 789.1 477.25 787.95 478.95 785.5 480.85 780.25
L 484.45 770.4
Q 487.25 762.75 488.4 758.75 490.25 752.25 490.65 746.8 490.95 742.85 490.55 735.5 490.1 727.7 490.25 724.2 490.5 718.5 493.15 706.6
L 496.75 690.35
Q 496.15 689.35 494.8 689.75 493.4 690.15 492.8 691.3 492.45 692.1 492.2 693.7 491.95 695.4 491.65 696.15 490.75 698.2 487.25 699.9 483.1 701.9 482 703.15 Z"/>

<path fill="#000000" stroke="none" d="
M 629.85 765.2
Q 629.55 766.3 628.45 767 627.4 767.65 626.3 767.35 626.85 770.1 625.55 772.85 624.3 775.55 621.85 777.1 621.25 777.55 619.9 778.3 618.75 778.95 618.2 779.7 617.65 780.4 617.25 781.8 616.7 783.65 616.55 784.05 615.7 786.45 612.3 788.7 607.75 791.65 606.85 792.55 603.85 795.5 603.7 799.65
L 598.5 801.2
Q 593.45 807.6 592.65 818.15 592.35 821.8 592.5 827.25 592.55 830.25 592.7 836.3 592.7 839.15 592.55 844.7 592.5 849.7 592.9 853.1 593.3 857.15 594.55 863 595.7 868.15 596.6 870.5 598.05 874.35 598.2 874.75 598.9 877.2 598.15 879 600.95 879.3 602.7 881.9 604.55 884.55 603.8 887.3 609.1 890.15 614.8 891.75 621.35 896.2 629 898.45 636.7 900.6 644.5 900.25 645.9 900.2 646.9 900.6 648.05 901.1 648 902.1
L 691.45 902.5 705.45 896.95 705.5 892.9 711.1 891.5
Q 711.95 887.15 711 882.7 710.05 878.3 707.5 874.75
L 695.7 874.7
Q 695.45 875.2 695.15 875.65 693.2 879.2 692.85 883.15 685.25 885.4 678.7 888.5 676.05 888.85 673.15 889 668.25 889.2 662.65 888.8 657.15 888.35 646.6 886.95 637.65 885.7 633.35 884.3 629.95 883.15 624.65 880.5
L 614.85 875.65
Q 615.5 873 613.8 870.55 612.1 868.05 609.35 867.7 610.2 865.45 609.1 862.25 607.65 858.6 607.1 856.75 606.8 855.5 606.5 853.6
L 606.1 850.4
Q 605.8 849.05 605.3 847 604.55 844.05 604.4 843.6 602.55 836.1 603.9 828.1 605.2 820.25 609.45 813.65
L 615.05 812.3
Q 614.3 810.15 615.6 807.85 616.7 805.8 618.9 804.3 621.65 802.6 622.95 801.8 625.35 800.25 626.5 798.7 628.15 796.55 629.1 791.55 629.1 791.45 629.1 791.4 632.8 790.5 635.25 787.2 637.7 783.85 637.4 780
L 640.3 778.55
Q 640.7 774.2 640.25 769.85 640.05 767.85 639.7 765.95
L 629.85 765.2
M 476.5 682.2
Q 473.9 684.7 470.1 689.4
L 424.45 745.05 397.6 791.8
Q 395.45 795.4 394.55 796.85 392.7 799.55 390.9 801.4 388.1 809 380.55 822.05 372.5 835.95 369.8 842.6 365.2 853.9 363.35 868.8 362.1 878.7 361.7 895.9 361.45 907.25 362.8 914 364.7 923.85 370.5 929.45 373.55 932.45 378.35 934.75 381.45 936.1 387.5 938.15 403.3 943.4 413.6 945.9 428.1 949.45 440.3 949.95 454.65 950.65 467.45 947.4 481.3 943.7 491.65 935.75
L 508.6 910.75 512.4 900.95
Q 519 882.45 519.05 865.7 519.15 860.6 518.6 854.25 518.3 851.05 517.35 842.8
L 515.2 825.05
Q 514.7 821.25 514.3 819.5 513.7 816.45 512.55 814.2 510.95 811.2 506.6 806.95 502.8 803.1 499.9 801.4 495.75 798.95 492 799.7 492.4 793.05 497.05 781.8 502 769.55 502.85 764 503.5 760.2 503.4 754.95 503.2 748.9 503.15 745.85 502.95 731.65 506.15 717.5 507.3 712.6 509.9 703.75 512.65 694.3 513.7 690.1 517.15 675.6 517.55 660.7
L 491.6 660.7
Q 491.25 667.9 486.5 673.35 485 675.05 481.45 677.9 478.05 680.65 476.5 682.2
M 479.75 707.1
Q 481.1 704.15 482 703.15 483.1 701.9 487.25 699.9 490.75 698.2 491.65 696.15 491.95 695.4 492.2 693.7 492.45 692.1 492.8 691.3 493.4 690.15 494.8 689.75 496.15 689.35 496.75 690.35
L 493.15 706.6
Q 490.5 718.5 490.25 724.2 490.1 727.7 490.55 735.5 490.95 742.85 490.65 746.8 490.25 752.25 488.4 758.75 487.25 762.75 484.45 770.4
L 480.85 780.25
Q 478.95 785.5 477.25 787.95 476.4 789.1 474.7 791 472.8 793.05 472.15 794 469.2 797.8 468.25 802.75 468 804.2 467.9 805.6 466.7 807.65 464.85 809.3 463.8 810.25 461.25 811.95 459.15 813.5 458.35 815.15 458.25 815.2 457.7 816.85 457.3 817.9 456.9 818.45 456.35 819.3 455.35 819.9 454.85 820.15 453.3 820.85
L 446.65 823.55 446.65 839.6 457.85 840.3 457.85 836.1
Q 464 834.4 466.5 831.45 467.3 830.5 468.45 828.55 469.75 826.5 470.45 825.6 471.4 824.5 475.7 821.05 479 818.4 479.95 815.95 480.35 814.8 480.5 813.1 482.2 813.25 483.45 813.5 491.5 815.15 495.95 819.85 499.95 824.1 501.45 831.8 501.7 833.15 503 845.55
L 504.15 854.7
Q 504.9 860.2 504.85 863.9 504.8 869.35 502.85 877.6 501.45 884.1 499.7 888.35 498.25 892.1 494.65 898.65 489.7 907.75 486.4 911.7 485.05 913.4 482.2 916.65 479.95 919.6 479.3 922.25 465.75 931.25 449.3 933.7 432.65 936.15 417.35 931.2 414.95 930.45 409.9 928.5 405.15 926.6 402.5 925.75 398.1 924.55 395.9 923.85 392.05 922.7 389.5 921.4 382.25 917.7 378.15 909.7 374.2 902.05 374.75 893.55 374.9 891 376.55 882 377.9 874.9 377.3 870.5
L 380.2 869
Q 378.8 864.75 380.4 859.45 381.55 855.8 384.75 850.3
L 397.2 828.55
Q 399.7 824.1 400.8 821.75 402.5 817.85 402.9 814.5 405.65 811.85 409.25 805.75
L 428.2 774.15
Q 434.35 763.95 436.8 758.5
L 441.15 755.7 453.65 735.8
Q 455.15 736.3 456.65 734.95 457.85 733.65 458.35 731.85 458.75 729.45 459.1 728.3 459.55 726.4 460.65 725.4 461.45 724.65 463.8 723.75 465.95 722.95 466.75 722 467.7 720.95 468.25 718.5 468.8 715.85 469.55 714.85 470.5 713.55 473.25 712.6 476.35 711.5 477.3 710.75 478.55 709.75 479.75 707.1 Z"/>
</g>

<g id="Layer11_0_FILL">
<path fill="#000000" stroke="none" d="
M 981.05 148.05
Q 977.8 144.95 976.3 143.65 974.15 141.9 972.2 140.7 972.15 139.3 972 137.95
L 958.6 137.55
Q 958.05 140.65 954.85 145.2 946.7 156.9 935.6 167.1 931.9 170.6 924 176.95 913.65 185.55 907.55 189.05 903.4 191.45 893.85 195.55 872.4 204.7 861.1 208.65 842.55 215.1 826.95 216.95 817.15 218.1 804.85 217.95 801.25 217.9 795.8 217.7 796.2 217.15 796.65 216.7 801.75 210.3 803.45 205.75 805.25 200.55 805.15 192.45 804.9 184.6 802.8 179.4 801.5 176.1 798.95 172.5 797.45 170.3 794.05 166.15 790.35 161.95 788.4 160.65 784.85 158.8 783.25 157.8 780.4 156 779.9 153.7
L 769.15 153.25
Q 768.7 159.15 768.75 165.15 767.4 165.7 765.95 166.55 764.65 167.3 761.4 169.7 752.25 176.2 741.95 181.05 734.7 184.4 730.15 183.85 728.5 183.65 726.1 182.8
L 722.15 181.4
Q 717.35 179.9 707.15 179.9
L 649 179.75
Q 642.05 179.7 639 179.4 633.45 179 629.2 177.6 625.35 176.3 617.45 171.8
L 606.5 165.4 605 157.7 604.6 157.7
Q 604.55 157.65 604.45 157.6 603.65 156.75 601.55 156.5 595.2 155.9 589.35 157.95 587.1 158.75 583.65 160.45 579.25 162.55 578 163.1 568.95 166.95 559.1 166.65 556 166.5 551.2 165.8 544.35 164.8 543.25 164.65 535.85 163.8 526.45 164.05 520.85 164.25 509.6 165.2 501.7 165.9 498 166.75 495.55 167.4 491.25 168.8 486.5 170.35 484.45 170.9 481.95 171.6 476.35 172.7 471 173.75 468.25 174.5 464.1 175.7 459.15 177.9 457.3 178.8 453.65 180.65 452.5 176.9 450.4 174.05 449.3 172.7 448.8 171.95 447.85 170.7 447.4 169.75 446.9 168.6 446.65 168.05 446.25 166.95 445.6 166.5 445 165.95 443.1 165.35 441.4 164.85 440.8 164.1 440.25 163.45 439.85 161.85 439.45 160.25 438.95 159.65 438.3 158.8 436.65 158.45 434.15 158 433.9 157.95 432.65 157.45 431.2 156.1 429.65 154.4 428.8 153.6 425.15 150.05 418.75 149.3 414.4 148.8 407.2 149.55
L 404.75 160.25
Q 402.9 168.2 401.7 171.8 398.9 179.75 391.85 189.95 383.9 201.4 374.3 211.1
L 369.05 216.35
Q 365.5 219.75 362.55 222.4 358.25 226.05 357.15 227.2 356.25 228.15 355 229.95 353.4 232 352.8 232.65 352.1 233.4 349.65 236 347.75 237.95 346.75 239.4 340.5 237.35 333.75 238.3 333.1 242.5 326.85 245.35 322.55 247.3 319.15 247.55 316.95 247.75 314.2 247.35 312.8 247.2 309.35 246.55 303.35 245.3 300.5 244.5 295.7 243.15 292.1 241.3 290.25 240.25 289.3 239.8 287.65 239 286.35 238.65 285.4 238.45 283.4 238.25 281.4 238.05 280.45 237.75 277.8 236.75 276.5 236.25 273.25 235.1 266.9 234.95
L 258.55 234.7
Q 256.4 234.7 255.65 234.9 254.5 235.15 251.95 236.75 249.8 238.15 248.3 238.25 248.15 238.8 248.1 239.3 245.1 239.05 243.2 239.2 239.1 239.4 236.3 241.1 235.7 241.5 230.7 246 227.35 249 224.5 249 224.7 250.35 223.9 251.3 216.45 254.5 211.05 259.65 209.55 261.1 206.4 263.95 203.55 266.2 200.9 266.6 198.45 266.95 195.45 265.9 193.5 265.25 190.3 263.45
L 174.8 254.9
Q 165.65 249.85 162.15 247.7 152.6 241.95 147.6 236.75 144.05 232.95 138.9 224.85 133.1 216.05 131.35 210.4 130.3 206.8 129.65 205.1 128.4 202.15 126.5 200.75 126.7 198.95 126.05 196.95 123.7 196.6 121.45 196.55 120.25 196.5 119 196.55 116.05 196.6 113.05 197.15 112.95 198 112.9 198.8 108.95 201.65 106.45 207.35 104.6 211.6 103.65 217.15 103.05 220.7 102.45 227.35 101.35 239.05 101.05 244.9 100.25 262.45 102.75 280.45 104.55 293.5 107.8 302.35 109.7 307.5 113.8 315.8 119.25 326.75 122.55 331.55 124.6 334.45 126.5 336.55 129.7 340.15 129.9 340.35 131.75 342.7 132.4 344.7 133.05 344.85 133.7 345.15
L 131.35 348
Q 125.05 355.75 121.2 358.8 119.3 360.2 115.75 362.45
L 101.9 371.3 101.4 373.2
Q 96.7 376.5 93.4 381.25 90.05 386 88.5 391.5 87.15 396.25 86.85 404.5 86.4 429.25 96.9 442.35 100.1 446.4 104.45 449.45 107.1 451.2 111.05 453.4
L 122.35 459.65
Q 127 462.2 128.75 464.35 130.1 465.95 130.45 468 130.85 470.2 129.9 471.8 129 473.5 125.6 475.5
L 119.5 478.75
Q 117.8 479.65 112.95 481.75
L 94.55 489.6 94.4 507.45
Q 110.85 515 131.35 514.5 149.5 514.1 169 507.5 170.35 507.05 171.7 506.6 169.35 512.05 168.4 515.8 167.55 519 166.75 525.4
L 164.9 539.65
Q 163.7 548.8 163.75 553.35 163.85 558.05 165.15 565.7 166.7 574.95 166.95 578 167.05 578.7 167.35 583.95 167.55 587.55 167.9 589.85 169.25 599.15 176.3 611.75 179.7 617.8 189.55 633.15 195 641.45 198.1 645.4 200 647.85 201.8 649.85 204.95 653.3 207.4 654.3 209.05 655.15 209.65 655.55 210.75 656.4 210.55 657.45
L 225.1 657.85
Q 224.35 647.2 224.95 641.4 226 632.4 230.25 626.55 232.7 619.75 237.05 614.2 237.05 617.55 237.25 619.9 237.6 623.15 238.15 625.95 239.25 632.55 241.1 638.15 242.05 641.15 244 647.1 244.75 649.85 245.9 655.25 247.05 660.05 248.85 662.95 250.2 665.4 252.8 667.85 254.15 669.15 257.6 672.05 261.05 675 263.2 675.8 264.8 676.5 268.35 677.45 270.45 678.25 274.25 680.5 276.3 681.45 281.75 682.75
L 291.45 684.9
Q 296.9 686.15 299.65 686.55 310.7 688.1 323.9 685.3
L 323.9 685.05 331.2 685.3
Q 333.5 674.4 329.35 661.1 327.65 655.7 325.25 650.9 323.75 647.8 321.45 643.7
L 309.4 621.75 309.9 621.2 426.25 648.15
Q 455.9 655.15 472.3 657.8 476.5 658.45 493.7 660.9 506.9 662.75 515.05 664.4 527.95 666.95 553.8 673.3 576.5 678 592.75 676.3 603.15 675.1 615.7 671.05 623.1 668.6 637.8 662.6 659 653.9 668.7 649.65 685.95 642.15 699.05 635.2 708.65 630.2 713.85 627.55
L 713.85 630.95 729.15 631.35
Q 730.45 628.8 733.25 627.4 734.8 626.65 738.3 625.85 740.1 625.15 742.65 623.7 744.05 622.9 746.8 621.2 748.1 620.45 749.3 620 749.85 620.45 750.45 621.15 751 621.75 751.95 622.9 753.25 624.4 756.65 627 760.6 629.95 762.9 630.95 764.85 631.65 768.8 632.35 786.3 635.2 804.4 634.1 804.45 635.5 804.1 637.1 803.75 638.4 802.8 641
L 801.25 644.8
Q 799.3 649.9 797.45 652.8 795 656.15 794.2 658.05 793.3 660.15 792.95 663.1 791.95 669.75 791.95 676.35 791.8 681.2 792.9 683.95 793.15 684.6 793.65 685.85 794.05 686.95 794.05 687.75 794.1 688.45 793.9 689.9 793.85 691.05 794.3 691.7 794.45 691.85 794.6 692 794.6 692.2 794.6 692.45
L 794.95 696.7
Q 795.15 699.2 794.8 700.85 805.8 702.8 816.3 698.25 819.55 696.8 824.6 693.7 830.55 689.95 832.65 688.85 834.9 687.7 835.5 686.75 835.5 686.7 836.2 685.55 836.6 684.85 837.1 684.6 837.5 684.3 838.45 684.3 839.45 684.3 839.9 684.15 840.6 683.9 841.3 682.8 841.65 682.2 842.3 680.95 843.2 679.7 846 678.45 848.85 677.25 849.65 676 850.15 675.35 850.8 673.5 851.45 671.8 852.1 671.1 852.65 670.65 854 670 855.4 669.5 855.9 668.95 856.65 668.25 857.2 666.85 858.05 664.7 858.15 664.45 858.7 663.55 859.65 662.7 860.25 662.15 861.45 661.05 863.4 659.1 865.8 655.35 868.05 652 869.4 649.5 871.1 646.25 873 640.15 875.7 632.1 876.25 627.65 876.65 624.35 876.65 619.25
L 876.8 605.45 878.1 605.5
Q 893.95 606.85 902.85 607.4 916.5 608.15 927.6 607.85 932.5 607.75 935.2 607 935.95 606.8 939.45 605.35 941.95 604.35 943.7 604.05 944.8 603.95 947.05 603.65 948.95 603.25 949.6 602.05 950.1 601.2 950.05 599.9 949.9 598.35 949.85 597.6 949.85 597.45 950.1 592.65 950.25 589.7 949.3 588 948.55 586.65 946.85 585.5 946.65 585.3 943.8 583.6 937.25 579.8 932.2 573 927.75 566.8 924.85 558.85 919.35 543.35 921.4 527.3 925.1 524.9 929.5 521.4 942.1 511.5 952.9 501.95 954.5 500.55 957.65 497.7 965.55 490.3 969.3 485.35 978.45 473.05 981.45 454.55 982.8 446.15 983 435.55 985.1 433 986 429.15 986.95 424.95 986.35 419.95 984.9 420.2 980 419.65 976.95 419.3 975.05 420 972.7 420 971.5 421.2 970.65 422.15 970.45 423.8 970.1 424.05 969.9 424.2 968.65 425.15 966.55 425.9 964.2 426.75 962.95 427.2 961.5 427.75 959.2 428.9 956.5 430.35 955.6 430.75 952.55 432.05 945.6 433.6 939.95 434.75 937.5 435.1 932.95 435.75 929.35 435.65 919.85 435.3 914.25 430.05 912.95 426.95 912.65 423.4 912.15 417.2 915.3 410.15 916.1 408.25 918.15 404.55 918.8 403.35 920.2 401.35 920.85 400.25 922.85 397.55
L 931.35 385.8
Q 933.9 382.2 934.65 380.7 935.55 378.9 937.2 375.3 937.8 374.25 939.3 372 940.8 369.8 941.4 368.6 942.55 366.5 944.1 361.1 946.1 354.15 946.5 350.3 947.1 344.25 945.15 339.75 944 337.45 943.5 336.2 942.6 334.2 942.7 332.6 941.2 332.5 939.75 331.05 939.15 330.45 937.6 328.2 932.3 321.05 921.6 318.6 919.55 318.2 917.35 317.95 930.3 310.85 933.45 308.95 948.95 299.3 964.1 283.1 974.85 271.7 989.8 251.85 993.6 246.8 995.45 243.95 998.45 239.45 1000.2 235.5 1002.45 230.7 1003.9 224.15 1004.75 220.35 1006 212.35 1007.65 201.8 1007.85 196.2 1008.15 187.25 1006 180.35 1002.8 170.25 991.4 158.4 988.85 155.75 981.05 148.05
M 988 184.4
Q 991.6 189.55 992.4 193 993.15 196.3 992.6 200.45 992.25 203.2 990.95 207.75 987.7 220.15 984.35 226.55 982.6 230.05 979.7 234.1 978.1 236.25 974.25 241.25 960.45 258.85 952.4 267.55 939.65 281.55 927.05 290.1 922.15 293.45 913.8 298.3
L 887 313.9
Q 881.55 320.7 879.25 329.35 876.95 338 878.3 346.55 885.25 347.35 892.5 346.6 892.05 342.05 894 337.65 896.05 333.25 899.85 330.6
L 900.2 328.4
Q 901.5 327.45 903 326.45
L 903.05 329.2
Q 908.95 328.25 917.1 334.25 924.05 339.4 929.85 345.6 931.15 349.5 929.5 354.4 928.4 357.65 925.4 362.65 921.8 368.8 919.55 371.9
L 916.05 376.6
Q 911.75 382.1 907.35 388.7 904.9 392.5 903.75 394.9 901.95 398.5 900.05 406.4 898.85 411.45 898.4 413.95 897.65 418.45 897.55 427.55 897.45 431.1 897.75 433 898.1 435.9 899.3 437.95 899.85 438.85 901 440.6 901.8 442.15 901.4 443.4 914.8 450 927.1 450.75 933.3 451.05 941.05 450 945.75 449.3 954.8 447.35 962 445.9 966.1 444.45 967.45 444 969.75 443.05 968.75 449.1 966.5 455.1 961.45 468.8 951.4 478.9
L 940.5 489
Q 932.2 496.65 927.85 500.25 911.7 513.9 894.95 521.3 875.8 529.8 857.4 529.4 854.35 529.35 840.5 528.05 830.15 527 823.6 527.85
L 823.6 537.35
Q 826.95 539.4 831.7 540.5 835 541.3 840.35 541.8 865.25 544 889.7 540.9 897.15 539.95 900.8 538.25 903.2 537.15 907.35 534.55 907.4 535.1 907.45 535.75 908.55 544.5 908.55 544.65 908.7 546.55 908.7 552.25 908.6 557.1 909.05 559.85 909.65 564 912.5 572.05
L 915 578.75
Q 917.45 585.55 919.9 588.35 921.75 590.35 922.35 591.35 923.4 593.2 922.5 594.55
L 881.2 590.95
Q 877.15 590.6 875.15 590.25 871.85 589.7 869.3 588.65 868.05 588.1 865.25 586.6 862.65 585.15 861.1 584.55 859.8 584.15 859.1 583.85 858.05 583.4 857.35 582.85 856.85 582.35 856.25 581.5 855.5 580.25 855.3 580.05 853.05 577.25 848.05 576.8 846.75 576.65 843.95 576.65 841.3 576.65 839.9 576.45 838.5 584.2 842.4 591.35 843.5 593.3 844.9 594.75 846.2 596.2 848.45 597.65 851.5 600.1 853.9 601.3 857.1 603 861.5 603.8 862.5 604 864.1 604.2 863.8 610.75 862.2 617 861.55 619.25 860.15 623.65 858.85 627.55 858.25 629.9 857.55 633.1 856.65 634.4 856.15 635.3 854.75 636.45 853.15 637.8 852.75 638.25 851.65 639.35 850.35 641.75 848.85 644.3 848.1 645.25 847.65 645.8 845.85 647.65 844.35 649.1 843.75 650.15 842.75 652.6 841.9 653.65 841.45 654.25 840.5 655 839.4 655.75 838.85 656.15 837.9 656.95 836.8 658.4
L 835 660.85
Q 833.7 662.4 831.5 664.1 830.9 664.6 827.65 666.9 820.5 672.35 816.75 674.8 814.05 676.55 810.7 678.45 808.2 679.95 806.35 680.95 805.8 677.45 805.55 675.4 805.25 672.75 805.8 671.3 806.2 670.25 807.25 669.05 807.8 668.4 809 667.05 811.1 664.65 813.4 658.95
L 815.45 654.05
Q 817.05 650.3 817.8 647.65 818.95 643.15 818.95 636.35 818.8 629.85 818 626.25 817.3 623.1 815.4 618.35 813.75 614.25 812.9 612.35 811.4 609.1 809.55 606.85 807.5 604.7 806.6 603.45 804.6 600.35 803.2 598.95 801.95 597.9 801.25 597.35 800.15 596.4 799.7 595.5 799.5 595.1 799.1 593.95 798.8 592.9 798.4 592.35 798 591.85 797.25 591.3 796.35 590.75 795.9 590.4 795 589.7 793.75 588.3 792.15 586.45 791.8 586.1 789.35 584.05 788.4 582.8 786.75 580.55 786.35 575.1
L 777.25 574.7
Q 775.6 581.9 775.7 589.05 775.7 592.1 776.5 594 776.75 594.7 778.7 597.4 781.65 601.6 781.85 601.95 784 604.25 786.3 604.35 785.55 607.2 789.5 611.15 792.8 614.55 795.35 617.6
L 795.25 617.6 793.55 618.4
Q 791.45 619.25 787.6 619.65
L 787.6 620.65 786.35 620.5
Q 782.6 620.2 780.8 619.85 777.65 619.3 775.4 618.3 772.7 617 768.4 613.25 767.1 612.25 764.65 610.05 761.25 607.25 760.1 606.5 759.65 606.25 759.25 605.95 759.1 604.95 758.8 604.4 758.4 603.65 757.65 603.3 756.85 602.9 756.1 603.2 756.05 601.4 757.75 599.5 758.7 598.4 760.7 596.25 762.1 594.5 763.05 591.3 764.55 586.3 764.65 585.9 765.2 584.4 766.45 582.25 768 579.4 768.35 578.65 769.9 574.95 770.45 569.95 770.7 566.8 770.65 560.9
L 770.2 525.4 785.8 525.6
Q 789.85 525.75 792 525.1 794.95 524.3 799.35 520.65 805.35 515.75 808 514.05 813.1 510.7 817.8 509.9 817.25 508.45 817.85 504.4 818.3 500.8 817.1 499.2 815.6 497.25 811.05 497.1 806.3 496.9 803.7 497.1 799.7 497.5 796.75 498.95 793.1 501.25 791.25 502.35 788 504.25 785.4 504.1 784.4 507.3 780.9 509.15 777.7 510.75 773.9 510.55 771 510.45 767.05 509.05 762.65 507.5 760.4 506.75 755 505.05 749.3 504.5 741.05 503.85 731.3 505.75 724.2 507.15 713.6 510.55 699.2 515.25 681.7 522.15
L 688.45 515.95
Q 692.95 511.95 694.5 510.7 696.6 509.15 697.55 508 698.9 506.2 698.55 504.5
L 702.1 503.15
Q 703.45 498.65 706.1 495 706.85 494 708.85 491.6 710.6 489.5 711.5 488.15 713.75 484.5 714.4 479.2 714.9 475.9 714.9 469.55 715.05 462 714.3 457.8 714 455.95 713.35 453.7 712.7 451.75 711.45 449.3 709.75 446.4 706.85 444.2 704.1 442.1 700.75 441.15 699.6 440.8 697.35 440.45 695.05 440.1 694 439.85 692.3 439.45 690.05 438.5 687.5 437.45 686.2 436.95 678.7 433.85 670 432.3
L 678.8 425.35
Q 683 422.1 684.9 420.2 687 418.15 691.15 413.65 694.9 410.05 698.55 409.4
L 698.85 407.6
Q 702.3 404.15 707.4 404.15 709.2 404.15 714.85 405.6 719.3 406.65 722.05 405.9 722.35 401.3 722.5 399 722.65 394.9 720.95 392.75 719.5 390.8 716.6 390.05 714.55 389.55 711.15 389.45
L 699.95 389.35
Q 687.3 389.35 684.5 395.6 682.6 395.25 680.6 396.8 679.45 397.7 677.55 400.05 673.75 404.75 664.8 411.85
L 636.9 434.05
Q 630.05 439.45 627.3 441.3 610.3 453.2 589.8 456.7 598.75 445.45 602.95 431.2 607.25 417 605.95 402.6 605.4 397.35 603.7 394.95 603.3 394.45 602.9 393.95
L 616.35 384.25
Q 618.95 382.4 620.15 381.3 622.1 379.55 623.1 377.7 624.4 375.2 624.6 371.65 624.65 369.4 624.2 365.3 617.7 362.75 609.9 366 605.1 368 597.6 373.75
L 569.15 395.25
Q 566.3 395.9 563.2 398.15 562.3 398.8 557.9 402.3 545.65 412.1 527.75 417.55 513.75 421.7 493.95 423.75 485 424.7 483 424.95 476.75 425.75 472.2 427.2 466.65 428.95 460.15 432.55 456.15 434.8 448.95 439.6
L 425.2 455.15
Q 425.15 454.75 425.1 454.4 424.9 453.1 424.6 452.35 423.8 450.75 423.45 449.9 422.9 448.4 423.3 447.4
L 421.6 446.5
Q 420.25 439.05 414.7 434.15 413 432.7 412.15 431.9 410.8 430.45 410.45 429.05 410.25 428 410.2 427.55 409.9 426.75 409.45 426.3 409.1 426.05 408.4 425.85 407.55 425.65 407.25 425.5 406.5 425.15 405.65 423.35 403.2 418 398.85 414.1 397.6 412.85 396.3 412.3 394.9 411.7 392.15 411.7
L 374.3 411.5
Q 372.4 414.15 368.85 415.05 369.2 415.5 368.9 416.2 368.7 416.85 368.15 417.25 367.5 417.8 365.8 418.45 364.45 419.1 363.15 420.9 362.4 421.85 361.1 423.95 359.8 425.7 356.95 428.95 352.65 434.7 351.5 443.45 350.95 448.3 351.35 457.85
L 348.65 457.75
Q 347.3 465.85 347.75 473.5 349.8 473.6 351.85 475.3 352.95 476.25 355 478.8 359 483.9 363.95 488.2 365.5 489.5 367.15 490.7 365.8 490.6 364.3 490.5 361.55 490.35 356.2 490.7 355.6 496.4 355.85 501.8 356.6 501.85 357.35 502.15 354.55 517.25 354.45 532.55 353.8 532.35 353.05 532.25 352.4 532.2 351.65 532.2 351.65 530.65 351.65 529.35 351.65 522.4 348.65 519.4 346.5 517.3 342.6 516.9 339.95 516.6 335.55 517.25
L 335.95 533.2
Q 336.3 543.8 336.2 549.65 336.05 558.8 335.05 566.05 334.3 571.2 333 574.35 329.2 583.55 316 589.7 312.7 591.15 311.4 592.05 309.9 593 307.3 595.45 299.75 602.7 297.8 609.35 297 612.3 296.7 617.55 296.25 628 298.05 634.95 299.35 639.7 302.2 645.15 303.9 648.45 307.8 654.75
L 312.2 661.8
Q 315.6 667.3 316.85 670 317.05 670.5 317.25 671
L 308 671
Q 302.55 671 299.9 670.55 295.3 669.9 288.25 666.7 283.45 664.45 281.35 663.7 276.7 662.15 276.35 662 274.35 661.05 271.15 658.4 267.8 655.7 266.25 654.2 263.65 651.65 262.25 649.2 260.55 646.3 259.35 641.4 257.4 633.15 257.4 633.1 256.9 631.45 255.85 628.6 254.7 625.4 254.25 624.05 253.3 621 252.25 614.75
L 250.05 602.9
Q 254.55 599.8 261.35 595.35 273.6 587.35 277.85 579.25 280.5 574.2 281 568.45 281.45 562.5 279.55 557.2 278.2 557.55 274.25 556.8 270.95 556.15 269.35 557.35 268.4 558.05 267.25 560.8 264.6 567.2 258.85 572.85 255.75 575.7 251.35 578.9 241.55 586 232.05 591.35 223.95 598.55 218.8 608.35 213.7 618.15 212.4 628.9 212.1 631 211.05 631.4 209.6 631.9 208.25 629.45 206.4 626.1 201.65 618.6
L 192.85 604.8
Q 186.15 594.15 183.85 588 181.05 580.95 179.75 570.55 178.05 557.55 178.6 545.85 179.05 534.45 181.85 525.75 183.1 522 186.6 514.05 191.45 503.5 193.3 497.7 194.15 494.95 194.75 492.3 194.9 492.05 195.1 491.85 205.1 493.7 215.4 493.7 216.95 489 215.1 484.05 213.25 479 209.05 476.45 194.85 474.75 181.3 477.4
L 180.9 479.75
Q 178.1 480.8 174.5 482.8 172.4 484.05 168.3 486.45 158.2 492.2 146.65 495.15 135.15 498.05 123.4 497.9 131.65 496 138.4 491.6 142 489.35 143.85 486.95 146 484.25 147.15 480.05 147.9 477.1 148.45 472.2 149 466.85 148.8 463.6 148.6 458.75 146.95 455.3 144.25 449.5 136.45 444.8 127 440 122.65 437.2 115.9 432.9 110.95 426.4 106.05 419.95 103.65 412.25 102.55 408.9 102.85 406.35 103.05 403.95 105.4 399.6 107.75 395.25 109.8 392.85 112.65 389.55 116.05 388.7
L 116.1 386.2
Q 124.85 382.4 131.35 375.2 133.45 375.5 135.35 373 137.3 369.8 138.45 368.5 141.2 366.2 142.5 365.05 144.8 362.95 144.5 360.9 149.35 358.4 152.05 353.35 153.25 353.75 154.5 354.15
L 167.25 358.3
Q 170.7 359.4 172.45 360.5 173.55 361.2 175.25 362.8 177.15 364.5 178.05 365.1 181.05 367.1 185.55 367.3 188.45 367.45 193.6 366.75 195.2 361.8 193.55 356.55 191.9 351.3 187.85 348.2 185.3 346.2 181.5 344.8 179.6 344.05 174.6 342.55 162.7 339.1 151.3 333.85 146.5 331.55 144.25 329.75 140.9 327.1 136.7 320.85 133.25 315.8 130.8 311.8 121 295.4 117 276.85 115.6 270.95 114.9 264.2 113.7 253.85 113.9 243.95 114.15 233.05 116.65 225.1 117 226 117.4 226.95 118.75 230 121.6 234.9 125.4 241.7 127.8 244.85 133.35 252.4 142.95 259.1 148.95 263.25 161.1 269.9
L 172 275.9
Q 179.2 279.8 182.8 280.95 186.5 282.1 191.35 282.5 194.25 282.7 200.15 282.75 205.6 282.85 208.45 282.5 213 282.05 216.35 280.4 218.9 279.1 223.35 275.25
L 229.6 269.8
Q 231.7 267.95 233.1 267.25
L 235.15 266.4
Q 236.75 265.65 239.3 263.2
L 246.05 256.8
Q 247.55 256.85 249.65 257 253.75 257.25 256.1 256.2 256.25 256.1 260.45 253.2 263 251.5 264.95 251.85
L 264.9 250.7
Q 269.35 251.9 274.75 252.25 277.55 255.7 282.1 255.7 281.8 256.05 282.2 256.45 282.55 256.85 283.1 257 293.8 260.05 304.05 261.15 309.55 261.75 320.55 262.05 324.6 262.15 326.9 262.05 330.35 261.9 333.1 261.15 335.2 260.55 338.6 258.95 342.6 257.2 344.45 255.05 346.8 255.7 349.55 255.5 352.75 255.15 355.45 253.45 357.1 252.45 359.05 250.45 360.2 249.3 362.45 247 365.1 244.5 370.2 240.95 376.25 236.75 378.25 235.1 380.9 232.95 384.9 228.85 394.15 219.65 398.55 214.55 405.75 206.25 409.9 198.5 410.75 197.05 412.35 193.95 413.8 191.4 415.15 189.7 415.75 189 416.9 187.65 417.9 186.4 418.3 185.4 418.75 184.2 418.95 179.3 419.15 175.55 421 174.25
L 428.3 179.1
Q 431.5 181.1 432.35 182.8 432.9 183.85 433.65 185.95 433.9 186.4 436.7 189.75 438.6 192 438.35 193.85 438.15 195.05 436.65 196.8 433.7 200.55 429.8 204.25 430 205.25 429.5 209.45 429.1 212.65 430.6 213.9 431.7 214.75 434.2 214.9 441.2 215.3 444.55 214.5 446.9 213.9 448.95 212.65 452 210.9 453.25 208.6 454.2 206.75 454.6 202.6 455.05 197.5 455.15 193.7 459.15 194.1 462.75 193.7 465.7 193.35 469.4 192.35 470.9 191.95 475.9 190.35 484.25 187.8 496.7 184.4 508.2 181.25 513.4 180.45 527.2 178.1 541.15 180.55 544.85 181.2 552.1 182.7 562.65 184.45 573.6 182.95 584.05 181.6 593.8 177.4 593.85 178.25 593.9 179.2 602.5 184.8 607.4 187.35 615 191.45 621.8 193.15 626.7 194.4 633 194.8 636.5 195 644.45 195.05
L 695.1 195.1
Q 703.8 195.1 707.9 196.55 709.5 197.1 712.8 198.75 715.9 200.3 717.6 200.85 721.35 202.05 728.7 202.2 739.25 202.6 744.75 201.3 749.35 200.3 755.4 197.25 758.9 195.55 765.7 191.95 768.6 190.5 774.55 187.65 779.5 185 782.15 181.8 782.5 181.4 782.75 181 785.6 185 787.6 189.6 789 193.15 788.55 195.35 788.25 196.6 787.25 198.05 786.75 198.65 785.2 200.35 780.65 205.3 777 211.05 770.9 220.6 773.45 227.15 776.35 228.35 779.85 228.05 780.05 229.45 780.6 230.8 814.45 235.5 848.7 229.95 882.9 224.35 913.6 209.15 919.75 206.15 925.1 202.8 930.7 199.2 939.95 191.8 947.05 186.2 951.1 182.55 961.25 173.35 968.85 162 969.55 162.7 970.35 163.5 980.3 173 988 184.4
M 655 444.15
Q 655.85 444.4 656.6 444.6 657.8 444.95 664.9 446.45 670 447.55 673 448.95 674.25 449.55 676.6 451 678.7 452.15 680.35 452.55 681.45 452.85 683.6 452.95 685.8 453.1 686.8 453.3 689.25 453.95 692.85 456.3 699.6 460.95 700.5 465.4 701.35 470.05 697.2 475.6 694.9 478.55 693.8 479.95 691.75 482.55 690.8 484.6 690.05 486.3 689.6 487.1 688.85 488.6 687.85 489.2 686.05 489.95 685.45 490.65 685.05 491.2 684.85 492.3 684.55 493.5 684.35 493.9 683.8 495.05 682.1 496.1 679.85 497.4 679.4 497.85 678.7 498.55 677.75 500.25 676.8 501.95 676.05 502.55 675.4 503.15 674.1 503.75 672.4 504.6 672 504.8 670.9 505.4 669.6 506.7 668.25 508.2 667.5 508.85 664.05 512.7 658.85 516.5 655.75 518.8 649.2 522.9 648.45 526.15 645.75 529.75 645.35 530.35 640.65 535.8 638.4 538.4 636.4 541.3 634.2 542.2 632.75 543.95 631.05 546.05 630.8 548.85 630.5 551.45 631.55 553.75
L 631.55 560.3 645.95 560.75
Q 646.2 557.55 647.85 554.55 648.2 554.35 648.55 554.1 652 553.15 658.1 550.5 681.5 540.15 705.3 531.7 719.8 526.55 734.15 522.4 738.65 521.05 741.4 520.65 745.5 520.1 748.75 520.85 750.55 521.3 753.85 522.8 754.45 523.1 755 523.35 754.9 526.05 755.9 528.5 756.85 530.55 756.9 530.85 757.25 531.9 757.1 534.9
L 757.1 547.9
Q 757.2 555.7 756.1 560.8 755.55 563.6 754.35 566.8
L 748.35 579.4
Q 746.8 582.6 744.95 585.55 743.2 588.35 740.45 591.85 738.3 594.6 734.7 598.4 732.35 600.95 730 603.4 723.95 603.95 717.35 606.15 709.8 608.75 694.15 616.9 675.2 626.85 650.7 637.3 635.6 643.8 606.25 655.45 597.85 658.8 593.45 660.1 586.25 662.2 580.25 662.25 573.65 662.35 564.95 659.9 555.05 656.65 550.05 655.05 537.85 651.35 519.85 648.9 499.35 646.5 489.15 645.05 468.8 642.3 442.1 636.25 440.25 635.8 395.5 624.95 350.65 614.15 319.2 610.8
L 320.15 609.65
Q 322.35 607 324.25 605.95 327.5 608.6 333 610.6 348.6 616.3 365.5 615.65 382.45 614.95 397.5 608.1 403.25 605.3 405.65 602.65 409.45 598.4 410.05 591.3 410.1 590.6 410.1 589.8 410.95 589.6 411.35 589.15 412.3 588.3 412.15 585.75
L 411.7 576.75
Q 403.45 578.1 394.1 574 387.05 570.9 378.3 564.1 375.5 561.9 373.55 560.05 373.2 556 371.35 550.8 367.4 539.6 367 536.9 366.4 533.3 366.75 528.8 366.9 526.05 367.65 520.75 368.35 515.55 369.6 512.55 370.4 510.5 371.55 509.15 376.4 510.45 381.9 510.3 391 510.1 400.25 506.1 400.35 505.35 400.9 504.7 401.4 504.2 402.15 504.05
L 402.15 503
Q 403.25 502.9 404.4 502.75 404 501.25 404.5 497.15 404.9 493.7 403.75 492 403.05 491 400.55 489.4 395.5 486.55 392.4 485.2 387.4 483.1 385.05 481.85 379.95 479.15 372.65 471.9 372.5 471.75 372.45 471.65
L 372.45 464.05 370.75 464
Q 370.75 463.85 370.75 463.7 370.95 460.75 369.8 459.35 369.45 458.95 368.15 458.05 367.1 457.35 366.65 456.65 366.05 455.7 366.2 453.05 366.25 450.6 365.4 449.7 366.05 447 367.95 444.05 369.2 442.15 371.85 439.1
L 376.6 433.45
Q 379.1 430.55 379.55 430.2 382.8 427 386.25 426.3 390.15 430.65 392.85 435.45 394.2 437.95 395.5 438.35 395.85 438.5 396.6 438.7 397.2 438.9 397.5 439.25 397.7 439.6 397.7 440.2
L 397.7 441.2
Q 397.75 442.5 399.65 444.7 402.65 448.2 404.9 452.15 405.75 453.8 409.25 461.55
L 410.25 463.8
Q 411.1 465.5 411.35 466.7 411.5 467.4 411.6 468.8 411.75 470.2 411.95 470.95 412.3 471.9 413.25 473.8 413.85 475.5 413.25 476.5 420.95 478.4 428.3 477.95 428.15 476.55 428.3 472.95 430.2 472.2 433.1 470.3
L 453.35 457.75
Q 464.25 451 470.1 447.95 479.6 443 488 440.85 493.15 439.5 500.7 438.7 505 438.15 513.55 437.25 535.3 434.5 555.5 426.2 560.95 424 564.3 421.75 566.25 420.55 568.85 418.3 570.25 417.05 573.1 414.55 578.65 409.85 582.9 410.05 583.2 408.05 586.4 405.85
L 588.6 404.3
Q 592.3 406.25 593.65 409.95 592.7 415.55 589.8 422.15 588 426.1 583.85 433.65 579.5 441.4 577.25 444.2 575.1 447.15 571.5 450.45 557.9 463.5 541 471.8 538.8 472.9 537.6 473.65 535.9 474.85 535.15 476.45 534.3 478.25 534.85 482 535.3 486.1 534.85 487.8 542.45 488.9 552.05 486.95 557.7 485.9 568.9 482.35
L 605.5 470.7
Q 616.3 467.3 621.8 465.15 630.65 461.7 637.1 457.6 640.3 455.65 647.25 450.2
L 655 444.15
M 349.75 554.3
Q 351.7 559.55 354.85 567.55 364.65 579.1 377.75 586.4 381.7 588.55 384.4 589.15 386.8 589.7 390.75 589.7
L 393.65 589.8
Q 392.8 590.6 391.75 591.35 389 593.45 384.85 595.1 382.25 596.05 377.2 597.45 369.6 599.7 365.05 600.4 358.25 601.4 352.85 600.2 349.45 599.45 344.8 597.35 342.95 596.45 341.4 595.7 342.65 594.5 343.5 593.3 346.25 589.5 347.85 583.1 349.15 577.4 349.4 568.75 349.45 559.1 349.75 554.3 Z"/>

<path fill="#1A120D" stroke="none" d="
M 354.85 567.55
Q 351.7 559.55 349.75 554.3 349.45 559.1 349.4 568.75 349.15 577.4 347.85 583.1 346.25 589.5 343.5 593.3 342.65 594.5 341.4 595.7 342.95 596.45 344.8 597.35 349.45 599.45 352.85 600.2 358.25 601.4 365.05 600.4 369.6 599.7 377.2 597.45 382.25 596.05 384.85 595.1 389 593.45 391.75 591.35 392.8 590.6 393.65 589.8
L 390.75 589.7
Q 386.8 589.7 384.4 589.15 381.7 588.55 377.75 586.4 364.65 579.1 354.85 567.55
M 992.4 193
Q 991.6 189.55 988 184.4 980.3 173 970.35 163.5 969.55 162.7 968.85 162 961.25 173.35 951.1 182.55 947.05 186.2 939.95 191.8 930.7 199.2 925.1 202.8 919.75 206.15 913.6 209.15 882.9 224.35 848.7 229.95 814.45 235.5 780.6 230.8 780.05 229.45 779.85 228.05 776.35 228.35 773.45 227.15 770.9 220.6 777 211.05 780.65 205.3 785.2 200.35 786.75 198.65 787.25 198.05 788.25 196.6 788.55 195.35 789 193.15 787.6 189.6 785.6 185 782.75 181 782.5 181.4 782.15 181.8 779.5 185 774.55 187.65 768.6 190.5 765.7 191.95 758.9 195.55 755.4 197.25 749.35 200.3 744.75 201.3 739.25 202.6 728.7 202.2 721.35 202.05 717.6 200.85 715.9 200.3 712.8 198.75 709.5 197.1 707.9 196.55 703.8 195.1 695.1 195.1
L 644.45 195.05
Q 636.5 195 633 194.8 626.7 194.4 621.8 193.15 615 191.45 607.4 187.35 602.5 184.8 593.9 179.2 593.85 178.25 593.8 177.4 584.05 181.6 573.6 182.95 562.65 184.45 552.1 182.7 544.85 181.2 541.15 180.55 527.2 178.1 513.4 180.45 508.2 181.25 496.7 184.4 484.25 187.8 475.9 190.35 470.9 191.95 469.4 192.35 465.7 193.35 462.75 193.7 459.15 194.1 455.15 193.7 455.05 197.5 454.6 202.6 454.2 206.75 453.25 208.6 452 210.9 448.95 212.65 446.9 213.9 444.55 214.5 441.2 215.3 434.2 214.9 431.7 214.75 430.6 213.9 429.1 212.65 429.5 209.45 430 205.25 429.8 204.25 433.7 200.55 436.65 196.8 438.15 195.05 438.35 193.85 438.6 192 436.7 189.75 433.9 186.4 433.65 185.95 432.9 183.85 432.35 182.8 431.5 181.1 428.3 179.1
L 421 174.25
Q 419.15 175.55 418.95 179.3 418.75 184.2 418.3 185.4 417.9 186.4 416.9 187.65 415.75 189 415.15 189.7 413.8 191.4 412.35 193.95 410.75 197.05 409.9 198.5 405.75 206.25 398.55 214.55 394.15 219.65 384.9 228.85 380.9 232.95 378.25 235.1 376.25 236.75 370.2 240.95 365.1 244.5 362.45 247 360.2 249.3 359.05 250.45 357.1 252.45 355.45 253.45 352.75 255.15 349.55 255.5 346.8 255.7 344.45 255.05 342.6 257.2 338.6 258.95 335.2 260.55 333.1 261.15 330.35 261.9 326.9 262.05 324.6 262.15 320.55 262.05 309.55 261.75 304.05 261.15 293.8 260.05 283.1 257 282.55 256.85 282.2 256.45 281.8 256.05 282.1 255.7 277.55 255.7 274.75 252.25 269.35 251.9 264.9 250.7
L 264.95 251.85
Q 263 251.5 260.45 253.2 256.25 256.1 256.1 256.2 253.75 257.25 249.65 257 247.55 256.85 246.05 256.8
L 239.3 263.2
Q 236.75 265.65 235.15 266.4
L 233.1 267.25
Q 231.7 267.95 229.6 269.8
L 223.35 275.25
Q 218.9 279.1 216.35 280.4 213 282.05 208.45 282.5 205.6 282.85 200.15 282.75 194.25 282.7 191.35 282.5 186.5 282.1 182.8 280.95 179.2 279.8 172 275.9
L 161.1 269.9
Q 148.95 263.25 142.95 259.1 133.35 252.4 127.8 244.85 125.4 241.7 121.6 234.9 118.75 230 117.4 226.95 117 226 116.65 225.1 114.15 233.05 113.9 243.95 113.7 253.85 114.9 264.2 115.6 270.95 117 276.85 121 295.4 130.8 311.8 133.25 315.8 136.7 320.85 140.9 327.1 144.25 329.75 146.5 331.55 151.3 333.85 162.7 339.1 174.6 342.55 179.6 344.05 181.5 344.8 185.3 346.2 187.85 348.2 191.9 351.3 193.55 356.55 195.2 361.8 193.6 366.75 188.45 367.45 185.55 367.3 181.05 367.1 178.05 365.1 177.15 364.5 175.25 362.8 173.55 361.2 172.45 360.5 170.7 359.4 167.25 358.3
L 154.5 354.15
Q 153.25 353.75 152.05 353.35 149.35 358.4 144.5 360.9 144.8 362.95 142.5 365.05 141.2 366.2 138.45 368.5 137.3 369.8 135.35 373 133.45 375.5 131.35 375.2 124.85 382.4 116.1 386.2
L 116.05 388.7
Q 112.65 389.55 109.8 392.85 107.75 395.25 105.4 399.6 103.05 403.95 102.85 406.35 102.55 408.9 103.65 412.25 106.05 419.95 110.95 426.4 115.9 432.9 122.65 437.2 127 440 136.45 444.8 144.25 449.5 146.95 455.3 148.6 458.75 148.8 463.6 149 466.85 148.45 472.2 147.9 477.1 147.15 480.05 146 484.25 143.85 486.95 142 489.35 138.4 491.6 131.65 496 123.4 497.9 135.15 498.05 146.65 495.15 158.2 492.2 168.3 486.45 172.4 484.05 174.5 482.8 178.1 480.8 180.9 479.75
L 181.3 477.4
Q 194.85 474.75 209.05 476.45 213.25 479 215.1 484.05 216.95 489 215.4 493.7 205.1 493.7 195.1 491.85 194.9 492.05 194.75 492.3 194.15 494.95 193.3 497.7 191.45 503.5 186.6 514.05 183.1 522 181.85 525.75 179.05 534.45 178.6 545.85 178.05 557.55 179.75 570.55 181.05 580.95 183.85 588 186.15 594.15 192.85 604.8
L 201.65 618.6
Q 206.4 626.1 208.25 629.45 209.6 631.9 211.05 631.4 212.1 631 212.4 628.9 213.7 618.15 218.8 608.35 223.95 598.55 232.05 591.35 241.55 586 251.35 578.9 255.75 575.7 258.85 572.85 264.6 567.2 267.25 560.8 268.4 558.05 269.35 557.35 270.95 556.15 274.25 556.8 278.2 557.55 279.55 557.2 281.45 562.5 281 568.45 280.5 574.2 277.85 579.25 273.6 587.35 261.35 595.35 254.55 599.8 250.05 602.9
L 252.25 614.75
Q 253.3 621 254.25 624.05 254.7 625.4 255.85 628.6 256.9 631.45 257.4 633.1 257.4 633.15 259.35 641.4 260.55 646.3 262.25 649.2 263.65 651.65 266.25 654.2 267.8 655.7 271.15 658.4 274.35 661.05 276.35 662 276.7 662.15 281.35 663.7 283.45 664.45 288.25 666.7 295.3 669.9 299.9 670.55 302.55 671 308 671
L 317.25 671
Q 317.05 670.5 316.85 670 315.6 667.3 312.2 661.8
L 307.8 654.75
Q 303.9 648.45 302.2 645.15 299.35 639.7 298.05 634.95 296.25 628 296.7 617.55 297 612.3 297.8 609.35 299.75 602.7 307.3 595.45 309.9 593 311.4 592.05 312.7 591.15 316 589.7 329.2 583.55 333 574.35 334.3 571.2 335.05 566.05 336.05 558.8 336.2 549.65 336.3 543.8 335.95 533.2
L 335.55 517.25
Q 339.95 516.6 342.6 516.9 346.5 517.3 348.65 519.4 351.65 522.4 351.65 529.35 351.65 530.65 351.65 532.2 352.4 532.2 353.05 532.25 353.8 532.35 354.45 532.55 354.55 517.25 357.35 502.15 356.6 501.85 355.85 501.8 355.6 496.4 356.2 490.7 361.55 490.35 364.3 490.5 365.8 490.6 367.15 490.7 365.5 489.5 363.95 488.2 359 483.9 355 478.8 352.95 476.25 351.85 475.3 349.8 473.6 347.75 473.5 347.3 465.85 348.65 457.75
L 351.35 457.85
Q 350.95 448.3 351.5 443.45 352.65 434.7 356.95 428.95 359.8 425.7 361.1 423.95 362.4 421.85 363.15 420.9 364.45 419.1 365.8 418.45 367.5 417.8 368.15 417.25 368.7 416.85 368.9 416.2 369.2 415.5 368.85 415.05 372.4 414.15 374.3 411.5
L 392.15 411.7
Q 394.9 411.7 396.3 412.3 397.6 412.85 398.85 414.1 403.2 418 405.65 423.35 406.5 425.15 407.25 425.5 407.55 425.65 408.4 425.85 409.1 426.05 409.45 426.3 409.9 426.75 410.2 427.55 410.25 428 410.45 429.05 410.8 430.45 412.15 431.9 413 432.7 414.7 434.15 420.25 439.05 421.6 446.5
L 423.3 447.4
Q 422.9 448.4 423.45 449.9 423.8 450.75 424.6 452.35 424.9 453.1 425.1 454.4 425.15 454.75 425.2 455.15
L 448.95 439.6
Q 456.15 434.8 460.15 432.55 466.65 428.95 472.2 427.2 476.75 425.75 483 424.95 485 424.7 493.95 423.75 513.75 421.7 527.75 417.55 545.65 412.1 557.9 402.3 562.3 398.8 563.2 398.15 566.3 395.9 569.15 395.25
L 597.6 373.75
Q 605.1 368 609.9 366 617.7 362.75 624.2 365.3 624.65 369.4 624.6 371.65 624.4 375.2 623.1 377.7 622.1 379.55 620.15 381.3 618.95 382.4 616.35 384.25
L 602.9 393.95
Q 603.3 394.45 603.7 394.95 605.4 397.35 605.95 402.6 607.25 417 602.95 431.2 598.75 445.45 589.8 456.7 610.3 453.2 627.3 441.3 630.05 439.45 636.9 434.05
L 664.8 411.85
Q 673.75 404.75 677.55 400.05 679.45 397.7 680.6 396.8 682.6 395.25 684.5 395.6 687.3 389.35 699.95 389.35
L 711.15 389.45
Q 714.55 389.55 716.6 390.05 719.5 390.8 720.95 392.75 722.65 394.9 722.5 399 722.35 401.3 722.05 405.9 719.3 406.65 714.85 405.6 709.2 404.15 707.4 404.15 702.3 404.15 698.85 407.6
L 698.55 409.4
Q 694.9 410.05 691.15 413.65 687 418.15 684.9 420.2 683 422.1 678.8 425.35
L 670 432.3
Q 678.7 433.85 686.2 436.95 687.5 437.45 690.05 438.5 692.3 439.45 694 439.85 695.05 440.1 697.35 440.45 699.6 440.8 700.75 441.15 704.1 442.1 706.85 444.2 709.75 446.4 711.45 449.3 712.7 451.75 713.35 453.7 714 455.95 714.3 457.8 715.05 462 714.9 469.55 714.9 475.9 714.4 479.2 713.75 484.5 711.5 488.15 710.6 489.5 708.85 491.6 706.85 494 706.1 495 703.45 498.65 702.1 503.15
L 698.55 504.5
Q 698.9 506.2 697.55 508 696.6 509.15 694.5 510.7 692.95 511.95 688.45 515.95
L 681.7 522.15
Q 699.2 515.25 713.6 510.55 724.2 507.15 731.3 505.75 741.05 503.85 749.3 504.5 755 505.05 760.4 506.75 762.65 507.5 767.05 509.05 771 510.45 773.9 510.55 777.7 510.75 780.9 509.15 784.4 507.3 785.4 504.1 788 504.25 791.25 502.35 793.1 501.25 796.75 498.95 799.7 497.5 803.7 497.1 806.3 496.9 811.05 497.1 815.6 497.25 817.1 499.2 818.3 500.8 817.85 504.4 817.25 508.45 817.8 509.9 813.1 510.7 808 514.05 805.35 515.75 799.35 520.65 794.95 524.3 792 525.1 789.85 525.75 785.8 525.6
L 770.2 525.4 770.65 560.9
Q 770.7 566.8 770.45 569.95 769.9 574.95 768.35 578.65 768 579.4 766.45 582.25 765.2 584.4 764.65 585.9 764.55 586.3 763.05 591.3 762.1 594.5 760.7 596.25 758.7 598.4 757.75 599.5 756.05 601.4 756.1 603.2 756.85 602.9 757.65 603.3 758.4 603.65 758.8 604.4 759.1 604.95 759.25 605.95 759.65 606.25 760.1 606.5 761.25 607.25 764.65 610.05 767.1 612.25 768.4 613.25 772.7 617 775.4 618.3 777.65 619.3 780.8 619.85 782.6 620.2 786.35 620.5
L 787.6 620.65 787.6 619.65
Q 791.45 619.25 793.55 618.4
L 795.25 617.6 795.35 617.6
Q 792.8 614.55 789.5 611.15 785.55 607.2 786.3 604.35 784 604.25 781.85 601.95 781.65 601.6 778.7 597.4 776.75 594.7 776.5 594 775.7 592.1 775.7 589.05 775.6 581.9 777.25 574.7
L 786.35 575.1
Q 786.75 580.55 788.4 582.8 789.35 584.05 791.8 586.1 792.15 586.45 793.75 588.3 795 589.7 795.9 590.4 796.35 590.75 797.25 591.3 798 591.85 798.4 592.35 798.8 592.9 799.1 593.95 799.5 595.1 799.7 595.5 800.15 596.4 801.25 597.35 801.95 597.9 803.2 598.95 804.6 600.35 806.6 603.45 807.5 604.7 809.55 606.85 811.4 609.1 812.9 612.35 813.75 614.25 815.4 618.35 817.3 623.1 818 626.25 818.8 629.85 818.95 636.35 818.95 643.15 817.8 647.65 817.05 650.3 815.45 654.05
L 813.4 658.95
Q 811.1 664.65 809 667.05 807.8 668.4 807.25 669.05 806.2 670.25 805.8 671.3 805.25 672.75 805.55 675.4 805.8 677.45 806.35 680.95 808.2 679.95 810.7 678.45 814.05 676.55 816.75 674.8 820.5 672.35 827.65 666.9 830.9 664.6 831.5 664.1 833.7 662.4 835 660.85
L 836.8 658.4
Q 837.9 656.95 838.85 656.15 839.4 655.75 840.5 655 841.45 654.25 841.9 653.65 842.75 652.6 843.75 650.15 844.35 649.1 845.85 647.65 847.65 645.8 848.1 645.25 848.85 644.3 850.35 641.75 851.65 639.35 852.75 638.25 853.15 637.8 854.75 636.45 856.15 635.3 856.65 634.4 857.55 633.1 858.25 629.9 858.85 627.55 860.15 623.65 861.55 619.25 862.2 617 863.8 610.75 864.1 604.2 862.5 604 861.5 603.8 857.1 603 853.9 601.3 851.5 600.1 848.45 597.65 846.2 596.2 844.9 594.75 843.5 593.3 842.4 591.35 838.5 584.2 839.9 576.45 841.3 576.65 843.95 576.65 846.75 576.65 848.05 576.8 853.05 577.25 855.3 580.05 855.5 580.25 856.25 581.5 856.85 582.35 857.35 582.85 858.05 583.4 859.1 583.85 859.8 584.15 861.1 584.55 862.65 585.15 865.25 586.6 868.05 588.1 869.3 588.65 871.85 589.7 875.15 590.25 877.15 590.6 881.2 590.95
L 922.5 594.55
Q 923.4 593.2 922.35 591.35 921.75 590.35 919.9 588.35 917.45 585.55 915 578.75
L 912.5 572.05
Q 909.65 564 909.05 559.85 908.6 557.1 908.7 552.25 908.7 546.55 908.55 544.65 908.55 544.5 907.45 535.75 907.4 535.1 907.35 534.55 903.2 537.15 900.8 538.25 897.15 539.95 889.7 540.9 865.25 544 840.35 541.8 835 541.3 831.7 540.5 826.95 539.4 823.6 537.35
L 823.6 527.85
Q 830.15 527 840.5 528.05 854.35 529.35 857.4 529.4 875.8 529.8 894.95 521.3 911.7 513.9 927.85 500.25 932.2 496.65 940.5 489
L 951.4 478.9
Q 961.45 468.8 966.5 455.1 968.75 449.1 969.75 443.05 967.45 444 966.1 444.45 962 445.9 954.8 447.35 945.75 449.3 941.05 450 933.3 451.05 927.1 450.75 914.8 450 901.4 443.4 901.8 442.15 901 440.6 899.85 438.85 899.3 437.95 898.1 435.9 897.75 433 897.45 431.1 897.55 427.55 897.65 418.45 898.4 413.95 898.85 411.45 900.05 406.4 901.95 398.5 903.75 394.9 904.9 392.5 907.35 388.7 911.75 382.1 916.05 376.6
L 919.55 371.9
Q 921.8 368.8 925.4 362.65 928.4 357.65 929.5 354.4 931.15 349.5 929.85 345.6 924.05 339.4 917.1 334.25 908.95 328.25 903.05 329.2
L 903 326.45
Q 901.5 327.45 900.2 328.4
L 899.85 330.6
Q 896.05 333.25 894 337.65 892.05 342.05 892.5 346.6 885.25 347.35 878.3 346.55 876.95 338 879.25 329.35 881.55 320.7 887 313.9
L 913.8 298.3
Q 922.15 293.45 927.05 290.1 939.65 281.55 952.4 267.55 960.45 258.85 974.25 241.25 978.1 236.25 979.7 234.1 982.6 230.05 984.35 226.55 987.7 220.15 990.95 207.75 992.25 203.2 992.6 200.45 993.15 196.3 992.4 193 Z"/>

<path fill="#D9A584" stroke="none" d="
M 656.6 444.6
Q 655.85 444.4 655 444.15
L 647.25 450.2
Q 640.3 455.65 637.1 457.6 630.65 461.7 621.8 465.15 616.3 467.3 605.5 470.7
L 568.9 482.35
Q 557.7 485.9 552.05 486.95 542.45 488.9 534.85 487.8 535.3 486.1 534.85 482 534.3 478.25 535.15 476.45 535.9 474.85 537.6 473.65 538.8 472.9 541 471.8 557.9 463.5 571.5 450.45 575.1 447.15 577.25 444.2 579.5 441.4 583.85 433.65 588 426.1 589.8 422.15 592.7 415.55 593.65 409.95 592.3 406.25 588.6 404.3
L 586.4 405.85
Q 583.2 408.05 582.9 410.05 578.65 409.85 573.1 414.55 570.25 417.05 568.85 418.3 566.25 420.55 564.3 421.75 560.95 424 555.5 426.2 535.3 434.5 513.55 437.25 505 438.15 500.7 438.7 493.15 439.5 488 440.85 479.6 443 470.1 447.95 464.25 451 453.35 457.75
L 433.1 470.3
Q 430.2 472.2 428.3 472.95 428.15 476.55 428.3 477.95 420.95 478.4 413.25 476.5 413.85 475.5 413.25 473.8 412.3 471.9 411.95 470.95 411.75 470.2 411.6 468.8 411.5 467.4 411.35 466.7 411.1 465.5 410.25 463.8
L 409.25 461.55
Q 405.75 453.8 404.9 452.15 402.65 448.2 399.65 444.7 397.75 442.5 397.7 441.2
L 397.7 440.2
Q 397.7 439.6 397.5 439.25 397.2 438.9 396.6 438.7 395.85 438.5 395.5 438.35 394.2 437.95 392.85 435.45 390.15 430.65 386.25 426.3 382.8 427 379.55 430.2 379.1 430.55 376.6 433.45
L 371.85 439.1
Q 369.2 442.15 367.95 444.05 366.05 447 365.4 449.7 366.25 450.6 366.2 453.05 366.05 455.7 366.65 456.65 367.1 457.35 368.15 458.05 369.45 458.95 369.8 459.35 370.95 460.75 370.75 463.7 370.75 463.85 370.75 464
L 372.45 464.05 372.45 471.65
Q 372.5 471.75 372.65 471.9 379.95 479.15 385.05 481.85 387.4 483.1 392.4 485.2 395.5 486.55 400.55 489.4 403.05 491 403.75 492 404.9 493.7 404.5 497.15 404 501.25 404.4 502.75 403.25 502.9 402.15 503
L 402.15 504.05
Q 401.4 504.2 400.9 504.7 400.35 505.35 400.25 506.1 391 510.1 381.9 510.3 376.4 510.45 371.55 509.15 370.4 510.5 369.6 512.55 368.35 515.55 367.65 520.75 366.9 526.05 366.75 528.8 366.4 533.3 367 536.9 367.4 539.6 371.35 550.8 373.2 556 373.55 560.05 375.5 561.9 378.3 564.1 387.05 570.9 394.1 574 403.45 578.1 411.7 576.75
L 412.15 585.75
Q 412.3 588.3 411.35 589.15 410.95 589.6 410.1 589.8 410.1 590.6 410.05 591.3 409.45 598.4 405.65 602.65 403.25 605.3 397.5 608.1 382.45 614.95 365.5 615.65 348.6 616.3 333 610.6 327.5 608.6 324.25 605.95 322.35 607 320.15 609.65
L 319.2 610.8
Q 350.65 614.15 395.5 624.95 440.25 635.8 442.1 636.25 468.8 642.3 489.15 645.05 499.35 646.5 519.85 648.9 537.85 651.35 550.05 655.05 555.05 656.65 564.95 659.9 573.65 662.35 580.25 662.25 586.25 662.2 593.45 660.1 597.85 658.8 606.25 655.45 635.6 643.8 650.7 637.3 675.2 626.85 694.15 616.9 709.8 608.75 717.35 606.15 723.95 603.95 730 603.4 732.35 600.95 734.7 598.4 738.3 594.6 740.45 591.85 743.2 588.35 744.95 585.55 746.8 582.6 748.35 579.4
L 754.35 566.8
Q 755.55 563.6 756.1 560.8 757.2 555.7 757.1 547.9
L 757.1 534.9
Q 757.25 531.9 756.9 530.85 756.85 530.55 755.9 528.5 754.9 526.05 755 523.35 754.45 523.1 753.85 522.8 750.55 521.3 748.75 520.85 745.5 520.1 741.4 520.65 738.65 521.05 734.15 522.4 719.8 526.55 705.3 531.7 681.5 540.15 658.1 550.5 652 553.15 648.55 554.1 648.2 554.35 647.85 554.55 646.2 557.55 645.95 560.75
L 631.55 560.3 631.55 553.75
Q 630.5 551.45 630.8 548.85 631.05 546.05 632.75 543.95 634.2 542.2 636.4 541.3 638.4 538.4 640.65 535.8 645.35 530.35 645.75 529.75 648.45 526.15 649.2 522.9 655.75 518.8 658.85 516.5 664.05 512.7 667.5 508.85 668.25 508.2 669.6 506.7 670.9 505.4 672 504.8 672.4 504.6 674.1 503.75 675.4 503.15 676.05 502.55 676.8 501.95 677.75 500.25 678.7 498.55 679.4 497.85 679.85 497.4 682.1 496.1 683.8 495.05 684.35 493.9 684.55 493.5 684.85 492.3 685.05 491.2 685.45 490.65 686.05 489.95 687.85 489.2 688.85 488.6 689.6 487.1 690.05 486.3 690.8 484.6 691.75 482.55 693.8 479.95 694.9 478.55 697.2 475.6 701.35 470.05 700.5 465.4 699.6 460.95 692.85 456.3 689.25 453.95 686.8 453.3 685.8 453.1 683.6 452.95 681.45 452.85 680.35 452.55 678.7 452.15 676.6 451 674.25 449.55 673 448.95 670 447.55 664.9 446.45 657.8 444.95 656.6 444.6 Z"/>
</g>

<g id="Layer10_0_FILL">
<path fill="#000000" stroke="none" d="
M 475.55 595.3
Q 475.45 596.4 474.45 597.6 473.85 598.3 472.6 599.6 470.8 601.95 470.85 606.25 470.85 608.7 471.3 613.65 471.3 614.55 471.05 619.05 470.85 622.35 471.25 624.4 471.75 626.85 473.3 629.55 474.3 631.35 476.5 634.25 479.1 634.4 482.4 636.55 487.25 639.75 488 640.1 490.25 641.15 493.35 641.55 495.2 641.75 499 641.8
L 509.25 641.95
Q 516.4 642.1 519.85 641.6 522.05 641.35 525.1 640.6 526.8 640.15 530.3 639.3 536.35 637.85 544 637 548.55 636.45 557.9 635.7 561.9 635.35 563.95 635.35 567.25 635.35 569.85 636.1 571.9 636.65 575.35 638.4 579.1 640.25 580.85 640.8 584.05 641.8 590.95 642.1 597.45 642.35 601 641.95 606.5 641.35 610.3 638.95 613.25 636.9 614.75 636.05 617.3 634.55 619.4 634.85
L 619.35 632.1
Q 624.45 629.45 626.85 623.1 628.95 617.65 628.75 610.8 628.6 604.05 626.5 600.25 622.4 597.8 617.65 597 612.85 596.2 608.15 597.15 607.1 605.55 611.25 613.2 609.35 616.1 605.95 617.85
L 605.9 620.5
Q 603.65 619.9 600.5 622.2 596.3 625.2 595.15 625.6 592.55 626.5 588.95 625.2 584.9 623.4 582.9 622.5 575.5 619.15 562.7 619.55 552.6 619.85 532.6 622.55 523 623.85 518.3 624.75 510.4 626.15 504.35 628.15 497.45 623.7 489.95 620.65 489.9 619.55 488.3 618.15 486.6 616.6 486.4 615.65 486.1 614.35 487.15 612.7 488.6 610.95 489 610 489.75 608.4 489.5 605.65 489.05 602.05 489.2 601.05 489.5 599.3 489.5 598.5 489.5 597 488.75 596.25 488 595.55 486.1 595.55
L 475.55 595.3
M 506.5 557.95
L 506.5 545.8 495.75 545.4 495.75 546.25
Q 491.85 547.65 492.15 549.85 490.9 550.1 489.5 551.5 487.7 553.25 486.95 553.6 486.3 553.95 485.05 554.5 484.25 555.25 483.95 557.35 483.65 562.25 484.9 566.45
L 495.75 566.95 495.85 566.2
Q 499.05 563.2 502.75 561.45 502.85 560 503.95 559 505.1 557.95 506.5 557.95
M 513.9 493.5
Q 513.35 492.95 513.3 492.3
L 476.85 491.95
Q 466.9 491.85 462.75 492 454.85 492.15 448.7 493 442.9 493.7 433.65 495.9 420.85 498.85 408.65 502.6 396.55 506.3 388.9 509.7 385.8 511.05 381.65 513.15 378.35 512.95 375.1 512.95 374.9 515 374.85 516.75 373.2 517.55 371.55 518.45
L 371.55 528.7
Q 373.2 529.25 375.1 529.55 375.15 530.35 375.4 531.1
L 376.4 535.8
Q 376.55 536.95 376.45 539.05 376.45 541.3 376.55 542.3 376.75 544.45 378.1 548.5
L 381.95 559.8
Q 382.7 559.8 383.2 560.35 383.75 560.9 383.75 561.55
L 398.65 561.55
Q 399.4 553.25 398.95 545.4
L 397.2 544.45
Q 397.7 542.6 397 539.95 396.05 536.9 395.7 535.4 395.45 534.05 395.35 531.7 395.25 528.95 395.15 528.05 395.15 527.9 395.15 527.85 399.3 527.65 407.45 527.55 414.35 527.5 419.15 526.75 419.15 527 419.15 527.3
L 419.3 561.85 430.95 566.35
Q 432.1 566.8 431.8 567.4
L 455.2 567.8
Q 454.95 567.6 455.3 567.2 455.55 566.95 456 566.8
L 460.6 566.05
Q 460.85 564.65 462.3 563.75 463.55 563 465.25 562.95 466.3 562.85 468.35 562.85 470.1 562.8 471.25 562.3 472.75 560.6 474.85 560.6 475.4 559.45 476.95 558.5 478.85 557.5 479.75 556.95 481.5 555.85 484.5 552.4 487.3 549.05 489.4 548.05
L 489.4 541.8 491.25 540.85 491.25 538.2 493 537.15
Q 492.45 536.55 493 535.5 493.85 534.3 494.15 533.75 495.05 532.25 494.8 529.15
L 496.6 528.25 496.6 511.4
Q 505.85 509.9 515.05 506.95
L 515.05 494.05
Q 514.35 494 513.9 493.5
M 435.1 521.6
Q 435.95 521.3 437.2 520.95
L 435 522.45
Q 435.1 522 435.1 521.6
M 677.7 488.95
Q 659.55 488.05 648.2 489.9
L 648.2 488.65 638.25 488.2
Q 637.65 494.2 637.85 501.8 639.35 501.5 640.55 502.7 641.8 503.85 641.45 505.35
L 654.05 506.2
Q 653.85 506.75 654.5 507.1 655.05 507.45 655.8 507.35 659.55 507.15 663.1 508.65
L 679 511.3
Q 685.5 512.35 687 512.45 689.8 512.7 695.4 512.8
L 720.6 513.4
Q 720.4 513.85 720.8 514.15 721.3 514.45 721.85 514.5 736.25 516.15 750.75 516.15
L 750.75 503.1 748.95 502.2 748.95 499.5
Q 744.05 499.15 736.95 497.15 725.75 494 725.1 493.85 720.95 492.95 713 491.85 695.9 489.75 677.7 488.95
M 846.15 179.1
Q 847.4 173.5 846.8 168.95 845.95 162.95 841.6 156.9 838.4 152.55 832.35 147 810.75 127.2 785.5 112.35 760.2 97.5 732.5 88.35 708.75 80.55 679.85 75.8 657.05 72.05 626 69.6 580.75 66.05 550.35 68.05 528.15 69.55 502.95 74.15 482.25 77.95 456.3 84.65 436.05 89.8 421.9 94.5 403.4 100.6 388.7 107.8 377.35 113.45 358.4 125
L 225.7 205.45
Q 220.7 208.5 218.3 210.4 214.35 213.5 212.4 216.9 210.5 220.1 209.65 224.55 209.1 227.65 208.85 232.8 207.75 255.65 210.75 284.35 212.4 300.25 217.7 335.8 222.6 369.05 224.2 387.2 226.75 415.7 225.05 438.75
L 226.25 438.65
Q 225.1 440.75 223.95 442.85 219 443.65 213.7 443.3 212.25 449.3 212.85 455.65 213.45 461.95 216.05 467.6
L 219.25 468.55 222.1 537.45
Q 222.4 546.95 221.85 551.1 221.35 554.35 219.95 560.8 219.05 566.55 220.25 570.4 221.55 574.3 225.3 577.8 227.7 580.05 232.7 583.4 244.15 591 250.2 594.2 256.3 597.45 264.4 600.6 269.5 602.55 279.15 605.9 287.2 608.7 291.8 609.65 299 611.05 304.75 609.9 319.9 584.75 339.95 563.35 346.4 559.6 344.35 545.95
L 339.55 544.75
Q 333.4 534.35 331.8 518.4 331.5 515.65 330.75 490.1 330 464.4 324.25 439.5 316.2 440.25 307.45 435.3 304.2 433.45 300.1 430.25 316.65 359.2 311.4 286.15 311 281.05 311.2 278.35 311.45 274 313.15 270.95 314.5 268.35 317.3 266.05 319.15 264.5 322.6 262.3 355.95 240.55 373.9 229.85 402.8 212.65 427.55 201.7 470.3 182.7 517.1 174.5 531.9 171.95 544.15 171.2 558.7 170.3 571.35 171.85 578.85 172.8 588.95 175.15 594.75 176.5 606.35 179.4 631.25 185.4 682 194.8 726.05 204.55 753.5 220.2 758.2 222.85 767.4 228.45 775.55 233.25 781.65 235.7 795.8 241.3 807.1 238.85 807.1 239.25 807.05 239.75
L 824.85 238.7 831.7 220.1
Q 834.1 216.2 835.45 212.2 836.55 208.95 836.9 205.85
L 843 189
Q 845.3 182.7 846.15 179.1
M 262.35 474
Q 268.95 474.25 272 474.45 274.6 480.1 270.3 489.35 267.55 495.55 267.2 496.5 265.65 500.7 265.85 504.05
L 280.65 505.4
Q 282.9 523.4 279 541.1 278.5 543.4 277.95 544.55 277.1 546.45 275.85 547.4 273.85 548.9 269.8 548.65 264.6 548.25 263.2 548.6 262.15 533.8 267.4 520.1 263 523.3 257.45 524.35 251.95 525.45 246.65 524.15 245.35 519.55 246.45 513.7 247.15 509.9 249.45 503.3
L 253.4 492.4
Q 255.7 485.95 257.15 482.8 259.5 477.6 262.35 474 Z"/>

<path fill="#FFFFFF" stroke="none" d="
M 272 474.45
Q 268.95 474.25 262.35 474 259.5 477.6 257.15 482.8 255.7 485.95 253.4 492.4
L 249.45 503.3
Q 247.15 509.9 246.45 513.7 245.35 519.55 246.65 524.15 251.95 525.45 257.45 524.35 263 523.3 267.4 520.1 262.15 533.8 263.2 548.6 264.6 548.25 269.8 548.65 273.85 548.9 275.85 547.4 277.1 546.45 277.95 544.55 278.5 543.4 279 541.1 282.9 523.4 280.65 505.4
L 265.85 504.05
Q 265.65 500.7 267.2 496.5 267.55 495.55 270.3 489.35 274.6 480.1 272 474.45 Z"/>
</g>

<g id="mug_0_Layer1_0_FILL">
<path fill="url(#Gradient_1)" stroke="none" d="
M 63.15 -282
Q 61.5 -281.5 45.2 -276.2 22.75 -268.95 9.05 -270.75 2.7 -271.6 -11.7 -276.7 -24.85 -281.35 -32.55 -281.65 -44 -282.15 -54.15 -275.8 -64.4 -269.4 -68.5 -258.95 -70.35 -254.1 -71.05 -247.9 -71.55 -243.4 -71.5 -236.5 -71.4 -228.6 -70.55 -223.4 -69.35 -216.35 -66.45 -211.25 -63.85 -206.7 -59.2 -202.6 -55.6 -199.4 -50 -195.85 -33.55 -185.55 -3.15 -175 13.15 -169.45 21.3 -166.55 35.2 -161.5 45.15 -156.8 53.9 -152.65 58.95 -147.4 65.3 -140.75 64.5 -133.4 63.8 -126.7 56.6 -120.55 47.55 -113.95 43.45 -110.5 35.5 -103.8 29.9 -92.45 25.8 -84.1 22 -70.75 20.1 -63.95 19.45 -59.65 18.55 -53.45 19.55 -48.45 20.75 -42.6 25.45 -35.25 31.1 -27.15 33.55 -22.95 38.55 -14.4 41.7 -2.4 43.6 4.85 46.05 19.5
L 54.15 19.85
Q 54.26484375 17.6978515625 54.25 15.55 56.4830078125 15.544140625 58.05 14.05 58.9 11.3 57.7 7.2 56 2.6 55.5 0.25 54.65 -3.75 55.65 -8.85 56.3 -12 58.35 -17.8 61.45 -26.4 63.05 -30.25 65.9 -37.1 69 -42.1 75.95 -53.35 92.2 -67.05 96.6 -70.75 105.55 -78.15 113.2 -84.65 118.15 -89.95 126.4 -98.75 131.7 -108.75 137.35 -119.5 139.1 -130.55 140.95 -142.3 138.15 -153.6 135.2 -165.45 127.8 -174.05 122.55 -180.15 113 -186.45 107.6 -190.05 96.45 -196.95 75.75 -210.9 74.1 -227.3 73.4 -235 76.95 -242.75 80.3 -249.95 86.55 -255.55 92 -260.5 99.8 -264.3 105.95 -267.35 114.7 -270.2
L 114.75 -279.75
Q 113.5638671875 -280.0939453125 112.3 -280.3 105.6462890625 -283.2279296875 98.4 -284.6 89.95 -286.2 81.45 -285.55 73.45 -284.95 63.15 -282 Z"/>
</g>

<g id="mug_0_Layer0_0_FILL">
<path fill="#000000" stroke="none" d="
M 88.95 26.45
Q 88.95 22 88.55 19.75
L 87.8 16.45
Q 87.25 13.45 87.65 7.9 88 2.05 85.25 0.75 84.5 0.4 82.8 0.3 59.5 -0.85 37 2.2 26.65 3.55 23.25 3.75 22.9 3.75 15.1 4 10.2 4.15 7.05 4.75 2.4 5.65 0.9 8.1 0.2 9.25 0.05 10.9 -0.05 11.95 0.05 13.95
L 0.4 19.95
Q 0.65 22.4 1.9 22.45
L 1.95 27 4.35 29.1 5.65 34.45
Q 6.65 38.75 6.85 40.4 7.2 43.1 7.1 48.55
L 6.85 62.9
Q 6.7 70.55 7.25 74.65 8.15 81.15 11.1 85.45 13.15 88.55 15.8 89.75 17.4 90.5 19.6 90.8 21 90.95 23.55 90.95
L 47.55 91.15
Q 53.55 91.25 57.05 90.8 58.7 90.6 65.45 89.15 72.9 87.5 80.6 86.9 82.3 86.75 83.05 86.55 84.4 86.2 85.15 85.4 85.9 84.6 86.5 82.6 88.1 77.05 88.5 74.05 88.9 71.15 88.9 65.35
L 88.95 26.45
M 71.55 10.75
Q 74.25 10.55 75.15 11.65 75.8 12.4 75.7 14.3
L 75.55 20.25
Q 75.45 23.1 76 24.5 76.25 25.15 76.8 26.35 77 27 77.25 28.35 77.45 28.95 78 30.05 78.4 31.05 78.4 33.65 78.3 37.85 78.1 39.3 77.9 40.85 77.3 43.95 76.8 47.3 76.9 53.15 76.9 57.05 77.5 58.9 77.65 59.4 78 60.3 78.3 61.1 78.35 61.7 78.45 62.9 77.45 65.6 76.55 68.05 77 69.4
L 75.55 70.1
Q 76.25 71.1 75.85 72.45 75.45 73.65 74.4 74.45 73 75.45 69.7 75.75
L 58.5 76.9
Q 43.5 81.25 28.1 80.1 26.3 79.15 25.45 78.6 23.3 77.25 21.85 75.1 20.4 72.9 20 70.4
L 18.75 69.7 18.75 65.1 17.5 64.45 17 23.1
Q 16 21.75 14.5 21.1 14.6 20 14.1 19 13.55 18 12.6 17.5 13.5 16.45 15.45 16.25 16.55 16.1 18.85 16 19.55 15.95 22 15.35 24.2 14.85 28.7 14.45
L 71.55 10.75 Z"/>

<path fill="#FFFFFF" stroke="none" d="
M 75.15 11.65
Q 74.25 10.55 71.55 10.75
L 28.7 14.45
Q 24.2 14.85 22 15.35 19.55 15.95 18.85 16 16.55 16.1 15.45 16.25 13.5 16.45 12.6 17.5 13.55 18 14.1 19 14.6 20 14.5 21.1 16 21.75 17 23.1
L 17.5 64.45 18.75 65.1 18.75 69.7 20 70.4
Q 20.4 72.9 21.85 75.1 23.3 77.25 25.45 78.6 26.3 79.15 28.1 80.1 43.5 81.25 58.5 76.9
L 69.7 75.75
Q 73 75.45 74.4 74.45 75.45 73.65 75.85 72.45 76.25 71.1 75.55 70.1
L 77 69.4
Q 76.55 68.05 77.45 65.6 78.45 62.9 78.35 61.7 78.3 61.1 78 60.3 77.65 59.4 77.5 58.9 76.9 57.05 76.9 53.15 76.8 47.3 77.3 43.95 77.9 40.85 78.1 39.3 78.3 37.85 78.4 33.65 78.4 31.05 78 30.05 77.45 28.95 77.25 28.35 77 27 76.8 26.35 76.25 25.15 76 24.5 75.45 23.1 75.55 20.25
L 75.7 14.3
Q 75.8 12.4 75.15 11.65 Z"/>
</g>
</defs>

<g transform="matrix( 1, 0, 0, 1, 0,0) ">
<use xlink:href="#Layer14_0_FILL"/>
</g>

<g transform="matrix( 1, 0, 0, 1, 0,0) ">
<use xlink:href="#Layer13_0_FILL"/>
</g>

<g transform="matrix( 1, 0, 0, 1, 0,0) ">
<use xlink:href="#Layer12_0_FILL"/>
</g>

<g transform="matrix( 1, 0, 0, 1, 0,0) ">
<use xlink:href="#Layer11_0_FILL"/>
</g>

<g transform="matrix( 1, 0, 0, 1, 0,0) ">
<use xlink:href="#Layer10_0_FILL"/>
</g>

<g transform="matrix( 1.3599700927734375, 0, 0, 1.3599700927734375, 498.8,785.9) ">
<g transform="matrix( 1, 0, 0, 1, 0,0) ">
<use xlink:href="#mug_0_Layer1_0_FILL"/>
</g>

<g transform="matrix( 1, 0, 0, 1, 0,0) ">
<use xlink:href="#mug_0_Layer0_0_FILL"/>
</g>
</g>
</svg>
