<?xml version="1.0" encoding="UTF-8"?>
<svg id="Layer_2" data-name="Layer 2" xmlns="http://www.w3.org/2000/svg" xmlns:xlink="http://www.w3.org/1999/xlink" viewBox="0 0 1533.05 594.79">
  <defs>
    <style>
      .cls-1 {
        fill: #fff;
      }

      .cls-2 {
        mask: url(#mask);
      }

      .cls-3 {
        fill: none;
        stroke: #fff;
        stroke-linecap: round;
        stroke-linejoin: round;
        stroke-width: 8px;
      }

      .cls-4 {
        fill: #d78cff;
      }

      .cls-5 {
        fill: url(#linear-gradient);
      }
    </style>
    <mask id="mask" x="33.05" y="91.79" width="1500" height="503" maskUnits="userSpaceOnUse">
      <g>
        <path class="cls-1" d="M351.79,209.18c8.33-21.7,3.42-26.64-15.42-26.64l7.74-20.17h88.15l-7.74,20.17c-18.83,0-27.54,4.95-35.87,26.64l-83.87,218.48h-52.09l-43.2-140.07c-7.84-25.5-11.32-45.68-12.8-53.29h-1.2c-2.27,7.99-9.94,34.26-17.25,53.29l-36.23,94.39c-8.33,21.69-3.42,26.64,15.42,26.64l-7.3,19.03H61.16l7.3-19.03c18.83,0,27.55-4.95,35.87-26.64l66.33-172.8c8.33-21.7,3.42-26.64-15.42-26.64l7.74-20.17h104.18l34.49,112.67c5.66,18.65,7.46,36.92,8.18,47.58h1.6c2.12-7.61,8.63-30.83,15.06-47.58l25.28-65.85Z"/>
        <path class="cls-1" d="M391.11,311.28c11.39,0,16.66-2.99,21.69-16.11l40.11-104.5c5.04-13.12,2.07-16.11-9.32-16.11l4.68-12.2h124.55l-12.73,40.74h-21.32c1.38-17.49,1.06-22.33-17.36-22.33h-20.35l-20.32,52.94h11.63c15.02,0,19.9-3.22,25.9-16.34h18.66l-19.26,50.18h-18.66c3.8-12.43,1.91-16.34-13.11-16.34h-11.87l-20.94,54.55h25.44c15.02,0,23.6-5.29,33.75-26.7h21.57l-16.79,43.73h-130.36l4.42-11.51Z"/>
        <path class="cls-1" d="M668.86,235.33l18.22,62.38c2.77,9.21,4.28,12.2,12.56,13.35l-4.51,11.74h-79.72l4.51-11.74c8.24,0,13.92-3.45,15.51-7.59.62-1.61.66-2.99.16-4.83l-9.74-37.75h-1.45l-39.14,38.21c-1.5,1.38-2.6,2.99-3.13,4.37-1.59,4.14,1.53,7.37,9.2,7.59l-4.51,11.74h-54.76l4.51-11.74c9.65-1.15,15.56-3.91,25.48-13.35l57.02-53.86-15.91-56.39c-2.68-9.44-3.31-12.2-10.63-13.35l4.51-11.74h76.57l-4.51,11.74c-8.24,0-13.84,3.22-15.52,7.6-.53,1.38-.75,3.22-.4,4.83l8.36,33.15h1.45l34.6-32.68c2.01-2.07,3.44-3.91,4.06-5.52,1.68-4.37-1.78-7.37-9.29-7.37l4.51-11.74h54.28l-4.51,11.74c-9.65,1.15-13.79,4.37-23.78,13.35l-54,47.88Z"/>
        <path class="cls-1" d="M772.25,190.67c5.04-13.12,2.07-16.11-9.32-16.11l4.68-12.2h75.36l-4.68,12.2c-11.39,0-16.66,2.99-21.69,16.11l-40.11,104.5c-5.04,13.12-2.07,16.11,9.32,16.11l-4.42,11.51h-75.36l4.42-11.51c11.39,0,16.66-2.99,21.69-16.11l40.11-104.5Z"/>
        <g>
          <path class="cls-1" d="M469.37,436.34h-30.36c.13-5.57.13-11.39.13-19.74v-43.9c0-11.89,0-19.36-.13-26.19h69.96c35.55,0,45.17,8.48,45.17,34.16v.38c0,25.56-9.62,34.41-45.17,34.41h-39.73v1.77c0,7.97,0,13.54.13,19.1ZM469.24,371.31v19.23h39.22c11.39,0,15.05-2.78,15.05-9.61v-.25c0-6.83-3.67-9.36-15.05-9.36h-39.22Z"/>
          <path class="cls-1" d="M561.71,393.45v-4.05c0-33.78,11.26-44.66,60.09-44.66s60.09,10.88,60.09,44.66v4.05c0,33.65-11.13,44.66-60.09,44.66s-60.09-11.01-60.09-44.66ZM650.9,391.68v-.51c0-16.57-3.04-20.12-29.1-20.12s-29.1,3.54-29.1,20.12v.51c0,16.57,3.16,20.24,29.1,20.24s29.1-3.67,29.1-20.24Z"/>
          <path class="cls-1" d="M693.4,361.7c0-6.07,0-10.75-.13-15.18h71.23c32.26,0,45.17,7.59,45.17,31.88v.38c0,15.43-5.19,24.16-19.1,28.59,2.4,3.04,4.55,6.2,6.83,9.36,4.43,6.58,9.11,13.28,13.66,19.61h-34.16c-2.78-4.3-6.45-9.62-10.5-15.18l-4.93-6.83h-37.95v1.77c0,8.35,0,14.68.13,20.24h-30.36c.13-5.44.13-11.77.13-20.24v-54.4ZM723.51,371.31v18.72h39.22c12.65,0,16.32-3.04,16.32-9.49v-.25c0-6.45-3.67-8.98-16.32-8.98h-39.22Z"/>
          <path class="cls-1" d="M854.82,373.21h-8.6c-5.06,0-25.56,0-33.15.13v-26.82h113.61v26.82c-7.59-.13-16.7-.13-21.76-.13h-19.99v42.89c0,8.35,0,14.55.13,20.24h-30.36c.13-5.57.13-11.77.13-20.24v-42.89Z"/>
          <path class="cls-1" d="M934.38,361.7c0-6.07,0-10.75-.13-15.18h99.44v25.3c-21.51-.13-31.5-.13-49.21-.13h-19.99v14.04h63.89v24.17c-16.45-.13-31.25-.13-45.17-.13h-18.72v6.32c0,8.35,0,14.55.13,20.24h-30.36c.13-5.57.13-11.77.13-20.24v-54.4Z"/>
          <path class="cls-1" d="M1038.75,393.45v-4.05c0-33.78,11.26-44.66,60.09-44.66s60.09,10.88,60.09,44.66v4.05c0,33.65-11.13,44.66-60.09,44.66s-60.09-11.01-60.09-44.66ZM1127.94,391.68v-.51c0-16.57-3.04-20.12-29.1-20.12s-29.1,3.54-29.1,20.12v.51c0,16.57,3.16,20.24,29.1,20.24s29.1-3.67,29.1-20.24Z"/>
          <path class="cls-1" d="M1170.31,436.34c.13-5.57.13-11.51.13-19.86v-54.65c0-6.2,0-10.75-.13-15.31h30.36c-.13,4.55-.13,9.11-.13,15.18v47.95h22.52c16.32,0,35.68,0,45.8-.13v26.82h-98.55Z"/>
          <path class="cls-1" d="M1280.24,361.7c0-6.07,0-10.63-.13-15.18h30.36c-.13,4.68-.13,8.86-.13,15.18v54.4c0,8.35,0,14.55.13,20.24h-30.36c.13-5.57.13-11.77.13-20.24v-54.4Z"/>
          <path class="cls-1" d="M1321.86,393.45v-4.05c0-33.78,11.26-44.66,60.09-44.66s60.09,10.88,60.09,44.66v4.05c0,33.65-11.13,44.66-60.09,44.66s-60.09-11.01-60.09-44.66ZM1411.05,391.68v-.51c0-16.57-3.04-20.12-29.1-20.12s-29.1,3.54-29.1,20.12v.51c0,16.57,3.16,20.24,29.1,20.24s29.1-3.67,29.1-20.24Z"/>
        </g>
      </g>
    </mask>
    <linearGradient id="linear-gradient" x1="755.51" y1="28.58" x2="810.58" y2="658" gradientUnits="userSpaceOnUse">
      <stop offset=".01" stop-color="#b370e5"/>
      <stop offset=".5" stop-color="#fcc6ff"/>
      <stop offset="1" stop-color="#ff94ea"/>
    </linearGradient>
  </defs>
  <g id="Layer_1-2" data-name="Layer 1">
    <g>
      <g>
        <path class="cls-1" d="M252.7,430.16c-1.1,0-2.07-.71-2.39-1.76l-43.21-140.07c-5.95-19.37-9.42-35.77-11.39-45.84-3.19,10.8-9.27,30.71-15.14,46l-36.23,94.39c-3.89,10.13-4.72,16.28-2.62,19.34,1.86,2.7,6.7,3.91,15.71,3.91.82,0,1.59.41,2.06,1.08.47.68.57,1.54.27,2.31l-7.3,19.03c-.37.97-1.3,1.6-2.33,1.6H61.16c-.82,0-1.59-.41-2.06-1.08-.47-.68-.57-1.54-.27-2.31l7.31-19.03c.37-.97,1.3-1.6,2.33-1.6,16.87,0,25.26-3.48,33.54-25.04l66.33-172.8c3.89-10.14,4.72-16.28,2.62-19.34-1.86-2.7-6.7-3.91-15.71-3.91-.82,0-1.59-.41-2.06-1.08-.47-.68-.57-1.54-.27-2.31l7.74-20.17c.37-.97,1.3-1.6,2.33-1.6h104.18c1.1,0,2.07.72,2.39,1.77l34.49,112.67c3.54,11.64,6.05,24.65,7.49,38.78,4.65-16.14,8.89-29.22,12.63-38.95l25.28-65.85c3.89-10.14,4.72-16.28,2.62-19.34-1.86-2.7-6.7-3.91-15.71-3.91-.82,0-1.59-.41-2.06-1.08-.47-.68-.57-1.54-.27-2.31l7.74-20.17c.37-.97,1.3-1.6,2.33-1.6h88.15c.82,0,1.59.41,2.06,1.08.47.68.57,1.54.27,2.31l-7.74,20.17c-.37.97-1.3,1.6-2.33,1.6-16.87,0-25.26,3.48-33.54,25.04l-83.87,218.48c-.37.97-1.3,1.6-2.33,1.6h-52.09Z"/>
        <path class="cls-1" d="M432.27,162.36l-7.74,20.17c-18.83,0-27.54,4.95-35.87,26.64l-83.87,218.48h-52.09l-43.2-140.07c-7.84-25.5-11.32-45.68-12.8-53.29h-1.2c-2.27,7.99-9.94,34.26-17.25,53.29l-36.23,94.39c-8.33,21.69-3.42,26.64,15.42,26.64l-7.3,19.03H61.16l7.31-19.03c18.83,0,27.55-4.95,35.87-26.64l66.33-172.8c8.33-21.7,3.42-26.64-15.42-26.64l7.74-20.17h104.18l34.49,112.67c5.66,18.65,7.46,36.92,8.18,47.58h1.6c2.12-7.61,8.63-30.83,15.06-47.58l25.28-65.85c8.33-21.7,3.42-26.64-15.42-26.64l7.74-20.17h88.15M432.27,157.36h-88.15c-2.07,0-3.93,1.28-4.67,3.21l-7.74,20.17c-.59,1.54-.39,3.27.55,4.62.93,1.36,2.47,2.17,4.12,2.17,7.77,0,12.36.95,13.65,2.83,1.07,1.55,1.43,5.76-2.9,17.03l-25.28,65.85c-2.83,7.38-5.95,16.65-9.31,27.71-1.48-9.77-3.52-18.92-6.08-27.37l-34.49-112.68c-.64-2.1-2.58-3.54-4.78-3.54h-104.18c-2.07,0-3.93,1.28-4.67,3.21l-7.74,20.17c-.59,1.54-.39,3.27.55,4.62.93,1.36,2.47,2.17,4.12,2.17,7.77,0,12.36.95,13.65,2.83,1.07,1.55,1.43,5.76-2.9,17.03l-66.33,172.8c-7.7,20.05-14.54,23.44-31.2,23.44-2.07,0-3.93,1.28-4.67,3.21l-7.3,19.03c-.59,1.54-.39,3.27.55,4.62.93,1.36,2.47,2.17,4.12,2.17h88.96c2.07,0,3.93-1.28,4.67-3.21l7.3-19.03c.59-1.54.39-3.27-.55-4.62-.93-1.36-2.47-2.17-4.12-2.17-7.77,0-12.36-.95-13.64-2.83-1.07-1.55-1.43-5.76,2.9-17.03l36.23-94.39c4.44-11.57,9-25.75,12.35-36.69,2.09,9.69,5.12,22.24,9.46,36.36l43.21,140.07c.65,2.1,2.58,3.53,4.78,3.53h52.09c2.07,0,3.93-1.28,4.67-3.21l83.87-218.48c7.7-20.05,14.54-23.44,31.21-23.44,2.07,0,3.93-1.28,4.67-3.21l7.74-20.17c.59-1.54.39-3.27-.55-4.62s-2.47-2.17-4.12-2.17h0ZM432.27,167.36h0,0Z"/>
      </g>
      <g>
        <path class="cls-1" d="M386.69,325.29c-.82,0-1.59-.41-2.06-1.08-.47-.68-.57-1.54-.27-2.31l4.42-11.51c.37-.97,1.3-1.6,2.33-1.6,10.18,0,14.63-2.19,19.36-14.51l40.11-104.5c2.17-5.64,2.73-9.27,1.69-10.78-.9-1.3-3.74-1.94-8.68-1.94-.82,0-1.59-.41-2.06-1.08-.47-.68-.57-1.54-.27-2.31l4.68-12.2c.37-.97,1.3-1.6,2.33-1.6h124.55c.8,0,1.54.38,2.01,1.02.47.64.61,1.47.37,2.23l-12.73,40.74c-.33,1.04-1.29,1.75-2.39,1.75h-21.32c-.7,0-1.36-.29-1.84-.8-.47-.51-.71-1.2-.66-1.89.7-8.79.95-14.31-1.35-16.8-1.83-1.98-5.87-2.83-13.51-2.83h-18.64l-18.4,47.94h7.99c13.99,0,17.96-2.5,23.63-14.88.41-.89,1.29-1.46,2.27-1.46h18.66c.82,0,1.59.41,2.06,1.08.47.68.57,1.54.27,2.31l-19.26,50.18c-.37.97-1.3,1.6-2.33,1.6h-18.66c-.79,0-1.54-.38-2.01-1.01-.47-.64-.61-1.46-.38-2.22,1.77-5.78,2.04-9.05.89-10.61-1.26-1.71-4.95-2.5-11.61-2.5h-10.15l-19.02,49.55h21.8c13.21,0,21.3-3.78,31.49-25.27.41-.87,1.29-1.43,2.26-1.43h21.57c.82,0,1.59.41,2.06,1.08.47.68.57,1.54.27,2.31l-16.79,43.73c-.37.97-1.3,1.6-2.33,1.6h-130.36Z"/>
        <path class="cls-1" d="M572.82,162.36l-12.73,40.74h-21.32c1.38-17.49,1.06-22.33-17.36-22.33h-20.35l-20.32,52.94h11.63c15.02,0,19.9-3.22,25.9-16.34h18.66l-19.26,50.18h-18.66c3.8-12.43,1.91-16.34-13.11-16.34h-11.87l-20.94,54.55h25.44c15.02,0,23.6-5.29,33.75-26.7h21.57l-16.79,43.73h-130.36l4.42-11.51c11.39,0,16.66-2.99,21.69-16.11l40.11-104.5c5.04-13.12,2.07-16.11-9.32-16.11l4.68-12.2h124.55M536.92,217.37h0M533.84,279.06h0M572.82,157.36h-124.55c-2.07,0-3.93,1.28-4.67,3.21l-4.68,12.2c-.59,1.54-.39,3.27.55,4.62.93,1.36,2.47,2.17,4.12,2.17,5.03,0,6.35.68,6.62.87.1.33.43,2.22-1.96,8.45l-40.11,104.5c-4.3,11.21-7.67,12.9-17.02,12.9-2.07,0-3.93,1.28-4.67,3.21l-4.42,11.51c-.59,1.54-.39,3.27.55,4.62.93,1.36,2.47,2.17,4.12,2.17h130.36c2.07,0,3.93-1.28,4.67-3.21l16.72-43.56c.26-.6.4-1.26.4-1.96,0-2.76-2.24-5-5-5h-21.57c-1.93,0-3.69,1.11-4.52,2.86-9.68,20.4-16.84,23.84-29.23,23.84h-18.17l17.1-44.55h8.44c8.26,0,9.49,1.33,9.6,1.49.15.21.81,1.59-1.27,8.39-.46,1.52-.18,3.16.76,4.44.94,1.27,2.43,2.03,4.02,2.03h18.66c2.07,0,3.93-1.28,4.67-3.21l19.2-50.01c.26-.6.4-1.26.4-1.96,0-2.76-2.24-5-5-5h-18.66c-1.96,0-3.73,1.14-4.55,2.92-5.23,11.42-8.42,13.42-21.35,13.42h-4.36l16.48-42.94h16.92c6.51,0,10.43.68,11.68,2.03,1.73,1.87,1.18,8.79.7,14.9-.11,1.39.37,2.76,1.31,3.79.95,1.02,2.28,1.61,3.67,1.61h21.32c2.19,0,4.12-1.42,4.77-3.51l12.73-40.74c.47-1.52.2-3.17-.74-4.45-.94-1.28-2.44-2.04-4.03-2.04h0ZM572.82,167.36h0,0Z"/>
      </g>
      <g>
        <path class="cls-1" d="M615.42,325.29c-.82,0-1.59-.41-2.06-1.08-.47-.68-.57-1.54-.27-2.31l4.51-11.74c.37-.97,1.3-1.6,2.33-1.6,7.48,0,12.07-3.11,13.18-5.99.43-1.11.45-1.94.08-3.28l-8.96-34.74-37.21,36.33c-1.19,1.1-2.12,2.38-2.54,3.48-.48,1.26-.1,1.84.03,2.03.31.47,1.73,2.01,6.91,2.17.81.02,1.56.44,2.01,1.11.45.67.54,1.52.25,2.28l-4.51,11.74c-.37.97-1.3,1.6-2.33,1.6h-54.76c-.82,0-1.59-.41-2.06-1.08-.47-.68-.57-1.54-.27-2.31l4.51-11.74c.33-.87,1.12-1.48,2.04-1.59,8.48-1.01,13.96-3.08,24.05-12.68l55.93-52.83-15.66-55.51c-2.58-9.11-3.05-10.14-8.45-10.99-.75-.12-1.4-.57-1.78-1.22s-.44-1.44-.17-2.15l4.51-11.74c.37-.97,1.3-1.6,2.33-1.6h76.57c.82,0,1.59.41,2.06,1.08.47.68.57,1.54.27,2.31l-4.51,11.74c-.37.97-1.3,1.6-2.33,1.6-6.61,0-11.78,2.35-13.18,5.99-.4,1.04-.52,2.38-.29,3.41l7.58,30.04,32.63-30.83c1.87-1.94,3.04-3.5,3.48-4.64.5-1.3.12-1.85,0-2.03-.64-.94-2.81-1.94-6.95-1.94-.82,0-1.59-.41-2.06-1.08-.47-.68-.57-1.54-.27-2.31l4.51-11.74c.37-.97,1.3-1.6,2.33-1.6h54.28c.82,0,1.59.41,2.06,1.08.47.68.57,1.54.27,2.31l-4.51,11.74c-.33.87-1.12,1.48-2.04,1.59-9.05,1.08-12.82,4.11-22.41,12.73l-52.82,46.84,17.78,60.85c2.69,8.96,3.71,10.63,10.51,11.57.76.1,1.42.55,1.81,1.21.39.66.45,1.45.18,2.17l-4.51,11.74c-.37.97-1.3,1.6-2.33,1.6h-79.72Z"/>
        <path class="cls-1" d="M751.14,162.36l-4.51,11.74c-9.65,1.15-13.79,4.37-23.78,13.35l-54,47.88,18.22,62.38c2.77,9.21,4.28,12.2,12.56,13.35l-4.51,11.74h-79.72l4.51-11.74c8.24,0,13.92-3.45,15.51-7.59.62-1.61.66-2.99.16-4.83l-9.74-37.75h-1.45l-39.14,38.21c-1.5,1.38-2.6,2.99-3.13,4.37-1.59,4.14,1.53,7.37,9.2,7.59l-4.51,11.74h-54.76l4.51-11.74c9.65-1.15,15.56-3.91,25.48-13.35l57.02-53.86-15.91-56.39c-2.68-9.44-3.31-12.2-10.63-13.35l4.51-11.74h76.57l-4.51,11.74c-8.24,0-13.84,3.22-15.52,7.6-.53,1.38-.75,3.22-.4,4.83l8.36,33.14h1.45l34.6-32.68c2.01-2.07,3.44-3.91,4.06-5.52,1.68-4.37-1.78-7.37-9.29-7.37l4.51-11.74h54.28M673.61,162.36h0M751.14,157.36h-54.28c-2.07,0-3.93,1.28-4.67,3.21l-4.51,11.74c-.59,1.54-.39,3.27.55,4.62s2.47,2.17,4.12,2.17c2.63,0,3.97.43,4.56.71-.22.47-.88,1.58-2.85,3.62l-29.49,27.86-6.53-25.88c-.1-.55-.02-1.36.2-1.92.84-2.18,4.52-4.39,10.85-4.39,2.07,0,3.93-1.28,4.67-3.21l4.44-11.57c.26-.6.4-1.26.4-1.96,0-2.76-2.24-5-5-5h-76.58c-2.07,0-3.93,1.28-4.67,3.21l-4.51,11.74c-.54,1.41-.42,2.99.34,4.29s2.06,2.2,3.55,2.44q4,.63,6.43,9.2l.16.58,15.09,53.47-54.82,51.78c-9.65,9.18-14.58,11.06-22.64,12.02-1.84.22-3.41,1.44-4.08,3.17l-4.51,11.74c-.59,1.54-.39,3.27.55,4.62.93,1.36,2.47,2.17,4.12,2.17h54.76c2.07,0,3.93-1.28,4.67-3.21l4.51-11.74c.58-1.51.39-3.21-.51-4.56-.9-1.35-2.39-2.18-4.01-2.23-2.79-.08-4.11-.61-4.64-.9.24-.57.85-1.5,1.81-2.39.04-.03.07-.07.11-.1l34.12-33.31,7.88,30.52s.01.05.02.07c.26.96.18,1.23,0,1.72-.65,1.7-4.17,4.39-10.85,4.39-2.07,0-3.93,1.28-4.67,3.21l-4.51,11.74c-.59,1.54-.39,3.27.55,4.62.93,1.36,2.47,2.17,4.12,2.17h79.72c2.07,0,3.93-1.28,4.67-3.21l4.51-11.74c.55-1.42.41-3.02-.36-4.33-.78-1.31-2.11-2.2-3.62-2.41-5.18-.72-5.84-1.09-8.46-9.84l-17.32-59.3,51.63-45.77c10-8.99,13.14-11.18,21.06-12.13,1.84-.22,3.41-1.44,4.08-3.17l4.51-11.74c.59-1.54.39-3.27-.55-4.62-.93-1.36-2.47-2.17-4.12-2.17h0ZM751.14,167.36h0,0Z"/>
      </g>
      <g>
        <path class="cls-1" d="M706.02,325.29c-.82,0-1.59-.41-2.06-1.08-.47-.68-.57-1.54-.27-2.31l4.42-11.51c.37-.97,1.3-1.6,2.33-1.6,10.18,0,14.63-2.19,19.36-14.51l40.11-104.5c2.17-5.64,2.73-9.27,1.69-10.78-.9-1.3-3.74-1.94-8.68-1.94-.82,0-1.59-.41-2.06-1.08-.47-.68-.57-1.54-.27-2.31l4.68-12.2c.37-.97,1.3-1.6,2.33-1.6h75.36c.82,0,1.59.41,2.06,1.08.47.68.57,1.54.27,2.31l-4.68,12.2c-.37.97-1.3,1.6-2.33,1.6-10.18,0-14.63,2.19-19.36,14.51l-40.11,104.5c-2.16,5.64-2.73,9.27-1.69,10.78.9,1.3,3.74,1.94,8.68,1.94.82,0,1.59.41,2.06,1.08.47.68.57,1.54.27,2.31l-4.42,11.51c-.37.97-1.3,1.6-2.33,1.6h-75.36Z"/>
        <path class="cls-1" d="M842.97,162.36l-4.68,12.2c-11.39,0-16.66,2.99-21.69,16.11l-40.11,104.5c-5.04,13.12-2.07,16.11,9.32,16.11l-4.42,11.51h-75.36l4.42-11.51c11.39,0,16.66-2.99,21.69-16.11l40.11-104.5c5.04-13.12,2.07-16.11-9.32-16.11l4.68-12.2h75.36M842.97,157.36h-75.36c-2.07,0-3.93,1.28-4.67,3.21l-4.68,12.2c-.59,1.54-.39,3.27.55,4.62.93,1.36,2.47,2.17,4.12,2.17,5.03,0,6.35.68,6.62.87.1.33.43,2.22-1.96,8.45l-40.11,104.5c-4.3,11.21-7.67,12.9-17.02,12.9-2.07,0-3.93,1.28-4.67,3.21l-4.42,11.51c-.59,1.54-.39,3.27.55,4.62.93,1.36,2.47,2.17,4.12,2.17h75.36c2.07,0,3.93-1.28,4.67-3.21l4.42-11.51c.59-1.54.39-3.27-.55-4.62-.93-1.36-2.47-2.17-4.12-2.17-5.03,0-6.35-.68-6.62-.87-.1-.33-.43-2.22,1.96-8.45l40.11-104.5c4.3-11.21,7.67-12.9,17.02-12.9,2.07,0,3.93-1.28,4.67-3.21l4.68-12.2c.59-1.54.39-3.27-.55-4.62-.93-1.36-2.47-2.17-4.12-2.17h0ZM842.97,167.36h0,0Z"/>
      </g>
      <g>
        <g>
          <path class="cls-1" d="M439,438.84c-.67,0-1.32-.27-1.79-.75-.47-.48-.73-1.13-.71-1.8.13-5.54.13-11.47.13-19.68v-43.9c0-12.06,0-19.33-.13-26.14-.01-.67.25-1.32.72-1.8.47-.48,1.11-.75,1.78-.75h69.96c36.08,0,47.67,8.91,47.67,36.66v.38c0,27.94-11.58,36.91-47.67,36.91h-37.23c0,7.47,0,12.95.13,18.32.02.67-.24,1.32-.71,1.8-.47.48-1.11.75-1.79.75h-30.36ZM508.46,388.04c11.65,0,12.55-2.95,12.55-7.11v-.25c0-4.15-.87-6.86-12.55-6.86h-36.72v14.23h36.72Z"/>
          <path class="cls-1" d="M508.96,346.51c35.55,0,45.17,8.48,45.17,34.16v.38c0,25.56-9.62,34.41-45.17,34.41h-39.73v1.77c0,7.97,0,13.54.13,19.1h-30.36c.13-5.57.13-11.39.13-19.74v-43.9c0-11.89,0-19.36-.13-26.19h69.96M469.24,390.54h39.22c11.39,0,15.05-2.78,15.05-9.61v-.25c0-6.83-3.67-9.36-15.05-9.36h-39.22v19.23M508.96,341.51h-69.96c-1.34,0-2.63.54-3.57,1.5s-1.46,2.25-1.43,3.6c.13,6.79.13,14.05.13,26.1v43.9c0,8.19,0,14.11-.13,19.62-.03,1.35.48,2.65,1.42,3.61s2.23,1.51,3.58,1.51h30.36c1.35,0,2.63-.54,3.58-1.51.94-.96,1.45-2.26,1.42-3.61-.11-4.72-.12-9.55-.13-15.76h34.72c19.63,0,31.29-2.6,39.01-8.7,9.88-7.81,11.15-20.51,11.15-30.71v-.38c0-29.28-12.66-39.16-50.17-39.16h0ZM474.24,376.31h34.22c5.79,0,8.15.73,9.12,1.34.35.22.94.6.94,3.02v.25c0,2.68,0,4.61-10.05,4.61h-34.22v-9.23h0Z"/>
        </g>
        <g>
          <path class="cls-1" d="M621.8,440.61c-48.55,0-62.59-10.58-62.59-47.16v-4.05c0-36.58,14.04-47.16,62.59-47.16s62.59,10.58,62.59,47.16v4.05c0,36.58-14.04,47.16-62.59,47.16ZM621.8,373.56c-25.62,0-26.6,3.36-26.6,17.62v.51c0,14.35.98,17.74,26.6,17.74s26.6-3.39,26.6-17.74v-.51c0-14.25-.98-17.62-26.6-17.62Z"/>
          <path class="cls-1" d="M621.8,344.74c48.96,0,60.09,10.88,60.09,44.66v4.05c0,33.65-11.13,44.66-60.09,44.66s-60.09-11.01-60.09-44.66v-4.05c0-33.78,11.26-44.66,60.09-44.66M621.8,411.92c26.06,0,29.1-3.67,29.1-20.24v-.51c0-16.57-3.04-20.12-29.1-20.12s-29.1,3.54-29.1,20.12v.51c0,16.57,3.16,20.24,29.1,20.24M621.8,339.74c-49.89,0-65.09,11.6-65.09,49.66v4.05c0,13.96,1.62,29.5,13.66,38.89,9.67,7.55,25.06,10.77,51.44,10.77,49.88,0,65.09-11.6,65.09-49.66v-4.05c0-14.01-1.62-29.59-13.61-38.94-9.64-7.51-25.03-10.72-51.48-10.72h0ZM621.8,406.92c-8.58,0-17.82-.35-21.3-2.92-2.07-1.53-2.8-4.76-2.8-12.32v-.51c0-7.53.73-10.74,2.78-12.24,3.45-2.53,12.71-2.87,21.32-2.87s17.92.34,21.36,2.87c2.02,1.49,2.74,4.69,2.74,12.25v.51c0,7.58-.72,10.81-2.76,12.32-3.45,2.57-12.72,2.92-21.34,2.92h0Z"/>
        </g>
        <g>
          <path class="cls-1" d="M776.9,438.84c-.85,0-1.64-.43-2.1-1.14-2.79-4.31-6.49-9.66-10.42-15.07l-4.19-5.8h-34.18c0,7.84,0,14.08.13,19.46.02.67-.24,1.32-.71,1.8-.47.48-1.11.75-1.79.75h-30.36c-.67,0-1.32-.27-1.79-.75-.47-.48-.73-1.13-.71-1.81.13-5.41.13-11.61.13-20.18v-54.4c0-5.99,0-10.72-.13-15.11-.02-.68.24-1.33.71-1.81s1.12-.76,1.79-.76h71.23c29.43,0,47.67,5.75,47.67,34.38v.38c0,15.72-5.29,24.82-17.55,29.79,1.03,1.39,2.02,2.79,2.99,4.16.6.85,1.2,1.7,1.81,2.54,4.29,6.38,9,13.14,13.66,19.61.55.76.62,1.77.2,2.6s-1.29,1.36-2.23,1.36h-34.16ZM762.73,387.53c13.82,0,13.82-3.88,13.82-6.99v-.25c0-3.33,0-6.48-13.82-6.48h-36.72v13.72h36.72Z"/>
          <path class="cls-1" d="M764.5,346.51c32.26,0,45.17,7.59,45.17,31.88v.38c0,15.43-5.19,24.16-19.1,28.59,2.4,3.04,4.55,6.2,6.83,9.36,4.43,6.58,9.11,13.28,13.66,19.61h-34.16c-2.78-4.3-6.45-9.62-10.5-15.18l-4.93-6.83h-37.95v1.77c0,8.35,0,14.68.13,20.24h-30.36c.13-5.44.13-11.77.13-20.24v-54.4c0-6.07,0-10.75-.13-15.18h71.23M723.51,390.03h39.22c12.65,0,16.32-3.04,16.32-9.49v-.25c0-6.45-3.67-8.98-16.32-8.98h-39.22v18.72M764.5,341.51h-71.23c-1.35,0-2.64.55-3.59,1.52-.94.97-1.45,2.28-1.41,3.63.12,4.36.12,9.07.12,15.04v54.4c0,8.56,0,14.74-.13,20.13-.03,1.35.48,2.65,1.42,3.61.94.96,2.23,1.51,3.58,1.51h30.36c1.35,0,2.63-.54,3.58-1.51s1.45-2.26,1.42-3.61c-.11-4.76-.12-10.23-.13-16.9h30.4l3.44,4.76c3.92,5.39,7.59,10.7,10.36,14.97.92,1.42,2.5,2.28,4.2,2.28h34.16c1.88,0,3.59-1.05,4.45-2.72.86-1.67.7-3.68-.39-5.2-4.64-6.45-9.34-13.18-13.57-19.48-.03-.04-.06-.09-.09-.13-.61-.84-1.21-1.69-1.8-2.53-.4-.56-.8-1.13-1.21-1.7,11.17-5.62,16.23-15.37,16.23-30.8v-.38c0-30.61-20.05-36.88-50.17-36.88h0ZM728.51,376.31h34.22c6.59,0,9.3.76,10.41,1.4.47.27.91.52.91,2.58v.25c0,2.26-.59,2.63-1.07,2.93-1.14.71-3.84,1.56-10.25,1.56h-34.22v-8.72h0Z"/>
        </g>
        <g>
          <path class="cls-1" d="M854.69,438.84c-.67,0-1.32-.27-1.79-.75-.47-.48-.73-1.13-.71-1.8.13-5.54.13-11.68.13-20.19v-40.39h-6.1c-21.1,0-29.65.07-33.1.13-.01,0-.03,0-.04,0-.66,0-1.29-.26-1.75-.72-.48-.47-.75-1.11-.75-1.78v-26.82c0-1.38,1.12-2.5,2.5-2.5h113.61c1.38,0,2.5,1.12,2.5,2.5v26.82c0,.67-.27,1.31-.75,1.78-.47.46-1.1.72-1.75.72-.01,0-.03,0-.04,0-7.57-.13-16.77-.13-21.72-.13h-17.49v40.39c0,8.43,0,14.52.13,20.19.02.67-.24,1.32-.71,1.8-.47.48-1.11.75-1.79.75h-30.36Z"/>
          <path class="cls-1" d="M926.68,346.51v26.82c-7.59-.13-16.7-.13-21.76-.13h-19.99v42.89c0,8.35,0,14.55.13,20.24h-30.36c.13-5.57.13-11.77.13-20.24v-42.89h-8.6c-5.06,0-25.56,0-33.15.13v-26.82h113.61M926.68,341.51h-113.61c-2.76,0-5,2.24-5,5v26.82c0,1.34.54,2.62,1.49,3.57.94.92,2.2,1.43,3.51,1.43.03,0,.06,0,.08,0,3.44-.06,11.98-.13,33.06-.13h3.6v37.89c0,8.49,0,14.62-.13,20.13-.03,1.35.48,2.65,1.42,3.61.94.96,2.23,1.51,3.58,1.51h30.36c1.35,0,2.63-.54,3.57-1.5.94-.96,1.45-2.26,1.42-3.61-.13-5.64-.13-11.72-.13-20.13v-37.89h14.99c4.94,0,14.13,0,21.68.13.03,0,.06,0,.08,0,1.31,0,2.57-.51,3.51-1.43.96-.94,1.49-2.22,1.49-3.57v-26.82c0-2.76-2.24-5-5-5h0Z"/>
        </g>
        <g>
          <path class="cls-1" d="M934.26,438.84c-.67,0-1.32-.27-1.79-.75-.47-.48-.73-1.13-.71-1.8.13-5.54.13-11.68.13-20.19v-54.4c0-5.99,0-10.72-.13-15.11-.02-.68.24-1.33.71-1.81s1.12-.76,1.79-.76h99.44c1.38,0,2.5,1.12,2.5,2.5v25.3c0,.67-.27,1.3-.74,1.77-.47.47-1.1.73-1.76.73h-.01c-21.5-.13-31.34-.13-49.2-.13h-17.49v9.04h61.39c1.38,0,2.5,1.12,2.5,2.5v24.17c0,.67-.27,1.31-.74,1.77-.47.46-1.1.73-1.76.73h-.02c-16.44-.13-31.03-.13-45.15-.13h-16.22v3.82c0,8.43,0,14.52.13,20.19.02.67-.24,1.32-.71,1.8-.47.48-1.11.75-1.79.75h-30.36Z"/>
          <path class="cls-1" d="M1033.7,346.51v25.3c-21.51-.13-31.5-.13-49.21-.13h-19.99v14.04h63.89v24.17c-16.45-.13-31.25-.13-45.17-.13h-18.72v6.32c0,8.35,0,14.55.13,20.24h-30.36c.13-5.57.13-11.77.13-20.24v-54.4c0-6.07,0-10.75-.13-15.18h99.44M1033.7,341.51h-99.44c-1.35,0-2.64.55-3.59,1.52-.94.97-1.45,2.28-1.41,3.63.12,4.36.12,9.07.12,15.04v54.4c0,8.49,0,14.62-.13,20.13-.03,1.35.48,2.65,1.42,3.61.94.96,2.23,1.51,3.58,1.51h30.36c1.35,0,2.63-.54,3.57-1.5s1.45-2.26,1.42-3.61c-.13-5.64-.13-11.72-.13-20.13v-1.32h13.72c14.11,0,28.7,0,45.13.13.01,0,.03,0,.04,0,1.32,0,2.58-.52,3.52-1.45.95-.94,1.48-2.22,1.48-3.55v-24.17c0-2.76-2.24-5-5-5h-58.89v-4.04h14.99c17.86,0,27.69,0,49.18.13,0,0,.02,0,.03,0,1.32,0,2.59-.52,3.53-1.45.94-.94,1.47-2.21,1.47-3.55v-25.3c0-2.76-2.24-5-5-5h0Z"/>
        </g>
        <g>
          <path class="cls-1" d="M1098.84,440.61c-48.55,0-62.59-10.58-62.59-47.16v-4.05c0-36.58,14.04-47.16,62.59-47.16s62.59,10.58,62.59,47.16v4.05c0,36.58-14.04,47.16-62.59,47.16ZM1098.84,373.56c-25.62,0-26.6,3.36-26.6,17.62v.51c0,14.35.98,17.74,26.6,17.74s26.6-3.39,26.6-17.74v-.51c0-14.25-.98-17.62-26.6-17.62Z"/>
          <path class="cls-1" d="M1098.84,344.74c48.96,0,60.09,10.88,60.09,44.66v4.05c0,33.65-11.13,44.66-60.09,44.66s-60.09-11.01-60.09-44.66v-4.05c0-33.78,11.26-44.66,60.09-44.66M1098.84,411.92c26.06,0,29.1-3.67,29.1-20.24v-.51c0-16.57-3.04-20.12-29.1-20.12s-29.1,3.54-29.1,20.12v.51c0,16.57,3.16,20.24,29.1,20.24M1098.84,339.74c-49.89,0-65.09,11.6-65.09,49.66v4.05c0,13.96,1.62,29.5,13.66,38.89,9.67,7.55,25.06,10.77,51.44,10.77,49.88,0,65.09-11.6,65.09-49.66v-4.05c0-14.01-1.62-29.59-13.61-38.94-9.64-7.51-25.03-10.72-51.48-10.72h0ZM1098.84,406.92c-8.58,0-17.82-.35-21.3-2.92-2.07-1.53-2.8-4.76-2.8-12.32v-.51c0-7.53.73-10.74,2.78-12.24,3.45-2.53,12.71-2.87,21.32-2.87s17.92.34,21.36,2.87c2.02,1.49,2.74,4.69,2.74,12.25v.51c0,7.58-.72,10.81-2.76,12.32-3.45,2.57-12.72,2.92-21.34,2.92h0Z"/>
        </g>
        <g>
          <path class="cls-1" d="M1170.31,438.84c-.67,0-1.32-.27-1.79-.75-.47-.48-.73-1.13-.71-1.8.13-5.54.13-11.52.13-19.81v-54.65c0-6.22,0-10.72-.13-15.24-.02-.67.24-1.33.71-1.81.47-.48,1.12-.76,1.79-.76h30.36c.67,0,1.32.27,1.79.76.47.48.73,1.14.71,1.81-.13,4.52-.13,8.96-.13,15.11v45.45h20.02c16.71,0,35.66,0,45.77-.13h.03c.66,0,1.29.26,1.76.72.48.47.74,1.11.74,1.78v26.82c0,1.38-1.12,2.5-2.5,2.5h-98.55Z"/>
          <path class="cls-1" d="M1200.67,346.51h0M1200.67,346.51c-.13,4.55-.13,9.11-.13,15.18v47.95h22.52c16.32,0,35.68,0,45.8-.13v26.82h-98.55c.13-5.57.13-11.51.13-19.86v-54.65c0-6.2,0-10.75-.13-15.31h30.36M1200.68,341.51h-30.37c-1.35,0-2.64.55-3.58,1.51-.94.97-1.45,2.28-1.41,3.63.12,4.48.12,8.97.12,15.17v54.65c0,8.27,0,14.24-.13,19.75-.03,1.35.48,2.65,1.42,3.61.94.96,2.23,1.51,3.58,1.51h98.55c2.76,0,5-2.24,5-5v-26.82c0-1.34-.54-2.62-1.49-3.56-.94-.92-2.2-1.44-3.51-1.44-.02,0-.04,0-.06,0-10.09.13-29.85.13-45.73.13h-17.52v-42.95c0-6.06,0-10.45.12-14.88,0-.1,0-.2,0-.3,0-2.76-2.24-5-5-5h0ZM1200.67,351.51h0,0Z"/>
        </g>
        <g>
          <path class="cls-1" d="M1280.11,438.84c-.67,0-1.32-.27-1.79-.75-.47-.48-.73-1.13-.71-1.8.13-5.54.13-11.68.13-20.19v-54.4c0-6.15,0-10.59-.13-15.11-.02-.67.24-1.33.71-1.81.47-.48,1.12-.76,1.79-.76h30.36c.67,0,1.32.27,1.79.76s.73,1.14.71,1.81c-.12,4.65-.12,8.81-.12,15.11v54.4c0,8.43,0,14.52.12,20.19.02.67-.24,1.32-.71,1.8-.47.48-1.11.75-1.79.75h-30.36Z"/>
          <path class="cls-1" d="M1310.48,346.51c-.13,4.68-.13,8.86-.13,15.18v54.4c0,8.35,0,14.55.13,20.24h-30.36c.13-5.57.13-11.77.13-20.24v-54.4c0-6.07,0-10.63-.13-15.18h30.36M1310.48,341.51h-30.36c-1.35,0-2.64.55-3.58,1.51-.94.97-1.45,2.28-1.41,3.63.12,4.48.12,8.91.12,15.04v54.4c0,8.49,0,14.62-.13,20.13-.03,1.35.48,2.65,1.42,3.61.94.96,2.23,1.51,3.58,1.51h30.36c1.35,0,2.63-.54,3.57-1.5.94-.96,1.45-2.26,1.42-3.61-.12-5.64-.12-11.72-.12-20.13v-54.4c0-6.28,0-10.43.12-15.05.04-1.35-.47-2.65-1.42-3.62s-2.23-1.51-3.58-1.51h0ZM1310.48,351.51h0,0Z"/>
        </g>
        <g>
          <path class="cls-1" d="M1381.95,440.61c-48.55,0-62.59-10.58-62.59-47.16v-4.05c0-36.58,14.04-47.16,62.59-47.16s62.59,10.58,62.59,47.16v4.05c0,36.58-14.04,47.16-62.59,47.16ZM1381.95,373.56c-25.62,0-26.6,3.36-26.6,17.62v.51c0,14.35.98,17.74,26.6,17.74s26.6-3.39,26.6-17.74v-.51c0-14.25-.98-17.62-26.6-17.62Z"/>
          <path class="cls-1" d="M1381.95,344.74c48.96,0,60.09,10.88,60.09,44.66v4.05c0,33.65-11.13,44.66-60.09,44.66s-60.09-11.01-60.09-44.66v-4.05c0-33.78,11.26-44.66,60.09-44.66M1381.95,411.92c26.06,0,29.1-3.67,29.1-20.24v-.51c0-16.57-3.04-20.12-29.1-20.12s-29.1,3.54-29.1,20.12v.51c0,16.57,3.16,20.24,29.1,20.24M1381.95,339.74c-49.89,0-65.09,11.6-65.09,49.66v4.05c0,13.96,1.62,29.5,13.66,38.89,9.67,7.55,25.06,10.77,51.44,10.77,49.89,0,65.09-11.6,65.09-49.66v-4.05c0-14.01-1.62-29.59-13.61-38.94-9.64-7.51-25.03-10.72-51.48-10.72h0ZM1381.95,406.92c-8.58,0-17.82-.35-21.3-2.92-2.07-1.53-2.8-4.76-2.8-12.32v-.51c0-7.53.73-10.74,2.78-12.24,3.45-2.53,12.71-2.87,21.32-2.87s17.92.34,21.36,2.87c2.02,1.49,2.74,4.69,2.74,12.25v.51c0,7.58-.72,10.81-2.76,12.32-3.46,2.57-12.73,2.92-21.34,2.92h0Z"/>
        </g>
      </g>
    </g>
    <g class="cls-2">
      <rect class="cls-5" x="33.05" y="91.79" width="1500" height="503"/>
    </g>
    <path class="cls-4" d="M412.91,278.36l-1.58,7.88c-9.59,47.71,18.64,94.9,65.22,109.02h0s-22.24,1.46-22.24,1.46c-44.48,2.93-84.39,28.37-105.82,67.46l-14.27,26.03,1.58-7.88c9.59-47.71-18.64-94.9-65.22-109.02h0s22.24-1.46,22.24-1.46c44.48-2.93,84.39-28.37,105.82-67.46l14.27-26.03Z"/>
    <path class="cls-4" d="M946.84,0l17.93,41.57c21.89,50.75,73.38,82.2,128.52,78.5l45.17-3.03-41.57,17.93c-50.75,21.89-82.2,73.38-78.5,128.52l3.03,45.17-17.93-41.57c-21.89-50.75-73.38-82.2-128.52-78.5l-45.17,3.03,41.57-17.93c50.75-21.89,82.2-73.38,78.5-128.52l-3.03-45.17Z"/>
    <polygon class="cls-4" points="134.28 185.71 102.33 229 133.63 272.76 82.59 255.75 50.64 299.04 51.04 245.24 0 228.24 51.29 211.99 51.69 158.2 82.99 201.96 134.28 185.71"/>
    <polygon class="cls-4" points="1491.2 475.02 1447.56 482.15 1440.86 525.85 1420.59 486.55 1376.96 493.68 1408.07 462.26 1387.81 422.96 1427.3 442.85 1458.42 411.43 1451.71 455.14 1491.2 475.02"/>
    <path class="cls-3" d="M450.05,514.79s352-78,521-41"/>
    <path class="cls-3" d="M1372.74,465.79s-298.27,89.77-438.48,35.38"/>
  </g>
</svg>