<?xml version="1.0" encoding="UTF-8"?>
<svg id="Layer_2" xmlns="http://www.w3.org/2000/svg" viewBox="0 0 93.25 130.91">
  <defs>
    <style>
      .cls-1 {
        letter-spacing: -.11em;
      }

      .cls-2, .cls-3 {
        fill: #fff;
      }

      .cls-4 {
        letter-spacing: -.05em;
      }

      .cls-3 {
        font-family: NotoSansJP-SemiBold, 'Noto Sans JP';
        font-size: 14.22px;
        font-variation-settings: 'wght' 600;
        font-weight: 600;
      }

      .cls-5 {
        letter-spacing: -.14em;
      }
    </style>
  </defs>
  <g id="Graphics">
    <g>
      <g id="Layer12_0_FILL">
        <path class="cls-2" d="M90.38,7.8l-.07-.07c-.09-.08-.16-.12-.23-.11-.04,0-.08.04-.14.09l-.55.54s.06.07.05.14c0,.05-.03.11-.07.16-.18.28-.36.54-.53.81-.26-.07-.52-.14-.79-.2-.19-.04-.33-.04-.42-.01-.1.02-.23.11-.39.25-.24.21-.41.39-.52.55-.16.23-.24.45-.24.67,0,.14.04.3.12.46.06.12.14.26.26.42.09.12.18.24.28.37-.41.58-.82,1.13-1.22,1.64-.29.25-.56.53-.81.84-.1.13-.15.24-.15.33-.07.08-.13.16-.2.23l.56.56c.06.06.1.09.15.09.05,0,.11-.03.19-.1.93-.72,1.89-1.42,2.89-2.11.24.26.54.51.91.74.25.15.59.34,1.05.56.16.08.29.14.39.17.15.05.29.06.41.05.31-.02.61-.22.9-.6.05-.07.08-.13.08-.17,0-.08-.03-.16-.11-.25-.09-.11-.22-.24-.38-.38-.24-.22-.37-.34-.4-.36-.31-.31-.5-.62-.56-.91.47-.07.9-.22,1.32-.47.41-.24.77-.55,1.07-.91-.13-.18-.24-.31-.32-.39-.13-.14-.27-.23-.41-.28-.1-.04-.23-.06-.36-.06-.33,0-.58,0-.75,0-.29,0-.53-.05-.71-.14-.02-.23.01-.46.09-.69.08-.23.19-.43.35-.61.09-.1.13-.18.13-.24,0-.06-.05-.12-.12-.2l-.4-.39c-.09-.08-.16-.12-.22-.11-.03,0-.08.03-.13.08,0,0-.01.01-.01.02M84.16,79.26s-.12.1-.26.22c-.1.09-.19.16-.27.19-.05.02-.12.05-.22.08-.1.03-.18.06-.23.08-.04.02-.09.05-.14.09-.08.06-.13.09-.14.1-.04.03-.09.06-.17.1-.18-.2-.41-.43-.69-.69-.33-.31-.59-.55-.78-.7-.3-.24-.59-.43-.87-.56-.07-.03-.23-.1-.5-.2-.1-.04-.18-.05-.24-.02-.04.02-.09.07-.15.16-.03.04-.15.16-.35.35-.15.13-.23.26-.26.39-.02.09-.01.23.03.42.38,1.59,1.04,3.05,1.98,4.39.13.18.26.36.4.52.23.28.49.55.78.8l.53-.48c.06-.05.09-.1.09-.14,0-.03-.01-.07-.04-.12l-.38-.59s.03-.02.04-.03c.13-.12.23-.22.3-.31.05-.07.13-.17.23-.3.06-.08.22-.24.47-.49s.67-.74,1.26-1.44c.52-.62.95-1.09,1.3-1.4.06-.06.1-.1.12-.13.04-.05.05-.1.05-.16,0-.06-.05-.13-.13-.21l-.32-.33c-.08-.08-.15-.12-.21-.15-.1-.04-.21-.02-.34.05-.04.02-.09.06-.15.1-.07.06-.11.09-.14.11-.06.04-.16.1-.3.16-.13.07-.23.12-.29.17M80.46,79.94c-.05-.15-.07-.27-.04-.34.37.17.7.39,1,.67.13.11.23.23.28.35,0,.02.02.05.04.11.01.05.03.08.04.11.04.08.12.18.25.28l.31.31s.02.03.02.04c0,0,0,0,0,0l.09.09c.11-.07.24-.1.38-.11-.39.42-.65.71-.79.86-.12.15-.24.29-.35.42-.29-.5-.54-.96-.72-1.39-.15-.34-.32-.8-.52-1.4M8.32,85.53c.03-.12.04-.22.01-.28-.02-.07-.07-.14-.15-.22-.24-.25-.52-.48-.83-.7l-.57.54c-.07.07-.11.13-.1.18,0,.05.05.11.13.18.08.07.12.13.12.18l-.12.32c-.07.06-.12.12-.16.18-.07.12-.1.3-.09.56,0,.18.03.37.05.56-.12.41-.25.81-.38,1.22-.67.12-1.06.19-1.16.21-.49.07-.93.09-1.31.05-.18,0-.29-.06-.34-.16l-.25.25c-.08-.09-.17-.17-.25-.25-.01.01-.15.14-.41.38-.16.15-.27.29-.32.43-.1.29-.05.6.18.95.09.15.28.37.56.65.59.6,1.17,1.16,1.74,1.68-.03.08-.07.16-.1.24-.3.79-.52,1.48-.67,2.08-.03.12-.04.22-.04.28,0,.11,0,.2.04.28.04.09.14.2.28.31.16.12.26.22.29.31.03-.02.06-.04.09-.06.02.03.04.05.05.08.08-.06.17-.12.25-.19.06.04.11.06.16.07.08,0,.16,0,.26-.06.06-.03.13-.08.23-.16.49-.42.96-.84,1.42-1.25.21.16.42.32.63.48.26.19.47.34.65.45.25.15.49.26.72.34.27.09.51.11.71.05.1-.03.21-.09.32-.17.05-.04.12-.1.21-.18.13.13.25.2.35.22.16.02.33-.06.49-.25.08-.1.14-.18.19-.22.07-.09.14-.15.21-.19l-.56-.54c-.16-.16-.26-.26-.29-.29-.29-.31-.58-.72-.85-1.21-.12-.22-.24-.49-.36-.79,1.06-1.07,2.02-2.13,2.87-3.16l-.07-.08s.06-.08.06-.12c0-.06-.04-.14-.15-.22-.04-.03-.13-.12-.28-.27-.11-.11-.21-.19-.29-.25-.11-.06-.28-.11-.52-.14-.39-.05-.82-.06-1.29-.03-.32.02-.75.06-1.29.12-.1.01-.2.03-.3.04-.04-.19-.08-.36-.1-.53-.03-.14-.05-.27-.06-.4.15-.51.27-1,.37-1.48M7.16,89.46s-.04.04-.06.06c.01-.04.03-.08.04-.12,0,.02,0,.04.01.06M9.07,56.05s-.16.15-.38.32c0-.01-.01-.02-.02-.03-.26.24-.5.49-.71.74.08.06.13.14.16.26.01.08.02.19,0,.33-.12,2.55-.04,5.11.25,7.67.02.24.07.41.13.52.05.08.13.18.26.29.13.12.22.21.27.28.39-.22.81-.61,1.26-1.16.59-.73.97-1.17,1.14-1.33-.29,1.58-.51,3.15-.67,4.72-.04.31-.03.55,0,.72.04.16.11.3.21.44.1.13.22.24.37.31.03-.01.05-.03.08-.04,0,0,0,.02,0,.03.29-.16.53-.43.72-.8.13-.25.26-.6.39-1.05l1.35-4.72c.16-.56.29-.98.38-1.25.09-.26.16-.46.2-.59.07-.23.13-.42.18-.59.06-.24.12-.52.16-.83.02-.16.06-.45.1-.85l.09-.86c.02-.19.02-.33.02-.42,0-.16-.04-.3-.09-.41-.04-.09-.1-.18-.18-.26-.04-.04-.12-.12-.23-.23-.08-.07-.14-.1-.19-.11-.07,0-.16.04-.25.13-.51.48-1.15,1.22-1.91,2.21-.18.23-.35.45-.5.65l-.05.04c-.07.09-.13.1-.19.06-.05.07-.15.17-.28.3-.12.12-.22.23-.28.3-.06.08-.15.21-.25.4l-.22.4s-.06.06-.09.09l-.08-1.8c-.02-.47-.05-.83-.08-1.08-.05-.4-.14-.74-.26-1.04-.13-.32-.2-.5-.22-.56-.06-.22-.05-.4.01-.56l-.64-.67M5.18,19.37s.04-.08.06-.11l-.65-.63c-.06.07-.18.19-.36.34-.16.14-.28.26-.34.36-.04.07-.08.16-.12.27,0,0-.03.1-.08.28-.05.15-.12.33-.21.53-.27.61-.59,1.19-.97,1.73-.16.23-.29.38-.41.48-.15.12-.33.2-.53.24-.19.04-.38.03-.57-.02l-.57.54s-.07.08-.07.11c0,.04.02.08.06.13l-.45.45c.18.2.39.41.61.63.11-.03.25-.03.41,0,.09.01.23.04.41.08.09.01.21.02.37.02.17,0,.3.01.37.02.17.02.38.07.62.15.19.06.31.13.38.2.09.08.15.2.19.36.05.15.09.32.11.52,0,.08.02.14.03.18.02.04.07.1.16.18.15.12.28.26.4.4.03,0,.07-.03.12-.07l.07-.07s.06.04.08.06l.45-.39c.09-.08.15-.16.18-.22.02-.06.02-.16,0-.31-.05-.28-.04-.55,0-.83,0-.05.02-.09.03-.13l.24-.21s.02,0,.02,0c.04,0,.1,0,.18-.02.17-.03.33-.11.49-.25.1-.09.23-.22.39-.41,0,0,0-.01,0-.01.02-.02.04-.04.05-.05.21.08.42.13.63.16.11.01.19,0,.25-.02.03-.02.07-.05.13-.1l.57-.5c-.13-.16-.27-.31-.42-.45-.09-.08-.16-.14-.24-.18-.05-.02-.14-.04-.26-.05-.23-.03-.42-.07-.57-.11-.2-.06-.37-.14-.51-.25-.27-.2-.47-.54-.61-1.01-.13-.45-.2-.9-.2-1.37,0-.24.06-.41.16-.5l-.14-.13M69.21,65.54c-.36-.09-.65-.21-.86-.34-.23.18-.43.41-.6.68.39.5.89.88,1.48,1.13-.75.37-1.39.89-1.92,1.56.34.29.6.64.79,1.05-.55.26-1.04.6-1.45,1.05.03.17.12.31.27.42.14.11.3.17.48.19.28.03.61-.06.99-.26.39-.2.75-.44,1.09-.72.19-.16.28-.31.28-.44,0-.08-.03-.15-.09-.24-.02-.03-.08-.1-.16-.2-.24-.27-.4-.57-.48-.91l2.29-1.81c-.06-.24-.21-.44-.45-.61-.2-.13-.45-.24-.75-.32-.41-.09-.71-.17-.91-.23M85.13,50.42c-.11-.07-.21-.1-.32-.09-.13,0-.26.09-.4.26-.19.22-.31.35-.36.38.09.04.16.11.2.21.04.1.05.2.02.31-.03.14-.14.32-.31.53-.28.34-.51.61-.67.79-.26.28-.51.52-.74.71-.19.16-.65.48-1.37.96-.58.38-1.01.73-1.29,1.04-.1.12-.15.22-.14.31,0,.06.06.13.14.22l.33.33c.09.09.17.15.22.17.06.02.14.03.24.03l1.98.03c.13,0,.22.03.27.09.03.06.03.14,0,.26l-.2.68c-.04.16-.06.28-.04.35.02.12.11.24.28.37.19.15.3.27.34.35.35-.21.6-.5.76-.87.07-.16.13-.4.2-.73.03-.05.06-.1.09-.16l.71-1.19c.08-.13.16-.23.22-.29.21-.2.54-.31,1-.32.04.02.08.03.11.03.04,0,.07-.01.11-.03.08,0,.14.01.17.02.08.03.14.04.16.03.03,0,.07-.03.1-.07l.57-.57c-.05-.04-.19-.17-.42-.4-.17-.16-.32-.26-.46-.3-.04,0-.09-.01-.16-.02-.03-.04-.05-.08-.07-.11-.06-.12-.09-.33-.1-.61,0-.59.01-1.19.07-1.81,0-.17,0-.29-.02-.37-.04-.09-.12-.19-.24-.29-.13-.12-.29-.23-.46-.34-.04.09-.12.18-.26.29,0,0,0,0,0,0-.09-.09-.18-.15-.24-.19M79.22,9.26c-.43-.24-.87-.35-1.33-.33-.53.02-1.06.21-1.61.58-.36.25-.81.65-1.35,1.19-.42-.72-.75-1.25-.99-1.6-.39-.57-.8-1.04-1.21-1.41-.42-.37-.92-.69-1.5-.98-.47-.24-1.03-.46-1.68-.68-1.34-.45-2.65-.74-3.93-.86-1.41-.14-2.74-.08-3.99.19.25-.99.4-2,.48-3.03.03-.38.02-.7-.02-.96-.05-.35-.17-.63-.36-.85-.17-.2-.39-.34-.66-.43-.25-.09-.52-.11-.8-.09-.41.04-.92.2-1.51.51-1.35.68-2.73,1.65-4.15,2.9-.87.77-2.09,1.96-3.64,3.58-.41-.36-.95-.56-1.64-.59-.48-.02-1.1.05-1.85.21-.93.19-1.88.41-2.85.65-.32.08-.58.16-.78.25-.36-.36-.77-.68-1.23-.95-.69-.41-1.43-.67-2.21-.79-.07-.4-.13-.7-.17-.89-.08-.33-.18-.61-.3-.85-.24-.47-.67-.97-1.29-1.49-.61-.51-1.17-.86-1.68-1.04-.62-.23-1.43-.3-2.44-.23-1.21.09-2.33.33-3.35.72-1.13.43-2.08,1.02-2.86,1.78-.18.17-.32.29-.42.36-.17.11-.34.16-.5.13-.09,0-.2-.05-.3-.12-.01,0-.11-.07-.28-.2-.46-.33-1.04-.55-1.75-.66-.45-.07-1.1-.1-1.94-.09-.59,0-1.04.03-1.35.06-.49.05-.93.15-1.3.29-.53.21-1.04.56-1.54,1.05-.35.34-.76.83-1.23,1.46-.25-.4-.64-.65-1.16-.76-.5-.1-.98-.05-1.45.15-.74.32-1.41,1-2.01,2.05-.28.49-.62,1.2-1.02,2.14-.78,1.81-1.35,3.34-1.72,4.59-.51,1.72-.77,3.31-.8,4.79-.01.66.02,1.3.1,1.95.08.63.19,1.16.33,1.59.2.6.51,1.16.91,1.66.4.5.87.92,1.42,1.25-.61.56-1.06,1.02-1.34,1.38-.44.56-.69,1.13-.76,1.69-.45.14-.89.38-1.34.7-.36.26-.74.6-1.14,1.01-.28.28-.5.53-.66.75-.21.3-.36.59-.45.87-.11.36-.14.75-.09,1.16.05.38.17.76.35,1.13.16.32.37.65.64.98.2.26.47.55.79.88.59.61,1.12,1.06,1.59,1.36.65.4,1.43.68,2.37.85.58.1,1.43.18,2.55.24.64.03,1.12.05,1.43.05.44,0,.85-.03,1.21-.07-.1.26-.19.56-.24.89-.16.9-.13,1.8.08,2.7.14.62.37,1.2.68,1.74.31.56.7,1.04,1.15,1.45.47.42,1,.75,1.58.98.41.16.82.27,1.23.32-.76.52-1.49,1.05-2.2,1.6-.2.15-.34.25-.43.3-.16.11-.32.19-.46.25-.14.04-.24.08-.3.1-.12.04-.22.08-.29.13-.07.04-.15.11-.25.2-.11.1-.19.18-.24.21-.09.07-.19.11-.28.14-.11.03-.21.01-.3-.04-.04-.19-.12-.36-.26-.52-.13-.15-.29-.27-.47-.34,0-.1.04-.18.13-.24-.15-.25-.29-.44-.42-.57-.19-.19-.39-.28-.6-.28-.1,0-.21.02-.33.07-.07.02-.17.07-.31.15l-2.59,1.48c.03-.23.08-.48.17-.76.05-.17.14-.42.26-.74l.51-1.36c.5-1.36.88-2.35,1.13-2.98.18-.43.5-1.19.97-2.27l.63-1.44c-.2-.34-.46-.63-.77-.86-.2.05-.37.16-.49.35-.12.19-.16.39-.11.59-.93,2.02-1.78,4.09-2.55,6.21-.11.31-.34.96-.69,1.95l-.81,2.32c-.06.16-.08.28-.07.37.01.11.09.25.24.41.14.15.27.25.39.28.11.02.23,0,.36-.06.09-.04.19-.11.33-.21.91-.69,1.88-1.27,2.91-1.72-.08.06-.13.14-.15.25-.02.1-.02.2.02.3.05.15.18.31.37.48.12.11.23.17.31.2.06.02.12.01.19,0,.07-.02.11-.06.14-.12.11.04.24.16.39.34.15.19.28.3.38.34.13.05.32.04.57-.03.5-.15,1.02-.38,1.57-.7.4-.24.88-.56,1.43-.97.93-.68,1.82-1.41,2.68-2.17.13.43.38.84.73,1.22.47.51,1.04.89,1.73,1.15.58.22,1.25.36,2.02.42.47.04,1.17.05,2.09.03-.56.55-1.04,1.04-1.42,1.47-.49.55-.91,1.09-1.25,1.62-.83,1.28-1.27,2.55-1.33,3.82-.05.88.1,1.81.44,2.79.27.79.68,1.65,1.24,2.59.56.94,1.13,1.74,1.7,2.38.7.78,1.45,1.39,2.25,1.81-.51,1.05-1.15,2-1.94,2.84-.03.03-.05.05-.07.08-.53.44-.9.74-1.09.9-.47.42-.87.82-1.19,1.19-.84,1-1.29,2.01-1.36,3.03-.04.58.05,1.13.28,1.66.24.55.59.98,1.05,1.28.48.31,1.05.47,1.71.48-.43.4-.86.91-1.29,1.51-.26.37-.62.93-1.08,1.68l-1.3,2.14c-.28.46-.49.82-.63,1.08-.22.4-.4.78-.54,1.12-.12.29-.23.63-.32,1-.06.22-.15.56-.25,1.02-.34,1.46-.56,2.56-.67,3.32-.12.82-.17,1.59-.16,2.31-.16-.23-.35-.49-.56-.79-.52-.75-.91-1.32-1.15-1.7-.42-.64-.77-1.22-1.06-1.75-.45-.83-.89-1.78-1.33-2.86-.27-.66-.63-1.65-1.1-2.97l4.5,4.35c.09.09.16.12.23.1.05,0,.09-.03.13-.09.04-.07.07-.12.09-.15.03-.03.09-.07.18-.12.08-.05.13-.09.17-.14.08-.11.06-.29-.07-.54-.89-1.6-1.7-3.23-2.42-4.9-.09-.2-.13-.36-.11-.48,0-.06.06-.19.16-.39.08-.15.1-.28.06-.38l.44.28c.03-.08.14-.19.34-.34.16-.13.24-.25.22-.36-.01-.07-.08-.16-.19-.27l-1.45-1.27c-.1.12-.24.23-.4.34-.23-.34-.52-.63-.87-.88-.04.08-.15.2-.33.35-.16.13-.26.26-.29.36-.04.12-.01.3.07.53.6,1.7,1.31,3.38,2.13,5.03-.56-.38-1.24-1.04-2.03-1.97-.86-1.01-1.52-1.7-1.96-2.05-.05.1-.17.23-.36.37-.18.14-.29.27-.33.38-.05.14-.02.34.08.6l.88,2.35c.47,1.25.83,2.19,1.1,2.81.44,1.03.88,1.92,1.33,2.69.31.53.82,1.3,1.52,2.3l1.83,2.61c.31.44.58.81.81,1.09.05.29.12.62.2.98.17.82.34,1.44.49,1.86.24.67.55,1.22.93,1.64.32.35.74.67,1.24.95.35.2.84.42,1.45.65.55.22,1,.38,1.36.48.51.15.98.24,1.41.27.52.04,1.13,0,1.84-.14.4-.08,1.01-.2,1.82-.38.79-.16,1.57-.27,2.33-.31.59-.04,1.19-.04,1.78-.01.13,0,.5.03,1.1.07.45.03.82.04,1.1.04.69,0,1.46-.08,2.31-.23.54-.1,1.31-.28,2.28-.53.19-.05.33-.08.42-.1.16-.03.3-.04.43-.04.12,0,.3.02.55.06.59.11.89.16.91.17.34.06.65.1.91.14.72.09,1.52.11,2.4.08.6-.03,1.4-.09,2.4-.19.76-.08,1.34-.17,1.76-.27.64-.16,1.16-.4,1.58-.73.13.25.37.44.7.57.23.09.55.15.95.2.73.09,1.3.13,1.7.11.63-.02,1.17-.15,1.61-.38.12-.06.33-.19.62-.38.26-.17.47-.29.63-.36.4-.17.91-.23,1.55-.2,1.08.06,1.62.08,1.62.08.59-.02,1.16-.16,1.71-.41.55-.26,1.02-.6,1.42-1.04.4-.43.7-.94.9-1.51.2-.57.28-1.15.25-1.74-.03-.29-.04-.52-.04-.67,0-.25.02-.47.09-.64.04-.1.11-.22.22-.37.13-.19.22-.31.25-.36.33-.56.38-1.34.13-2.33-.23-.93-.58-1.75-1.06-2.46-.54-.79-1.19-1.37-1.96-1.72l.75-1.63c.1-.22.17-.39.21-.51.06-.2.08-.38.05-.54-.03-.16-.1-.33-.22-.5-.07-.11-.19-.26-.36-.43-.23-.24-.37-.44-.42-.61-.05-.15-.06-.4-.03-.73.09-.95.12-1.69.09-2.23-.04-.82-.19-1.53-.48-2.13-.2-.37-.35-.65-.45-.84-.17-.33-.27-.63-.3-.88-.05-.3-.02-.64.09-1,.07-.26.2-.58.39-.97.22-.45.36-.79.43-1.05.08-.29.09-.57.06-.81.02-.06.04-.11.06-.18.12-.39.2-.92.23-1.58.03-.7.04-1.22.03-1.57,0-.59-.07-1.11-.19-1.56-.18-.74-.54-1.5-1.08-2.29-.33-.49-.87-1.16-1.62-2.01.76-.39,1.46-.92,2.1-1.59.52-.55.98-1.18,1.38-1.87.18.14.37.23.58.28.17.04.37.05.59.04.11,0,.31-.03.6-.07,1.2-.18,2.2-.26,3-.24l-3.46,1.72c-.36.18-.61.31-.76.4-.39.23-.75.49-1.09.81-.12.12-.19.22-.18.31,0,.07.04.13.1.2.04.04.1.1.18.17.02.02.06.07.13.15.05.07.1.11.15.14.05.04.11.06.2.08.04,0,.1.01.21.01l1.77.08.3.4-.5.58c-.07.09-.1.15-.11.19-.02.1.06.22.22.35.18.14.28.26.28.35.34-.11.7-.38,1.09-.79.54-.57.86-.9.97-.99-.08-.18-.19-.32-.34-.43.06-.04.1-.1.13-.17.03-.07.03-.15.01-.22-.03-.12-.1-.25-.23-.36-.17-.15-.4-.26-.69-.31-.19-.04-.45-.06-.79-.06l2.72-1.42c.3-.16.53-.29.69-.39l.28-.2c.11-.08.21-.14.29-.18.09-.05.22-.12.4-.21.17-.1.37-.26.58-.47.29-.28.58-.59.86-.93-.11-.13-.2-.23-.27-.29-.1-.1-.21-.18-.31-.24-.14-.07-.31-.11-.51-.12-.12,0-.3,0-.53.01-.05.04-.13.07-.24.08l-5.21.58c-.24.03-.43.04-.57.02.27-.63.47-1.28.61-1.96.21-.98.29-1.96.23-2.94.41.24.87.34,1.41.3.49-.04.96-.19,1.41-.45.38-.22.76-.53,1.14-.92.26-.26.58-.64.96-1.13.28.21.63.27,1.04.2.36-.07.71-.22,1.03-.48.45-.34.8-.78,1.06-1.3.25-.52.38-1.06.38-1.62,0-.19-.03-.53-.08-1.01-.05-.43-.06-.76-.03-1.01.04-.45.18-.91.44-1.41.17-.33.45-.76.82-1.27.53-.73.89-1.26,1.09-1.58.37-.61.63-1.19.77-1.73.17-.65.17-1.28,0-1.91-.18-.67-.52-1.18-1.03-1.52.42-.56.74-1.26.95-2.11.13-.53.25-1.31.37-2.33.06-.5.08-.89.07-1.16-.01-.43-.09-.79-.24-1.1,0,0-.09-.17-.27-.48-.11-.19-.17-.36-.2-.51-.02-.13-.02-.27,0-.44,0-.09.04-.24.09-.44.35-1.52.52-3.05.49-4.59-.02-.59-.03-1.03-.04-1.32-.02-.52,0-.96.02-1.32.04-.44.14-.97.28-1.62.07-.31.13-.58.18-.8l.02.02.34-.25,2.18,4.07c.58,1.14,1.02,2.13,1.3,2.99l-.89-.35c-.18-.07-.32-.12-.42-.15-.16-.05-.31-.07-.44-.06-.17,0-.33.05-.48.14-.15.08-.27.19-.37.33-.09.13-.13.26-.13.38,0,.08.03.16.08.25.03.05.07.13.14.22.47.65.86,1.35,1.17,2.11.06.14.08.25.07.33-.02.08-.06.15-.13.22-.03.03-.1.09-.22.17-.32.24-.56.53-.71.89-.04.09-.07.14-.09.17-.04.06-.09.09-.14.11-.04,0-.08,0-.13,0-.06,0-.1-.02-.13-.02-.18-.04-.37.01-.56.15-.13.1-.28.25-.44.47.28.32.52.55.73.67.33.2.64.27.94.2.15-.04.3-.12.44-.24.18-.15.33-.36.45-.63.08-.16.16-.42.27-.76.06-.06.16-.05.28.03.18.11.29.17.33.18.14.03.28-.06.43-.26.18-.24.32-.37.43-.41-.32-1.06-.74-2.08-1.28-3.05l1.79.74c.14.06.24.08.32.08.13,0,.28-.1.43-.28.18-.23.32-.36.4-.4-.17-.24-.34-.52-.5-.85-.09-.17-.22-.47-.41-.9-.89-2.04-1.9-4.02-3.02-5.95-.27-.47-.51-.84-.71-1.11-.29-.38-.64-.7-1.02-.98.09-.69.13-1.38.13-2.08,0-.98-.16-1.83-.44-2.56,0,0,0-.02,0-.03.02-.02.05-.04.07-.06-.03-.03-.05-.06-.06-.09-.03-.05-.09-.17-.18-.37-.07-.16-.14-.27-.21-.35-.05-.04-.08-.07-.1-.09-.04-.04-.06-.07-.07-.11,0-.02,0-.05,0-.08-.02.02-.04.05-.05.07-.27-.33-.57-.6-.93-.8M78.15,10.31c.47.05.83.24,1.09.56.17.21.29.48.36.81.04.21.08.51.1.91.03.61.05,1.07.05,1.38,0,.51,0,.97-.04,1.38-.04.4-.13.91-.26,1.53-.17.8-.27,1.31-.3,1.53-.11.69-.19,1.52-.23,2.49-.02.56-.04,1.4-.06,2.51-.07,2.05-.32,3.68-.78,4.87.65.22.95.97.88,2.23-.04.73-.08,1.29-.12,1.69-.07.62-.18,1.17-.32,1.65-.17.58-.41,1.09-.71,1.54-.33.5-.72.89-1.17,1.18l.7.7c.18-.12.38-.21.58-.26.22-.05.43-.05.64-.02.52,1.21.14,2.74-1.13,4.57-.71,1.02-1.17,1.71-1.38,2.09-.44.83-.64,1.6-.6,2.31,0,.17.04.44.1.79.06.34.09.6.1.78.01.29-.02.55-.1.79-.09.28-.24.49-.43.64-.31.24-.69.29-1.13.16-.41-.11-.76-.34-1.06-.68-.24.08-.41.29-.53.62-.07.19-.14.49-.23.9-.17.56-.54.99-1.12,1.28-.58.28-1.14.33-1.7.12-.21-.09-.37-.15-.48-.19-.19-.07-.35-.1-.49-.09-.31.02-.56.2-.76.55-.15.27-.25.61-.31,1.02-.07.51-.18,1.28-.31,2.3-.13.87-.3,1.62-.51,2.24-.23.72-.54,1.34-.91,1.87-.43.61-.93,1.06-1.51,1.36-.56.3-1.18.44-1.84.42-.66-.02-1.27-.2-1.82-.53l-.68.72c.29.36.74.69,1.36,1.01.98.49,1.49.76,1.55.8,1.01.64,1.73,1.6,2.18,2.89.41,1.19.51,2.43.31,3.74-.1.62-.15,1.08-.15,1.39,0,0-.01.02-.01.03-.03.09-.05.2-.04.33,0,.08,0,.19.02.34,0,.28-.05.59-.17.91-.08.22-.22.5-.42.86-.13.24-.22.43-.28.56-.09.21-.14.41-.16.59-.04.33.04.7.22,1.13.11.24.29.6.54,1.09.28.62.45,1.34.5,2.16.04.63.01,1.39-.08,2.26-.04.34-.04.6.02.77.06.17.22.38.47.64.26.26.41.47.47.64.07.19.07.4.01.64-.04.16-.12.38-.24.63l-.94,2.11c.05.19.16.35.34.49.15.11.33.21.56.28.13.04.33.1.6.17.23.08.41.17.54.28.11.1.21.23.3.38.06.1.13.25.21.44.34.79.56,1.42.65,1.9.15.72.1,1.35-.13,1.89-.04.08-.12.24-.25.48-.11.2-.18.36-.23.49-.06.19-.1.49-.12.89l-.06,1.28c-.02.35-.04.61-.08.8-.06.3-.17.54-.32.72-.22.27-.6.48-1.12.62-.72.2-1.45.28-2.19.24-.45-.04-.79-.06-1.02-.07-.39-.01-.72.02-.99.11-.21.07-.46.2-.76.4-.37.24-.62.39-.74.45-.43.21-.94.33-1.55.35-.38.02-.93,0-1.63-.08-.28-.03-.48-.06-.62-.1-.23-.07-.4-.17-.53-.3-.07-.09-.13-.16-.17-.21-.07-.08-.14-.12-.21-.15-.09-.03-.18-.02-.28.03-.06.02-.15.07-.27.15-.42.26-.92.46-1.51.58-.38.08-.93.15-1.63.22-1.35.12-2.4.19-3.15.19-1.16,0-2.2-.12-3.11-.35-.31-.09-.54-.13-.67-.13-.15,0-.37.03-.66.1-1.38.32-2.24.52-2.59.58-.99.18-1.86.26-2.63.23-.2,0-.52-.04-.98-.08-.42-.04-.74-.07-.98-.07-.22,0-.47,0-.76.01-.13,0-.38.02-.76.05-.53.04-.87.07-1.04.08-.39.04-.74.08-1.04.14-.22.04-.58.12-1.08.26-.46.12-.82.2-1.09.25-1.42.23-3.02.03-4.78-.62-.32-.12-.59-.23-.8-.34-.28-.15-.51-.32-.69-.51-.26-.28-.49-.71-.69-1.27-.56-1.55-.82-3.28-.77-5.19.05-1.61.31-3.37.8-5.28.23-.88.46-1.6.69-2.15.22-.49.58-1.16,1.1-2.02l1.32-2.19c.44-.73.79-1.25,1.06-1.58.39-.48.92-.98,1.6-1.5.17-.13.26-.24.28-.35.03-.13-.03-.27-.18-.41-.31-.33-.82-.54-1.54-.61-.38-.03-.66-.05-.85-.07-.33-.03-.6-.09-.82-.18-.34-.99-.32-2.01.05-3.06.37-1.05,1-1.85,1.89-2.41.39-.21.67-.38.85-.49.33-.2.58-.41.74-.63-.01,0-.03-.03-.06-.06.06-.05.11-.09.17-.14.11-.09.2-.19.25-.3.06-.13.05-.24-.02-.32l1.72-2.61c-.16-.28-.45-.53-.87-.76-.49-.23-.85-.41-1.08-.55-.37-.22-.72-.53-1.06-.93-.25-.29-.52-.67-.83-1.16-.69-1.09-1.2-2.09-1.53-2.99-.42-1.14-.58-2.22-.48-3.24.13-1.39.74-2.81,1.83-4.25.25-.33.48-.6.69-.82.28-.27.57-.47.86-.62.45-.17.77-.31.98-.41.37-.18.6-.41.71-.67-.23-.3-.53-.54-.9-.74-.33-.17-.7-.29-1.12-.37-.31-.06-.7-.1-1.17-.13-.76-.05-1.15-.07-1.18-.07-.72-.07-1.44-.2-2.15-.4-.27-.07-.49-.16-.65-.25-.23-.13-.38-.29-.47-.48-.11-.24-.12-.52,0-.83.09-.25.24-.51.47-.76-.1-.19-.25-.36-.45-.49-.19-.12-.4-.2-.64-.24-.18-.04-.41-.06-.67-.06-.3,0-.53,0-.68,0-.82,0-1.46-.17-1.93-.48-.39-.26-.71-.66-.95-1.18-.18-.4-.33-.9-.45-1.51-.16-.86-.22-1.58-.16-2.15.09-.81.37-1.46.84-1.95-.03-.02-.06-.04-.09-.07.12-.11.22-.24.3-.38-.11-.16-.21-.29-.3-.38-.13-.12-.26-.19-.4-.21-.08,0-.18,0-.28.02-.05.01-.14.04-.27.08-.52.18-1.12.29-1.78.34-.5.04-1.11.03-1.84,0-.77-.04-1.43-.11-1.98-.2-.71-.12-1.35-.3-1.92-.54-1.03-.42-1.8-1.01-2.33-1.76-.29-.42-.48-.87-.58-1.36-.1-.51-.08-.99.07-1.45.14-.48.42-.88.82-1.21.41-.34.85-.51,1.34-.53.07,0,.21,0,.42.01.17,0,.31,0,.41,0,.34-.03.58-.15.71-.37.09-.16.11-.38.06-.64-.08-.3-.12-.53-.14-.69-.02-.27.04-.54.19-.82.13-.24.31-.47.55-.68.15-.13.38-.31.68-.54.32-.23.55-.41.68-.53.14-.12.21-.24.22-.34,0-.1-.04-.22-.15-.35-.17-.2-.47-.44-.91-.71-.45-.28-.76-.51-.93-.7-.27-.31-.48-.78-.64-1.41-.77-3.02-.37-6.5,1.21-10.44.48-1.12.83-1.97,1.05-2.55.23-.6.38-.98.47-1.16.2-.42.43-.76.69-1.02.31-.31.68-.49,1.11-.56.46-.07.83.02,1.13.28.1.09.28.31.53.69.2.29.4.48.6.57.31-.11.53-.38.66-.83.03-.09.07-.27.12-.54.04-.22.09-.4.14-.53.12-.31.32-.58.6-.82.26-.22.56-.39.9-.52.29-.1.62-.18,1.01-.22.24-.03.58-.06,1.04-.09.92-.05,1.64-.04,2.15.02.79.09,1.44.32,1.96.69.07.05.18.12.32.22.12.08.24.13.34.15.2.03.41-.02.63-.16.12-.08.3-.23.55-.46.84-.8,1.88-1.4,3.12-1.8,1.1-.36,2.31-.55,3.63-.57.44,0,.81,0,1.11.05.4.06.75.16,1.05.31.47.25.85.62,1.13,1.13.27.49.4,1.01.38,1.56,0,.14,0,.35-.01.63,0,.24.07.42.17.57.17.25.46.39.88.42.1,0,.28,0,.51,0,.22,0,.39,0,.51,0,.46.03.93.21,1.42.54.31.22.71.56,1.19,1.03l.21-.2c.07.01.15.02.24.02.18,0,.38-.02.59-.08.09-.02.28-.08.58-.18,1.22-.4,2.46-.64,3.74-.72,1.03-.07,1.69.15,1.99.68,1.77-1.88,3.17-3.27,4.22-4.15,1.67-1.41,3.33-2.41,4.97-3.02.25-.09.43-.09.54-.01.07.05.11.12.14.23.02.07.03.16.03.28.03,1.69-.3,3.3-.97,4.83.1.15.24.27.43.35.18.07.37.1.57.1.16,0,.35-.04.57-.09.12-.03.3-.08.55-.16,1.09-.31,2.32-.39,3.68-.23,1.01.12,2.24.39,3.68.82.66.2,1.19.38,1.57.57.56.26,1.02.56,1.37.92.22.22.44.51.68.87.13.21.33.53.59.96.48.78.97,1.29,1.47,1.54.36-.44.65-.76.85-.97.34-.33.68-.58,1.02-.74.41-.19.83-.26,1.27-.21M80.17,10.09l.06.06s0,0,0,0c-.02-.02-.04-.05-.05-.07Z"/>
      </g>
      <g>
        <g id="plushuie_0_Layer0_0_FILL">
          <path class="cls-2" d="M42.19,46.27c-.53-.24-1.17-.38-1.9-.4-.9-.02-1.75.13-2.57.44-.58.22-1.17.55-1.77.99-.03-.29-.07-.53-.13-.74-.1-.35-.27-.67-.5-.96-.23-.29-.5-.53-.81-.71l-.67.67c.29.35.5.75.63,1.2.14.45.19.9.15,1.35,0,.07-.01.17-.03.31-.24.21-.51.46-.79.73.01.21.13.37.35.47.07.03.14.06.21.07-.43.54-.8,1.19-1.12,1.95-.24.58-.48,1.28-.7,2.1-.45-.12-.88-.1-1.3.07-.4.16-.77.44-1.11.82-.26.29-.53.67-.82,1.16-.27.45-.47.85-.61,1.2-.18.45-.28.88-.29,1.28-.02.6.14,1.23.48,1.9.21.43.58,1,1.1,1.71.44.6.78,1.04,1.02,1.32.4.47.79.86,1.18,1.16.46.36.95.63,1.46.8.36.12.7.18,1.05.19-.42.75-1,1.56-1.74,2.44-.29.34-.72.83-1.3,1.5-.51.6-.93,1.11-1.24,1.54-.49.66-.82,1.3-.99,1.91-.22.76-.18,1.43.12,2,.19.37.48.7.89.99.32.22.72.43,1.21.63.03.01.06.03.1.04-.01.05-.02.11-.02.17-.15.09-.27.25-.35.47-.06.17-.12.44-.17.81-.06.5-.19,1.08-.38,1.75-.23.8-.55,1.72-.96,2.77-.24.61-.6,1.52-1.1,2.73-1.37,3.43-2.36,6.6-2.98,9.51-.07.35-.12.63-.15.84-.03.31-.02.59.03.83.1.51.38,1.02.86,1.54.69.74,1.57,1.31,2.64,1.68.97.34,2.02.51,3.15.51.79,0,1.49-.11,2.1-.32.73-.25,1.28-.65,1.65-1.18.1-.15.14-.27.12-.37,0-.01,0-.02,0-.03.02-.02.05-.05.07-.07.02.04.05.07.07.11.18.27.43.5.73.67.04.04.07.08.08.12.02-.01.05-.03.08-.04.14.07.3.13.47.19.5.16,1.08.22,1.74.2,1.15-.05,2.35-.29,3.6-.74.69-.24,1.41-.56,2.17-.94-.19-.13-.37-.28-.54-.46-.32-.34-.56-.73-.73-1.17-.08-.2-.16-.51-.26-.94-.07-.33-.11-.58-.12-.76-.01-.29.04-.52.16-.72.02-.04.06-.1.12-.17.05-.07.09-.13.12-.17.03-.05.06-.11.09-.19.04-.11.07-.17.08-.19.04-.09.08-.17.14-.26-.08.06-.17.11-.26.16-.29.16-.74.33-1.35.51l-1.91.56c-.5.15-.87.24-1.13.29-.85.15-1.69.12-2.52-.11-.08.07-.16.14-.24.21-1.49-5.41-2.64-10.9-3.44-16.45-.05-.32-.1-.59-.16-.81.32.1.66.19,1.01.28.74.19,1.64.38,2.69.58.55.1.99.16,1.31.17.49.02.91-.05,1.28-.19.33-.13.67-.35,1.03-.66.06-.06.37-.35.92-.88.75-.73,1.43-1.09,2.03-1.09.39,0,.94.2,1.65.6-.05.27-.08.6-.09.98-.03,1.23-.01,2.17.05,2.82.05.55.14,1.16.28,1.83.08.41.22,1.01.42,1.8l.98,4s.04-.05.05-.08c.06-.09.12-.22.19-.38.1-.22.15-.35.17-.39.16-.34.38-.66.65-.98-.18-.65-.32-1.17-.42-1.58-.57-2.44-.84-4.9-.79-7.38.05,0,.1.02.14.02l-.44-.47c-.15-.15-.24-.24-.26-.26-.05-.05-.13-.1-.22-.17-.12-.08-.2-.14-.23-.16-.15-.11-.35-.3-.61-.55-.15-.15-.26-.27-.33-.36-.11-.14-.18-.28-.22-.42.01-.02.03-.03.05-.05,0,0,0,0,0,0-.73-.29-1.36-.34-1.9-.17-.42.14-.91.51-1.46,1.11-.6.65-1.07,1.07-1.4,1.24-.35.18-.76.28-1.24.3-.36.01-.8-.02-1.31-.1-.78-.12-1.66-.3-2.62-.55-.58-.15-1.44-.4-2.58-.73-.23-.06-.4-.12-.52-.18-.18-.08-.33-.19-.44-.31-.28-.32-.37-.78-.25-1.4.14-.75.53-1.53,1.16-2.35.21-.24.4-.46.58-.67,0,.36.01.66.05.9.07.43.21.84.44,1.23.22.39.5.72.84,1,.18.14.33.21.46.2.13-.01.26-.1.39-.26.18-.21.29-.34.35-.37-.19-.4-.32-.71-.4-.92-.13-.35-.21-.67-.24-.97-.01-.13-.02-.43-.01-.91,0-.37-.03-.67-.09-.9-.04-.14-.08-.25-.1-.32-.03-.13-.05-.24-.04-.33.03-.15.03-.27.02-.35.25-.32.5-.67.77-1.06.25-.37.63-.94,1.15-1.73.12-.18.21-.34.28-.46.2-.11.41-.24.62-.39.37-.27.85-.7,1.44-1.3.64-.65,1.12-1.15,1.44-1.5.52-.57.94-1.11,1.28-1.62.29-.43.62-1.01,1-1.74.42-.82.75-1.52.98-2.09.5-1.22.85-2.47,1.07-3.74.46.45.87.93,1.23,1.46l.89-1.51c.22-.38.4-.65.52-.82.19-.25.33-.44.41-.57.09-.15.2-.39.34-.71.23-.54.47-1.01.7-1.4-.03.01-.07.03-.12.06-.08.05-.13.08-.15.09-.11.06-.22.07-.35.03-.13-.04-.22-.11-.27-.22l-.96.96c-.06.06-.12.1-.16.1-.08,0-.15-.07-.22-.21-.11-.25-.27-.51-.47-.78-.13-.17-.32-.41-.58-.71l-.45-.51c-.24-.28-.46-.51-.65-.71.08-.08.14-.16.18-.22-.25-.26-.46-.44-.6-.53-.09-.06-.23-.13-.42-.22-.24-.11-.43-.15-.56-.14-.11.09-.21.18-.31.28M40.84,47.43c.26.01.47.03.64.07.23.04.43.12.58.23.45.3.71.89.78,1.79.11,1.35-.05,2.83-.47,4.45-.34,1.31-.81,2.58-1.42,3.8-.61,1.22-1.33,2.36-2.17,3.42-.4.51-.79.94-1.16,1.28-.43.39-.86.7-1.31.93-.1-.1-.23-.16-.37-.19-.18.11-.34.28-.48.51-.3.08-.61.12-.92.13-.62.01-1.16-.13-1.63-.42-.27-.17-.55-.41-.81-.72-.16-.19-.39-.49-.66-.89-.55-.79-.94-1.44-1.15-1.95-.33-.77-.43-1.48-.29-2.13.05-.23.13-.48.25-.74.07-.16.19-.4.35-.7.18-.34.35-.59.5-.76.22-.25.47-.4.73-.43.08-.01.17-.01.27,0-.28.63-.67,1.2-1.18,1.69.22.32.52.54.88.68.77-.57,1.34-1.29,1.71-2.15.09-.2.18-.44.27-.72.1-.33.17-.58.22-.74.26-.86.56-1.72.92-2.58.1-.26.2-.47.29-.62.33-.6.84-1.12,1.53-1.58.52-.34,1.2-.67,2.04-.99.5-.19.86-.34,1.07-.46.11-.06.21-.12.3-.19.22,0,.46,0,.69,0M31.47,82.1c.17-.49.35-1.04.52-1.66.06-.2.12-.44.2-.72l1.08,5.95c.18.97.31,1.65.39,2.06.15.76.3,1.45.45,2.05.07.29.36,1.36.88,3.22.28,1.01.5,1.88.64,2.63-.08,0-.15,0-.21,0-.08,0-.2.02-.36.05-.16.03-.28.04-.36.05-.25.01-.6-.04-1.04-.15l-2.01-.49c-.42-.1-.72-.19-.91-.25-.25-.08-.52-.2-.82-.34-.17-.08-.43-.22-.79-.41l-.47-.25c-.44-.23-.79-.41-1.06-.54.7-2.89,1.62-5.71,2.77-8.48.25-.6.44-1.05.57-1.35.22-.53.4-.99.53-1.37M44.32,49.37c.04.06.06.11.06.16,0,.03,0,.06-.03.1-.01-.09-.02-.17-.03-.25Z"/>
        </g>
        <g>
          <g id="plush_0_Layer1_0_FILL">
            <path class="cls-2" d="M62.75,13.32c-.69.31-1.51.45-2.46.41-.61-.03-1.46-.15-2.54-.36-1.1-.21-1.94-.42-2.5-.6-.9-.3-1.64-.69-2.23-1.18-.2-.17-.5-.46-.9-.88-.38-.4-.68-.68-.91-.87-.59-.46-1.29-.77-2.1-.94-.74-.15-1.52-.17-2.33-.06-.39.05-.83.14-1.31.27-.29.07-.72.2-1.29.37l-1.65.5s-.03,0-.04.02c-.11-.18-.25-.38-.42-.58-.23-.29-.48-.57-.75-.84-.08-.08-.16-.12-.22-.12-.04,0-.1.04-.16.11l-.21.22-.06-.06c-.64.37-1.35.58-2.12.64-.76.06-1.49-.05-2.19-.31-.23-.09-.55-.23-.95-.44-.43-.22-.74-.38-.94-.46-.86-.36-1.84-.53-2.95-.52-.86,0-1.87.13-3.04.37-.48.09-.86.21-1.14.35-.33.16-.56.36-.72.6-.1-.1-.21-.19-.32-.28-.55-.45-1.14-.74-1.75-.88-.5-.1-1.06-.1-1.67,0-.45.08-1,.23-1.63.46-.46.16-.82.33-1.09.48-.38.22-.66.47-.86.77.28.27.55.56.8.88.18.21.31.4.39.57.14.29.21.62.19.98-.02.34-.1.66-.26.98-.26.54-.72,1.03-1.36,1.47-.29.19-.54.3-.76.31-.23-.19-.45-.41-.64-.66-.46-.58-.77-1.24-.94-1.98-.17-.74-.18-1.47-.03-2.19.03-.13.04-.22.05-.27.01-.1,0-.19-.02-.27-.04-.12-.15-.25-.34-.39-.2-.15-.32-.27-.37-.37-.36.25-.68.61-.97,1.09-.18.29-.4.74-.66,1.33-.48,1.09-.82,1.9-1.05,2.45-.37.92-.67,1.75-.89,2.51-.23.81-.36,1.48-.39,2.03-.05,1.16.29,2.41,1.01,3.75.26.48.61,1.03,1.05,1.66.25.36.63.89,1.14,1.6.08.12.16.23.24.34-.07.05-.15.1-.22.15-.25.19-.57.49-.96.9-.18.18-.31.33-.4.44-.14.17-.24.34-.32.5-.13.27-.2.6-.22,1,0,.13,0,.48.02,1.05.01.41-.01.76-.08,1.05-.08.38-.24.67-.46.9-.22.21-.61.41-1.17.58-.59.18-.99.36-1.21.55-.19.16-.3.34-.32.52-.03.22.07.48.3.79.58.75,1.34,1.35,2.28,1.8.88.42,1.83.66,2.84.73,1.38.09,2.85-.14,4.43-.68.09.66.19,1.21.28,1.63.22,1,.52,1.86.91,2.59.31.58.72,1.18,1.25,1.8.32.38.82.92,1.5,1.61.18.18.33.31.46.39.19.12.37.17.55.15.07,0,.17-.03.3-.08.14-.05.24-.09.3-.1.15-.03.32-.03.51.02.11.03.27.09.49.18,1.18.48,2.5.92,3.96,1.31,1.11.3,2.47.61,4.08.94,1.04.21,1.91.37,2.59.48.95.14,1.83.23,2.62.26,1.03.04,2.06,0,3.09-.15.13.11.26.22.39.31.19.13.29.2.3.21.11.09.19.17.26.26-.08.07-.21.12-.38.15-.22.04-.36.07-.41.1-.1.04-.21.11-.34.22-.2.17-.38.36-.54.56.06.04.19.17.41.4.16.17.32.26.46.29.1.02.22.01.36-.02.03.05.07.11.13.18.18.21.33.37.45.47.17.16.35.27.53.34.19.07.45.11.77.11.45,0,1.02-.05,1.71-.16.22-.03.43-.07.65-.11.3-.43.53-.77.67-1.02.1-.18.17-.32.23-.4.09-.15.18-.28.27-.37.12-.12.25-.21.4-.28l.56-.83c.4-.6.73-1.02.98-1.28.43-.44.88-.72,1.36-.85.23-.06.5-.09.81-.09.1,0,.38.01.82.04.42.02,1.07.03,1.96.03-.32-.05-.68-.11-1.07-.19-1.29-.24-3.22-.66-5.78-1.26l-3.08-.71c-.53-.12-.92-.24-1.18-.36-.36-.16-.68-.39-.96-.68-.28-.29-.5-.62-.64-.99-.05-.11-.1-.27-.17-.48-.07-.23-.12-.39-.16-.49-.04-.11-.12-.3-.25-.57-.11-.24-.19-.43-.24-.58-.03-.09-.07-.23-.11-.4-.05-.19-.08-.32-.11-.4-.04-.12-.18-.47-.44-1.04-.19-.42-.3-.77-.31-1.07-.02-.42.09-.85.33-1.31.16-.29.44-.66.82-1.09.31-.35.61-.67.91-.98.36-.38.67-.66.95-.85.26-.18.68-.39,1.27-.64l2.16-.92c.43-.18.75-.3.96-.34.17-.04.39-.07.66-.1.37-.03.59-.06.66-.07.35-.04.86-.16,1.54-.35.56-.15.99-.26,1.31-.33.48-.11.92-.19,1.32-.23.58-.06,1.41-.07,2.48-.03,1.14.04,1.97.05,2.48,0,.15-.01.45-.04.9-.09.38-.04.68-.07.9-.08.36-.01.89,0,1.59.05.14,0,.27.02.38.04,0,0,0-.02-.02-.03-.11-.26-.24-.63-.39-1.11-.23-.74-.38-1.34-.45-1.81-.11-.68-.11-1.29,0-1.84.09-.42.25-.85.49-1.3.17-.33.42-.73.74-1.2.28-.4.47-.7.58-.91.18-.36.26-.69.26-1.01,0-.39-.15-.77-.42-1.16-.19-.27-.49-.59-.89-.95-.26-.24-.49-.39-.69-.43-.16-.03-.33-.01-.51.06,1.03-.55,1.92-1.21,2.7-1.97.24-.23.41-.47.51-.71.12-.3.11-.55-.04-.76-.1-.13-.24-.23-.42-.28-.17-.04-.34-.05-.52-.01-.14.03-.3.09-.48.17-.21.1-.37.17-.47.22M21.63,36.55c-.07-.38-.14-.9-.21-1.56.87-.4,1.6-.82,2.2-1.29.06-.05.12-.1.18-.15.06.07.16.15.28.25.4.33.77.69,1.12,1.08.2.22.35.36.44.42.04.02.15.09.35.2.14.08.24.15.31.23l-.48.48c.1.16.27.36.53.59.12.11.21.19.28.23.09.05.2.1.34.14.28.08.56.13.85.13.12,0,.22-.01.28-.04.06-.03.14-.09.23-.18l.39-.38s0,0,.02.01c.13.07.28.09.46.08.12-.01.27-.05.47-.11,1.71-.53,3.37-1.17,4.97-1.92.25-.11.49-.23.72-.36.47-.26.9-.55,1.3-.89.1.09.2.15.29.19.08.03.18.06.31.07l.31.04c.35.06.68.25.99.57.21.21.45.53.73.96l.99,1.55c.23.37.4.65.48.86.13.32.21.66.23,1.02.02.35-.03.69-.13,1.03-.06.19-.13.33-.22.44-.08.1-.21.19-.37.28,0,0-.15.07-.43.19-.55.25-1.01.61-1.39,1.09-.08.11-.12.21-.12.28,0,.06.05.14.12.23.34.39.61.68.81.87.33.29.66.49.99.6.33.11.71.15,1.13.12-.15.19-.23.36-.24.51,0,.14.04.31.14.49.05.1.14.21.25.35-.45.03-.9.04-1.35.04-.9-.01-1.9-.1-2.99-.26-.75-.11-1.74-.29-2.96-.54-1.79-.37-3.27-.71-4.44-1.04-1.6-.44-3.03-.94-4.29-1.49-.45-.19-.81-.38-1.11-.55-.38-.23-.71-.47-.98-.73-.47-.46-.85-1.07-1.16-1.84-.26-.64-.46-1.39-.6-2.25Z"/>
          </g>
          <g id="plush_0_Layer0_0_FILL">
            <path class="cls-2" d="M58.96,3.44l-2.58,1.92c-2.1,1.57-3.64,2.75-4.63,3.56-1.68,1.36-3.12,2.67-4.32,3.92-.14.15-.21.28-.21.39,0,.11.1.23.29.36.2.13.31.25.33.35.24-.16.49-.38.75-.65.15-.16.38-.4.68-.73.49-.52,1.08-1.06,1.77-1.63.41-.34,1.04-.83,1.91-1.49,2.71-2.04,4.56-3.42,5.57-4.15-1.43,3.59-2.35,7.3-2.75,11.13-.03.23-.04.42-.04.55,0,.2.04.38.1.54.07.18.18.32.34.42.17.11.33.14.49.08.26-.09.43-.4.48-.92.12-1.19.22-2.08.3-2.67.21-1.54.58-3.2,1.11-5,.38-1.27.92-2.9,1.64-4.87.1-.26.13-.47.09-.61-.04-.13-.15-.29-.35-.45-.18-.17-.34-.26-.48-.27-.13,0-.3.07-.51.23M33.41,4.7c-.16-.16-.3-.24-.42-.25-.12,0-.26.08-.43.24-.61.58-1.11,1.11-1.5,1.59-.5.61-.9,1.22-1.19,1.82-.04.08-.06.14-.04.19,0,.04.04.08.09.13l.58.56.31-.28c.18-.17.31-.3.37-.39.05-.07.13-.21.24-.44.34-.69.78-1.31,1.33-1.86l.09,1.42c.03.46.06.86.1,1.19l.05.35c.02.13.05.23.08.31.05.1.15.22.31.36.17.14.28.26.33.35l.44-.4c.19-.17.29-.32.31-.46,0-.05,0-.1-.01-.17-.02-.07-.03-.13-.04-.17-.02-.09-.05-.22-.08-.41-.03-.23-.05-.38-.05-.45,0-.29,0-.5,0-.64,0-.09-.03-.25-.06-.48-.03-.2-.05-.37-.05-.48,0-.09.01-.23.03-.42,0-.16-.02-.3-.07-.4-.04-.09-.13-.21-.28-.35l-.46-.46M28.18,40.73c-.19.04-.4.06-.63.08-.07,0-.12.02-.15.03-.04.02-.09.06-.15.12l-.57.56.57.56c.06.06.11.1.16.13.04.02.1.03.19.03.22,0,.47-.03.74-.09.18-.04.42-.1.72-.2.19-.06.32-.11.4-.15.06-.03.13-.08.21-.14.21-.16.48-.43.82-.78l-.61-.61s-.05-.05-.08-.06c-.04-.01-.09,0-.17.05-.12.08-.3.16-.54.24-.32.11-.63.18-.92.23Z"/>
          </g>
        </g>
      </g>
      <g>
        <g id="Shyheaddd_0_Layer2_0_FILL">
          <path class="cls-2" d="M74.47,21.93c-.21-.87-.33-1.35-.37-1.47-.16-.55-.36-1.01-.59-1.37-.22-.35-.54-.7-.95-1.07-.06-.05-.43-.36-1.12-.92-.81-.7-1.43-1.22-1.86-1.55-.73-.57-1.41-.99-2.04-1.25-.45-.18-.98-.33-1.58-.44-.36-.06-.91-.14-1.64-.22l-3.78-.4c-.07-.12-.17-.23-.3-.32-.17-.12-.38-.19-.6-.22-.18-.02-.4-.02-.64.02-.02,0-.23.04-.63.11-.23.04-.61.09-1.15.15-.5.05-.88.11-1.16.16-.57.11-1.29.34-2.14.69-1.17.48-1.87.75-2.1.83-.45.15-1.04.32-1.78.49-.94.22-1.53.37-1.8.44-1.57.44-3.05,1.08-4.46,1.94-1.41.85-2.67,1.87-3.78,3.05-.36.38-.65.73-.86,1.04-.27.41-.46.8-.57,1.2-.07.28-.11.59-.12.95,0,.24,0,.56.03.96.11,1.72.36,3.75.73,6.08.23,1.45.46,2.62.7,3.52.19.7.44,1.47.76,2.32.18.49.48,1.25.9,2.27.29.69.51,1.21.68,1.55.24.47.49.87.76,1.21l-.3.3c.23.26.48.51.74.76l.53-.04s.05,0,.07,0c.55.42,1.21.77,1.97,1.05.48.18,1.03.34,1.65.49.37.09.93.2,1.68.35l1.99.39c.23.05.42.08.55.09.2.02.39.02.55-.02.03,0,.06-.01.09-.02.13.11.26.19.39.24.2.09.49.14.86.16.1,0,.54.02,1.31.03.53.01.96.04,1.3.09.08.01.34.05.77.13.31.05.57.09.77.1.23.01.5,0,.79-.02.16-.01.43-.05.79-.1,1.21-.16,2.12-.29,2.72-.39,1-.16,1.9-.35,2.68-.55.87-.22,1.58-.47,2.11-.75.39-.2.77-.45,1.15-.76.24-.04.51-.2.8-.47.38-.34.78-.73,1.22-1.18.28-.29.66-.7,1.16-1.24.34-.37.6-.65.76-.84.27-.32.49-.63.66-.92.24-.4.46-.88.66-1.44.11-.34.26-.85.44-1.53.62-2.35,1.03-4.2,1.22-5.56.29-2.08.28-3.94-.05-5.6-.06-.33-.16-.74-.3-1.26-.17-.66-.28-1.08-.32-1.26M72.67,20.61c.08.3.19.74.32,1.35.05.22.14.59.28,1.1.12.47.21.84.27,1.1.38,1.74.41,3.71.1,5.9-.19,1.39-.63,3.34-1.3,5.87-.12.46-.22.81-.3,1.06-.12.39-.26.72-.41,1.02-.2.41-.49.83-.84,1.26-.22.27-.56.65-1.03,1.14-.04.04-.07.08-.11.12l-.31-.32c-.24.17-.52.47-.82.89-.21.29-.39.52-.53.69-.15.08-.27.17-.35.26-.05.06-.09.12-.12.18-.18.13-.39.25-.62.36-.25.12-.57.24-.96.36-.93.29-1.99.54-3.19.76-.71.12-1.79.29-3.24.49-.37.05-.64.08-.82.1-.31.03-.58.03-.82.02-.2-.01-.47-.04-.8-.1-.4-.07-.67-.11-.8-.13-.21-.02-.81-.05-1.8-.07-.74-.01-1.33-.09-1.77-.23l-.03.04c-.06-.03-.12-.06-.19-.08-.23-.08-.6-.16-1.09-.23-.48-.07-1.24-.21-2.28-.43-.68-.15-1.18-.26-1.5-.34-.56-.13-1.05-.27-1.49-.4-.38-.12-.69-.23-.94-.35-.29-.14-.54-.3-.74-.48l-.06-.06s-.04-.04-.06-.06c-.22-.23-.42-.52-.59-.89-.09-.19-.23-.54-.42-1.06-.06-.16-.41-1.01-1.04-2.55-.43-1.03-.73-1.89-.92-2.6-.17-.62-.34-1.52-.52-2.69-.22-1.43-.39-2.57-.51-3.44-.17-1.26-.29-2.41-.36-3.46-.03-.37-.04-.68-.04-.92,0-.34.04-.64.11-.91.14-.57.44-1.12.9-1.65.36-.41.85-.84,1.45-1.28,1.88-1.36,3.94-2.35,6.19-2.98.22-.06.78-.2,1.68-.42.69-.17,1.25-.32,1.67-.46.37-.12.95-.35,1.77-.67.75-.31,1.34-.53,1.77-.65.81-.24,1.62-.38,2.45-.43.09.04.19.07.3.1.17.04.38.07.63.09.14.01.36.02.64.03.38.02.85.07,1.42.16.84.13,1.31.21,1.42.22.55.07,1.39.15,2.5.23.99.1,1.8.26,2.43.5.61.22,1.24.57,1.9,1.04.41.29.97.74,1.71,1.36.31.26.54.46.67.6.24.23.43.46.58.68.21.33.39.75.53,1.26Z"/>
        </g>
        <g id="Shyheaddd_0_Layer1_0_FILL">
          <path class="cls-2" d="M36.66,10.59c-.05.11-.08.29-.09.54l-.3,5.73c-.08,1.53-.16,3.08-.23,4.65,0,.05,0,.11,0,.16-.28.66-.49,1.34-.62,2.03-.27,1.37-.21,2.65.18,3.85.1.32.31.83.64,1.54.3.66.5,1.18.61,1.54.17.61.29.98.34,1.11,0,.02.02.04.03.06-.11.15-.21.29-.3.43-.39.58-.64,1.16-.76,1.73-.09.44-.08.82.03,1.14.07.2.19.41.36.6.12.15.29.32.51.5,1.38,1.18,2.94,2.02,4.69,2.49l.65-.65c-.05-.09-.11-.18-.18-.26.09-.12.13-.25.13-.37,0-.08-.02-.17-.06-.27-.05-.11-.09-.2-.12-.26-.23-.5-.31-1.04-.22-1.61.09-.57.31-1.07.68-1.48.16-.18.37-.36.63-.55.31-.21.54-.38.7-.48.09-.06.51-.37,1.25-.93.5-.38.93-.67,1.29-.87.58-.33,1.3-.63,2.15-.89,1.43-.45,3.07-.76,4.93-.94,1.14-.11,2.82-.2,5.05-.26.94-.03,1.67-.04,2.17-.04.8,0,1.53.05,2.17.12,1.26.14,2.65.47,4.15.97.91.31,2.24.82,4,1.55.52.22.92.42,1.19.62.4.29.66.62.77,1,.07.24.08.63.04,1.19,0,.08-.01.17-.02.24-.1.19-.22.36-.35.5-.08.08-.13.14-.14.16-.05.06-.08.13-.08.19-.01.08.03.19.12.32.25.33.6.54,1.06.64.08.02.17.03.25.04.05.03.1.05.15.06.06,0,.13,0,.19-.05.23-.01.46-.06.69-.14.37-.13.73-.36,1.08-.67.28-.25.56-.57.86-.96.85-1.14,1.25-2.21,1.21-3.22-.02-.53-.18-1.13-.47-1.79-.23-.5-.5-.98-.81-1.43.09-.15.18-.31.26-.47.43-.84.75-1.77.95-2.78.17-.87.27-1.84.3-2.91.02-.75,0-1.73-.07-2.94-.03-.59-.07-1.05-.11-1.37-.01-.11-.03-.21-.05-.31l.09-.08c.14-.12.22-.23.25-.32.01-.05.02-.12.02-.19,0-.09-.01-.15-.02-.2,0-.1.02-.24.07-.42.05-.21.08-.35.09-.43,0-.16.01-.29.02-.37,0-.11.02-.27.05-.49.02-.15.04-.37.06-.65.03-.37.04-.65.05-.83,0-.2.02-.34.04-.42.01-.03.03-.08.05-.15.01-.06.02-.11.01-.15-.01-.09-.08-.19-.2-.31l-.48-.47c-.07-.06-.12-.09-.16-.1-.05,0-.12.03-.19.1-.43.38-.76.65-1,.81-.19.13-.4.26-.62.37-.22.11-.38.19-.46.25-.03.02-.07.05-.11.09,0,0,0,0-.01-.01-1.41-1.34-2.77-2.35-4.08-3.04-.61-.33-1.35-.65-2.22-.96-1.13-.42-2.13-.71-2.98-.86-.57-.1-1.2-.16-1.89-.18-.53-.02-1.16-.02-1.9.01-1.9.07-3.73.24-5.47.51-3.71.59-7.26,1.67-10.64,3.24-.91.42-1.66.82-2.25,1.19-.13.08-.28.18-.43.28-.06-.01-.13-.02-.2-.03-.24-.03-.42-.05-.53-.07-.47-.08-.96-.24-1.47-.5-.39-.19-.83-.47-1.34-.82-.92-.63-1.8-1.33-2.65-2.09-.1-.09-.19-.14-.27-.14-.06,0-.14.05-.23.13-.22.19-.36.37-.43.53M40.55,13.84c.57.37,1.13.66,1.68.87-1.15.89-2.09,1.68-2.82,2.36-.72.69-1.35,1.38-1.88,2.07.03-.68.06-1.35.1-2.02l.33-5.29c1.08.93,1.94,1.6,2.59,2.01M77.29,14.89c-.02.11-.03.2-.05.27-.1-.14-.2-.29-.32-.43-.1-.13-.22-.26-.34-.41.28-.15.55-.34.79-.55-.05.09-.07.2-.07.35,0,.08,0,.21.02.38,0,.1-.02.23-.05.4Z"/>
        </g>
        <g id="Shyheaddd_0_Layer0_0_FILL">
          <path class="cls-2" d="M58.39,41.97c-.32.18-.55.32-.7.44-.24.18-.44.37-.57.58l.67.68c.06-.06.15-.09.27-.1.07,0,.17,0,.31,0,.11-.02.25-.08.41-.18.57-.35,1.09-.77,1.56-1.27.06-.06.09-.12.1-.17,0-.05-.03-.11-.1-.18l-.45-.45c-.05-.06-.11-.09-.16-.1-.03,0-.07.02-.12.05l-1.21.69M71.67,38.93c-.07-.01-.17.02-.31.1-.62.4-1.29.71-1.99.95-.33.11-.61.17-.84.2-.32.03-.6,0-.84-.09-.14-.41-.25-.84-.32-1.28-.05-.31-.07-.47-.08-.49-.04-.19-.09-.35-.15-.47-.09-.17-.26-.38-.51-.63-.15-.15-.27-.25-.35-.32-.13-.11-.26-.2-.39-.26-.22-.11-.51-.18-.88-.21-.02,0-.05,0-.07,0,.06-.05.13-.11.21-.18.25-.22.48-.47.69-.74l-.55-.55c-.06-.07-.12-.1-.17-.1-.05,0-.11.03-.18.1l-1.36,1.27c-.23.21-.39.38-.5.49-.17.19-.31.38-.42.56-.04.07-.08.1-.12.09-.02,0-.04-.02-.07-.05-.16-.19-.32-.37-.48-.51-.19-.18-.37-.3-.52-.37-.18-.08-.42-.14-.7-.16-.17-.01-.49-.02-.97-.02-.11,0-.22,0-.32,0,.02-.04.03-.08.05-.13.04-.13.08-.3.11-.51.02-.13.03-.24.03-.33,0-.23-.1-.46-.28-.69-.11-.14-.29-.32-.55-.52l-.59.56c-.09.08-.14.15-.15.21-.01.05,0,.1.02.17.01.04.03.1.06.17.03.11.02.26-.02.45l-.08.42c-.06.31-.16.5-.32.56-.07.03-.16.03-.27.01-.12-.03-.22-.05-.28-.07-.31-.07-.63-.03-.98.12-.06.03-.12.06-.19.1,0-.02.01-.04.02-.06.05-.12.07-.21.08-.28,0-.11-.03-.22-.11-.34-.05-.07-.13-.17-.24-.29-.22-.23-.42-.38-.58-.44-.03-.01-.12-.04-.26-.08-.11-.03-.19-.06-.25-.1.2-.49.45-.94.75-1.34.05-.08.08-.14.07-.18,0-.03-.04-.07-.09-.12l-.02-.02c.08-.08.17-.17.27-.28l-.56-.57c-.07-.07-.13-.12-.18-.13-.07-.02-.18.01-.31.09-.36.21-.89.56-1.59,1.03-.53.36-.91.63-1.14.8-.31.24-.6.5-.87.76-.21.22-.37.37-.48.44-.05.03-.13.08-.24.15-.1.06-.18.12-.24.16-.07.06-.15.13-.24.23l-.27-.17.56-.61-.6-.6c-.06-.06-.12-.1-.16-.11-.07,0-.14.03-.23.12-.29.27-.57.55-.84.83-.17.18-.28.31-.34.38-.05.07-.07.13-.06.17.01.04.03.07.07.1.31.34.57.59.78.75.15.11.35.24.6.39l.67.4c-.01.12-.06.3-.16.55l-.25.61c-.1.22-.17.4-.23.52h0c-.77.5-1.43.93-1.98,1.26-.21.13-.39.21-.52.22.07-.33.12-.56.14-.71.04-.27.05-.51.04-.73-.01-.14-.06-.4-.14-.76-.08-.34-.14-.54-.16-.6-.1-.32-.25-.61-.43-.88-.19-.28-.42-.51-.68-.69-.57.47-1.25,1.17-2.03,2.08-.99,1.15-1.64,1.88-1.94,2.18-.06.06-.09.11-.09.16,0,.05.03.1.09.16l.56.57c.18-.09.39-.26.63-.53.86-.93,1.67-1.86,2.45-2.82.2.52.27,1.11.2,1.78-.06.52-.21,1.11-.45,1.78-.05.13-.07.23-.05.3.02.06.07.13.15.21l.34.35c.1.1.18.16.24.18.08.03.16.03.26,0,.06-.02.14-.05.25-.11,1.08-.56,1.77-.94,2.08-1.14.47-.29.88-.6,1.23-.93l.04.04c.45-.28.82-.64,1.1-1.09.14-.23.32-.6.52-1.1l.36-.9c.03-.08.04-.14.03-.18,0-.03-.03-.07-.07-.12-.17-.2-.4-.41-.67-.62,0,0-.02-.01-.03-.02.51-.48.96-.87,1.34-1.15.18-.13.45-.32.81-.56l.34-.23c-.09.18-.18.38-.28.6-.05.13-.08.23-.07.3.01.08.07.17.18.27l.44.44c.08.08.16.14.22.18.08.04.19.05.35.05.17,0,.29,0,.36.02-.23.5-.45.95-.67,1.34-.15.26-.29.45-.42.54l.22.23s0,.01,0,.02c0,.03.03.07.07.11.25.25.44.44.56.57.1-.03.21-.09.31-.18.04-.04.13-.13.26-.28.4-.43.88-.76,1.44-1,.32-.14.59-.19.8-.15.01,0,.12.04.34.1.13.04.25.05.34.03.13-.03.27-.12.44-.28.17-.15.31-.29.44-.42.1.09.19.16.27.2.09.04.19.06.32.07.05,0,.16,0,.33,0,.55-.01,1.08.02,1.6.1.06.35.01.69-.14,1.03-.07.15-.1.26-.08.33.01.05.06.12.14.19l.55.53c.59-.47,1.14-.98,1.64-1.53.16-.17.3-.34.42-.49.02-.03.09-.12.2-.27.07.06.13.11.19.14.14.08.33.14.57.16.13.01.34.02.61.04.18.02.31.07.39.15.05.05.09.13.12.22.02.05.03.14.05.25.04.34.11.68.19,1.04.07.3.14.53.23.71.11.22.28.46.53.71.24.25.47.42.67.52.34.16.73.21,1.18.15.31-.05.7-.16,1.16-.35.56-.22,1.03-.45,1.42-.67.49-.29.89-.61,1.21-.98l-.55-.57c-.07-.08-.14-.12-.2-.14Z"/>
        </g>
      </g>
      <g id="back_hair_0_Layer0_0_FILL">
        <path class="cls-2" d="M77.2,38.15c-.15-.15-.28-.23-.38-.26-.09-.02-.24,0-.45.05-.5.13-1.01.18-1.52.16-.06-.12-.1-.27-.1-.45,0-.11,0-.27.04-.47l.1-.84c.02-.16.03-.28.03-.36,0-.13-.03-.24-.07-.34-.05-.12-.17-.26-.34-.41-.21-.18-.34-.31-.39-.39l-.71.7c.07.07.09.21.06.41l-.12.79c-.04.3-.07.53-.07.68,0,.04,0,.09,0,.13-.23.21-.45.42-.66.63-.06-.02-.1-.05-.14-.1l-.51.5c-.16.15-.28.28-.35.39-.05.07-.13.22-.24.44l-.22.46s-.02.05-.04.07c-.28.34-.51.62-.7.83-.63.72-1.36,1.46-2.19,2.21-.01-.08-.06-.12-.16-.12-.1,0-.18.03-.24.1-.07.09-.12.16-.16.2-.07.07-.14.11-.21.12-.03,0-.07,0-.12-.01-.05-.01-.09-.02-.12-.02-.1,0-.2.08-.32.23-.12.16-.23.25-.31.28-.02-.13-.1-.22-.25-.27-.14-.05-.27-.05-.4,0-.1.04-.21.12-.32.23-.12.13-.21.23-.27.3-.18.2-.38.39-.59.55-.15.11-.28.17-.39.18-.08,0-.15-.02-.21-.06-.07-.04-.1-.1-.11-.17l-.2.17-.59-.5c-.27.28-.56.53-.87.75-.11.08-.2.12-.28.12-.09,0-.19-.08-.3-.23-.11-.16-.21-.26-.29-.29-.3.2-.56.44-.79.69-.29.03-.53-.05-.75-.23l-.67.69.81,1.16c.2.29.34.51.4.67.04.09.08.21.12.38.05.17.09.3.12.38.14.38.39.68.75.91.11,0,.19-.05.25-.14.06.23.19.46.39.68.12.14.32.33.58.56.04.03.07.06.11.09.06.1.13.2.21.31.21.3.33.48.36.53.32.52.57,1.18.74,2,0,0,.01,0,.02,0l.38-.04c.11-.02.18-.03.21-.04.06-.03.13-.08.23-.17l.56-.55c.09-.08.14-.15.15-.21.03-.1-.02-.23-.15-.39l-.34-.44c-.13-.17-.22-.31-.26-.4-.05-.11-.08-.24-.09-.38-.02-.19,0-.36.06-.52.02-.05.05-.13.11-.24.09-.17.19-.34.3-.51,1.12.74,2.18,1.13,3.18,1.17.47.01.86-.05,1.17-.19.2-.09.4-.22.61-.4.13-.12.31-.29.53-.53.08-.08.12-.15.13-.21,0-.08-.04-.17-.15-.28-.19-.21-.35-.36-.48-.46-.19-.15-.39-.24-.58-.27-.14-.01-.25-.02-.32-.03-.05,0-.1-.02-.15-.04,0-.11-.03-.24-.08-.39.63.08,1.32.07,2.05-.02.67-.08,1.43-.24,2.28-.48.21-.06.37-.12.48-.18.12-.06.25-.16.37-.28.08-.07.18-.19.32-.35.07-.07.1-.14.09-.2,0-.05-.04-.1-.11-.16l-.71-.66c-.16-.15-.27-.28-.32-.38.04-.11.06-.21.07-.28.02-.13.02-.25,0-.35,0-.04-.02-.07-.04-.11.1-.33.24-.67.42-1.05.12-.25.31-.6.56-1.03.08-.15.12-.27.11-.35,0-.06-.03-.13-.09-.23-.02-.03-.04-.06-.07-.1.09-.06.18-.13.27-.19.11-.08.28-.19.5-.34.2-.13.36-.25.49-.35.66-.51,1.22-1.11,1.68-1.81.05-.08.08-.15.07-.2,0-.04-.04-.09-.1-.15l-.34-.34M63.99,51.75s-.03.01-.05.02c-.06-.08-.11-.17-.16-.26.01.02.03.04.05.06.06.07.11.13.15.19M44.75,42.88c-.05-.25-.23-.51-.55-.77-.4-.35-.65-.58-.73-.7,0,.05-.02.08-.07.11-.05.02-.1.03-.15,0-.05-.03-.11-.1-.18-.22l-.26-.54c-.11-.23-.2-.39-.26-.48-.14-.18-.25-.32-.33-.41-.13-.16-.21-.31-.25-.44-.02-.14-.05-.25-.08-.32-.04-.11-.15-.25-.31-.41-.08-.08-.15-.14-.22-.19l.45-.66c.11-.16.16-.29.16-.4,0-.14-.1-.28-.29-.43-.23-.18-.37-.32-.41-.41-.21.14-.41.37-.59.68-.11.18-.26.45-.45.82-.13.22-.32.49-.56.81l-.89,1.18c-.11.14-.19.26-.24.35-.07.14-.11.27-.11.4,0,.18.1.4.29.66.43.58.92,1.09,1.47,1.54.14.11.22.18.25.21.09.08.16.16.21.24.06.1.11.2.13.3.02.11,0,.22-.04.31-.09.18-.29.31-.61.37-.55.1-1.12.07-1.73-.09-.54-.15-1.07-.4-1.6-.74-.34.25-.6.58-.78.97-.27.6-.32,1.32-.13,2.14.11.51.3.93.55,1.24.23.28.55.51.96.71.26.12.64.26,1.15.42.89.27,1.57.46,2.02.57.33.08.61.12.83.14.31.02.59,0,.83-.08.23-.07.47-.19.71-.36.18-.13.38-.31.6-.53.38-.38.66-.74.86-1.09.02.01.04.02.06.03.02,0,.07.01.14.01.06,0,.1,0,.13.02.06.03.1.09.13.19.08.28.02.64-.19,1.08-.11.24-.17.43-.18.54,0,.2.08.4.24.6.05.06.13.14.23.24.12.12.2.19.24.23.05.05.13.13.24.24.09.1.18.17.25.22.1.07.21.11.32.13.12.02.23.01.32-.04.03-.01.06-.04.11-.07.18-.31.29-.49.33-.56.1-.18.2-.35.28-.51,0-.23.04-.45.12-.66.03-.07.06-.12.1-.14.04-.02.09-.03.15,0,.13-.29.23-.53.31-.7.07-.16.14-.3.21-.44,0,0-.01,0-.02-.01.19-.16.35-.35.49-.57.05-.08.11-.13.17-.17.07-.05.13-.05.18,0,.38-.3.69-.66.93-1.09.07.01.15,0,.22-.05.05-.03.12-.09.19-.16.13-.14.24-.25.31-.34.1-.13.18-.26.23-.39.1-.28.09-.57-.05-.87-.14-.3-.35-.49-.62-.6l-.63.54-.47-.44-.38.31c-.24-.28-.5-.53-.77-.77-.18.13-.37.29-.54.46l-.4-.38c-.14.03-.25.1-.33.22.1-.36-.14-.75-.71-1.15l-.36.24c-.02-.13-.11-.21-.27-.24-.16-.03-.27.02-.34.14Z"/>
      </g>
      <g id="body_0_Layer0_0_FILL">
        <path class="cls-2" d="M61.44,47.81c-.47-.64-.84-1.11-1.09-1.42-.42-.51-.84-.94-1.24-1.28-.08-.07-.15-.11-.21-.11-.07,0-.16.05-.25.16l-.45.5-.12-.11h0c0-.07-.03-.14-.12-.22-.32-.31-.56-.54-.72-.68-.29-.25-.56-.42-.83-.49-.12-.03-.27-.06-.43-.07-.07,0-.22,0-.45,0-.55-.02-.96-.03-1.23-.04-.49-.01-.9,0-1.23.04-.24.03-.42.08-.53.14-.08.04-.17.11-.28.21-.17-.09-.34-.15-.51-.19-.22-.04-.4-.03-.53.03-.07.03-.17.11-.29.23l-.02-.02c-.26.2-.55.49-.87.88-.49.6-.76.92-.79.96-.1.11-.26.27-.48.49-.21.21-.38.37-.48.49-.21.23-.42.5-.64.83-.12.17-.31.47-.56.89l-1.28,2.11c-.74,1.29-1.31,2.66-1.72,4.11-.41,1.45-.63,2.92-.66,4.41,0,.27,0,.5.02.66.02.24.07.45.15.64.08.18.19.37.35.57.09.11.24.28.45.5.21.22.38.39.52.5-.02.02-.04.03-.06.05-.24.22-.42.45-.54.68-.13.28-.19.61-.19,1,0,.23.05.58.13,1.04.11.66.18,1.21.2,1.63.03.6-.01,1.14-.12,1.62-.05.21-.13.46-.23.73-.06.16-.15.4-.27.72-.6,1.62-.68,2.94-.23,3.97.21.49.6.99,1.16,1.52.43.4.83.71,1.22.92.29.15.62.28,1,.38.3.08.65.15,1.05.21.52.08.97.12,1.36.13.49,0,.94-.04,1.34-.14.26-.06.58-.17.96-.32.21-.08.52-.21.94-.38.44-.17,1.08-.36,1.92-.56.41-.1.72-.18.93-.22.35-.07.66-.11.95-.13.54-.02.99.05,1.36.22.13.06.36.2.67.41.28.19.51.31.69.37.27.09.56.11.88.06.29-.05.57-.15.84-.31.23-.13.47-.31.71-.53.17-.16.38-.38.62-.65.39-.44.67-.8.82-1.1.25-.46.42-1.01.49-1.65.05-.43.06-1.02.04-1.76-.01-.4-.03-.8-.05-1.22-.02-.49-.06-.86-.13-1.12-.09-.39-.3-.84-.62-1.38-.45-.75-1-1.5-1.65-2.27-.53-.63-1.18-1.31-1.94-2.05-.47-.46-.8-.81-.99-1.03-.34-.41-.56-.82-.67-1.22-.06-.22-.07-.43-.04-.62.04-.22.15-.38.31-.47l-.1-.1c.13-.03.27-.06.42-.08.44-.07.85-.11,1.24-.11.36,0,.76.05,1.22.13.14.02.35.06.63.11.24.04.45.06.63.06.68.02,1.32-.18,1.92-.59.6-.41,1.02-.93,1.26-1.57.17-.44.25-.93.24-1.46,0-.5-.09-1.05-.26-1.65-.12-.45-.28-.89-.48-1.32-.24-.53-.56-1.1-.96-1.71-.25-.38-.63-.91-1.14-1.59l-1-1.36M62.55,51.55c.23.42.45.91.66,1.49.28.75.45,1.41.5,1.96.06.58.02,1.15-.12,1.71-.05.18-.1.31-.17.39-.06.07-.14.12-.25.17-.07.03-.17.06-.3.09-.28.07-.5.11-.64.14-.24.04-.46.05-.65.03-.15-.01-.34-.04-.56-.1-.29-.07-.48-.11-.56-.13-.26-.05-.66-.07-1.19-.06-.55,0-.95.03-1.22.07-.33.04-.66.12-.97.24.09-.17.19-.36.3-.57.3-.57.55-1,.77-1.3.33-.44.7-.81,1.12-1.13.12-.09.18-.18.18-.26.39-.46.71-.98.94-1.55.19-.45.23-.82.12-1.1-.06-.15-.19-.34-.41-.56-.42-.42-.78-.71-1.09-.87-.02-.01-.03-.02-.05-.03-.03-.05-.07-.1-.1-.16-.25-.44-.42-.81-.5-1.11-.06-.22-.1-.56-.14-1.02l-.02-.29c0-.09,0-.24,0-.43.01-.51.05-.9.1-1.19,0-.06,0-.11,0-.13.21.2.43.44.65.71.18.22.42.53.72.95l1.64,2.22c.57.77.98,1.37,1.22,1.82M56.58,45.73c.09.05.18.13.29.25h0s0,.02-.01.03c-.03.1-.06.23-.08.39-.03.23-.04.58-.04,1.04v.13c0,.44.02.77.06.99.04.24.12.49.22.74.08.21.18.41.29.61-.1.01-.2.02-.3.04-.31.05-.64.14-1,.27-.25.09-.57.21-.96.38-.47.2-.82.38-1.05.53-.21.14-.45.33-.71.58,0-.02,0-.05,0-.07.06-.4.12-1.01.2-1.83l.21-2.21c.04-.38.05-.67.05-.88,0-.32-.06-.6-.15-.84-.05-.11-.11-.23-.18-.35.28-.02.59-.03.92-.03.31,0,.8.02,1.48.05.18.01.31.02.4.04.14.02.27.07.37.13M51.81,45.76s.06,0,.09.01l.09.09c.06.06.12.1.16.1h.04c.05.09.08.21.08.38,0,.34-.03.89-.12,1.65l-.38,3.33c-.07.63-.15,1.09-.23,1.39-.05.2-.14.51-.26.93-.09.36-.1.67-.05.93.07.33.25.64.54.95.19.2.49.44.89.71l.74-.69c.07-.07.11-.13.11-.18,0-.05-.03-.11-.1-.18-.12-.1-.21-.18-.27-.23-.1-.09-.18-.18-.23-.26-.09-.16-.13-.36-.11-.6.01-.11.04-.26.09-.45.1-.02.22-.1.34-.23.09-.1.23-.24.41-.44.16-.16.32-.29.46-.39.16-.11.41-.23.76-.38.78-.34,1.39-.55,1.83-.66.71-.17,1.36-.18,1.93-.02.19.06.33.14.39.23.1.13.12.32.06.56-.06.24-.2.55-.43.93l-.33.57c-.99.73-1.85,1.84-2.58,3.32-.21.43-.32.66-.35.71-.14.26-.28.48-.42.66-.22.29-.53.58-.93.86-.4.29-.88.58-1.44.87-.33.17-.84.41-1.53.71-.37.16-.63.28-.8.35-.31.12-.58.21-.83.27-.48.12-1.01.18-1.6.18-.43,0-.97-.04-1.62-.12-.19-.02-.35-.05-.45-.08-.16-.05-.29-.12-.39-.22-.13-.14-.22-.37-.28-.69-.13-.82-.12-1.75.03-2.77.1-.7.31-1.61.62-2.74.2-.73.38-1.3.53-1.72.2-.52.46-1.08.79-1.69.2-.36.51-.9.95-1.61.42-.7.75-1.21.98-1.55.36-.52.79-1.08,1.3-1.68.23-.26.56-.64,1-1.14.06.02.12.03.18.04.08.01.19.01.35.01M50.21,62.84c.19-.07.47-.19.84-.36.78-.35,1.37-.63,1.75-.83.64-.35,1.26-.75,1.86-1.23.13-.1.26-.21.38-.31.02.02.04.04.07.06.19.15.31.27.36.35.17-.06.35-.22.52-.49.01-.02.02-.03.03-.05.08.44.3.88.64,1.33.2.26.56.66,1.1,1.19.86.84,1.67,1.74,2.45,2.69.45.55.8,1.02,1.04,1.42.33.55.54,1.09.64,1.61.04.23.07.58.09,1.06.02.45.04.9.05,1.35.01.51,0,.93-.02,1.27-.03.46-.11.88-.22,1.25-.09.31-.21.57-.34.78-.21-.24-.46-.49-.74-.73-.26-.23-.63-.53-1.12-.9l-2.1-1.6c-.46-.35-.82-.61-1.07-.77-.4-.28-.78-.5-1.13-.67-.09-.05-.58-.25-1.44-.62-.58-.24-1.04-.49-1.37-.74-.21-.16-.45-.38-.69-.64-.28-.32-.49-.55-.63-.71-.59-.66-1.41-1.46-2.46-2.39-.43-.39-.79-.68-1.08-.87.3,0,.55,0,.75-.02.37-.02.7-.07,1-.14.26-.06.56-.15.88-.28M53.46,70.88c.3.18.73.41,1.31.68.62.3,1.06.52,1.32.67.33.19.77.48,1.32.87l2.47,1.75c-.37.03-.72-.03-1.05-.19-.12-.06-.29-.16-.5-.31-.22-.15-.38-.25-.49-.31-.41-.2-.91-.29-1.5-.25-.42.03-1.02.14-1.81.34-.98.24-1.71.46-2.21.66-.39.17-.69.29-.89.37-.35.14-.65.24-.91.29-.3.06-.63.09-1.01.08-.25,0-.59-.03-1.01-.08-.44-.05-.81-.11-1.09-.17-.4-.08-.75-.17-1.07-.29-.51-.19-.87-.43-1.06-.73-.07-.12-.13-.26-.18-.43-.03-.11-.06-.26-.1-.46-.08-.47-.12-.82-.12-1.07,0-.56.16-1.29.5-2.21.38-1.04.6-1.77.65-2.21.06-.49.04-1.12-.08-1.92-.11-.78-.17-1.34-.2-1.69.73.68,1.78,1.74,3.14,3.17,1.27,1.26,2.43,2.19,3.5,2.79.08.05.15.07.2.07.02,0,.04,0,.07-.02.25.21.52.4.81.57Z"/>
      </g>
      <g id="pants_0_Layer0_0_FILL">
        <path class="cls-2" d="M63.39,72.67s0-.05,0-.08c-.06.2-.2.44-.42.72-.46.61-.9,1.11-1.32,1.49-.12,1.14-.19,1.82-.21,2.03-.04.55-.04,1,.03,1.37.08.5.25.9.52,1.2.08.1.22.23.41.41.15.16.24.32.27.48.03.13.01.31-.05.55l-.43,1.86c-.05.2-.05.35,0,.45.03.06.08.12.17.2.09.08.15.14.18.19.08.14.08.35-.02.62-.06.19-.16.47-.29.84-.1.33-.18.61-.22.86-.12.72-.03,1.42.27,2.1.31.7.77,1.22,1.38,1.56.18.1.46.25.83.46.3.2.48.43.53.68-.31-.14-.63-.15-.97-.03-.35.12-.59.34-.73.64l1.08,1.79c.08.13.13.23.16.3.05.12.08.23.09.33,0,.17-.06.35-.19.53-.09.12-.23.26-.42.43l.77.82c-.67.37-1.48.63-2.42.77-.58.09-1.45.15-2.59.18-.58.01-1.02.01-1.31-.01-.46-.03-.86-.11-1.2-.24.09-.1.15-.16.19-.19.09-.06.16-.11.2-.15.07-.06.11-.13.13-.2.02-.09,0-.19-.07-.29-.03-.04-.1-.13-.22-.26-.22-.24-.36-.54-.42-.89-.05-.35-.01-.67.13-.98.07-.15.19-.34.35-.54.22-.29.36-.47.39-.52.17-.26.3-.55.38-.86.08-.31.1-.63.08-.94.04.11.14.16.29.13.13-.02.25-.08.37-.18.35-.3.56-.58.63-.86.09-.32.02-.73-.22-1.23-.3-.64-.46-1.05-.49-1.25-.06-.39.04-.91.3-1.56.29-.72.44-1.25.44-1.56,0-.3-.07-.7-.23-1.2-.24-.78-.53-1.57-.86-2.37-.17-.41-.28-.73-.33-.94-.09-.36-.1-.68-.02-.96.05-.19.2-.47.45-.84.23-.35.36-.64.4-.86.05-.27,0-.54-.13-.81-.14-.27-.33-.46-.59-.58-.29.14-.53.44-.72.89-.11.25-.26.64-.46,1.15-.02.04-.13.21-.32.53-.13.21-.22.39-.26.55-.06.22-.06.47,0,.75.03.18.11.43.22.74l.84,2.4c.13.37.22.65.27.87.07.33.1.62.08.89-.02.25-.11.58-.26.97-.18.48-.3.8-.34.96-.1.43-.11.86-.02,1.3.09.44.27.84.53,1.19-.3.01-.56.16-.77.44-.19.25-.32.54-.37.89-.01.08-.04.4-.09.96-.03.39-.1.69-.19.93-.08.19-.24.46-.5.81-.25.34-.41.61-.49.81-.1.27-.13.56-.09.87.04.3.15.57.33.8-.15-.12-.33-.19-.54-.2-.2-.01-.39.02-.59.09-.16.06-.33.15-.51.28-.09.06-.25.18-.47.36-.49.39-.93.7-1.32.93-.51.3-1,.5-1.48.61-.37.09-.77.13-1.23.14-.34,0-.76-.03-1.24-.08-1.3-.13-2.45-.37-3.47-.7-.23-.08-.39-.17-.47-.26-.1-.11-.17-.27-.21-.48-.07-.45.01-.92.25-1.41.19-.41.49-.81.88-1.22.48-.46.83-.81,1.07-1.04.41-.41.71-.8.91-1.15.11-.19.15-.36.13-.49-.03-.13-.13-.27-.3-.42-.24-.2-.47-.39-.7-.54l2.18-3.41c.29-.46.5-.8.62-1.04.21-.4.36-.77.44-1.12.1-.41.12-.81.06-1.2-.07-.43-.24-.78-.5-1.07-.26-.29-.68-.54-1.27-.76.22-.38.38-.68.47-.89.14-.35.2-.66.18-.96-.02-.23-.09-.49-.21-.77-.05-.12-.18-.36-.37-.72-.18-.34-.34-.68-.49-1.02l-.28-.08c-.26-.07-.46-.14-.61-.21-.14-.07-.31-.17-.49-.31-.18-.14-.37-.29-.57-.47,0,0,0,.02,0,.03.04.17.11.39.21.64.23.59.5,1.17.8,1.74.18.33.29.56.35.7.11.27.15.52.14.75-.01.17-.06.36-.15.56-.06.13-.16.3-.29.52-.14.23-.21.42-.2.57.01.12.06.23.16.35.06.07.16.16.29.27l.87.7c.17.13.29.26.36.37.09.17.12.42.09.74-.07.53-.25,1.09-.54,1.69-.19.38-.49.9-.92,1.55-.64,1-1.16,1.76-1.55,2.29-.61.82-1.22,1.51-1.83,2.06.14.34.4.57.8.68.4.11.75.06,1.04-.16-.18.24-.45.53-.79.87-.47.45-.75.73-.84.83-.66.71-.99,1.4-1.01,2.07-.01.52.16,1.02.52,1.5.33.43.75.78,1.27,1.06.5.26,1.09.47,1.78.62.43.09,1.06.19,1.89.29.61.07,1.08.12,1.42.13.52.02.99-.02,1.4-.12.5-.12,1.03-.34,1.57-.67.37-.22.83-.56,1.4-1.01.24-.19.43-.33.58-.4.23-.12.44-.18.65-.18.09,0,.24.04.45.11.14.19.31.38.51.55.33.27.71.49,1.14.64.38.13.8.22,1.28.27.35.03.78.05,1.31.05,1.32,0,2.45-.13,3.37-.36,1.2-.3,2.17-.8,2.92-1.5.33-.31.48-.59.48-.86,0-.18-.08-.36-.22-.54-.1-.12-.25-.26-.46-.42.13-.13.21-.29.24-.5.03-.19,0-.38-.06-.57-.06-.16-.15-.33-.27-.5-.08-.11-.2-.26-.36-.44.25.1.52.12.81.05.28-.07.52-.2.7-.41.12-.14.18-.26.18-.38,0-.08-.03-.17-.09-.27-.03-.04-.09-.12-.19-.24-.16-.19-.32-.44-.48-.76-.18-.36-.32-.63-.41-.81-.38-.66-.81-1.06-1.3-1.19-.17-.03-.29-.06-.38-.08-.15-.03-.26-.08-.35-.14-.16-.12-.28-.34-.35-.67-.11-.5-.13-1.01-.07-1.52.06-.52.2-1,.42-1.46.08-.17.14-.29.16-.35.05-.14.06-.26.04-.37-.01-.07-.04-.16-.09-.25-.06-.1-.1-.18-.13-.24-.23-.48-.19-1.1.13-1.87.13-.31.2-.52.23-.62.06-.24.07-.45,0-.63-.05-.16-.17-.32-.36-.5-.31-.29-.46-.43-.47-.43-.27-.3-.43-.7-.48-1.2-.04-.33-.03-.79.03-1.36l.29-2.94c.05-.46.08-.81.09-1.06Z"/>
      </g>
    </g>
    <text class="cls-3" transform="translate(27.87 116.21) scale(.98) skewX(-10)"><tspan class="cls-4" x="0" y="0"></tspan><tspan class="cls-5" x="13.49" y="0"></tspan><tspan class="cls-1" x="25.73" y="0"></tspan><tspan x="38.41" y="0"> </tspan></text>
    <rect class="cls-2" x="25.28" y="117.47" width="43.71" height="1.96"/>
    <rect class="cls-2" x="25.28" y="119.92" width="43.71" height=".98"/>
  </g>
</svg>