<?xml version="1.0" encoding="UTF-8"?>
<svg id="Layer_2" xmlns="http://www.w3.org/2000/svg" viewBox="0 0 212.07 107.59">
  <g id="Graphics">
    <g id="Layer10_0_FILL">
      <path d="M81.28,27.73c.41,3.51,7.57,11.5,10.56,12.1l-.04-36.64-21.92.03.04,36.81c1.83.03,10.99-8.26,11.37-12.31M90.84,43.57c-3.98-2.58-7.61-6.59-9.72-10.41-3.49,5.65-6.19,7.99-11.21,11.12v.13c5.62,3.5,7.97,6.21,11.09,11.24,2.43-4.4,6.6-8.42,10.84-10.92v-.55c-.33-.19-.66-.4-1-.61ZM91.92,107.59l-.07-58.45s-.03-.03-.04-.03t0,0c-1.72-1.25-11.09,10.59-11.09,10.59,0,0-8.13-10.65-10.79-10.99-.15-.02.01,13.02.01,13.02L0,0l.13,104.52,21.8-.03-.07-57.69,70.06,60.78ZM91.85,49.08v.05c.05-.07.08-.1.08-.1,0,0-.03.02-.08.05ZM91.8,49.1s-.02.01-.03.02c.02-.01.05-.03.07-.04h0s-.03,0-.04.02ZM212.07,3.06l-27.28.03-26.16,34.96L132.39,3.15l-27.62.03,40.15,51-39.21,50.21,27.62-.04,25.35-33.74,25.36,33.69,27.49-.03-39.18-50.12L212.07,3.06Z"/>
    </g>
  </g>
</svg>