<?xml version="1.0" encoding="UTF-8"?>
<svg id="Layer_1" data-name="Layer 1" xmlns="http://www.w3.org/2000/svg" viewBox="0 0 1920 1080">
  <defs>
    <style>
      .cls-1, .cls-2 {
        fill: #fff;
      }

      .cls-2 {
        font-family: Renogare-Regular, Renogare;
        font-size: 60px;
      }
    </style>
  </defs>
  <g id="Layer10_0_FILL" data-name="Layer10 0 FILL">
    <path class="cls-1" d="M871.7,461c1.45,12.53,27,41,37.66,43.17l-.16-130.67-78.2.1.16,131.29c6.54.11,39.19-29.45,40.54-43.89M905.82,517.52c-14.19-9.21-27.15-23.51-34.67-37.14-5.71,10.39-13.85,19.02-18.36,23.37-6.03,5.82-13.65,11.86-21.61,16.31v.46c10.26,5.69,18.77,13.72,23.08,18.19,5.9,6.1,12,13.84,16.47,21.9,7.83-14.38,21.72-28.15,35.14-36.8,1.09-.71,2.27-1.43,3.51-2.15v-1.95c-1.18-.69-2.37-1.41-3.56-2.19ZM909.65,745.85l-.25-208.49s-.1-.09-.15-.11t-.01-.01c-6.15-4.47-39.54,37.76-39.54,37.76,0,0-29-38-38.5-39.19-.53-.07.05,46.44.05,46.44l-249.45-220.15.45,372.8,77.75-.1-.25-205.75,249.9,216.8ZM909.4,537.17v.19c.19-.24.3-.36.3-.36,0,0-.1.06-.3.17ZM909.24,537.24s-.07.05-.1.07c.04-.02.08-.05.11-.06.06-.04.11-.06.15-.08v-.05c-.06.04-.11.08-.16.12ZM1338.2,373l-97.3.1-93.3,124.7-93.6-124.45-98.5.1,143.2,181.9-139.85,179.1,98.5-.15,90.4-120.35,90.45,120.15,98.05-.1-139.75-178.75,141.7-182.25Z"/>
  </g>
  <text class="cls-2" transform="translate(793.41 812.59)"><tspan x="0" y="0">NX.games</tspan></text>
</svg>