<?xml version="1.0" encoding="UTF-8"?>
<svg id="Layer_2" xmlns="http://www.w3.org/2000/svg" viewBox="0 0 33.84 12.43">
  <defs>
    <style>
      .cls-1 {
        fill: #fff;
      }
    </style>
  </defs>
  <g id="Graphics">
    <g>
      <path class="cls-1" d="M0,2.3h.28v9.81h-.28V2.3Z"/>
      <path class="cls-1" d="M3.74,2.3h1.04v9.81h-1.04V2.3Z"/>
      <path class="cls-1" d="M7.53,2.3h2.27v9.81h-2.27V2.3Z"/>
    </g>
    <g id="Layer10_0_FILL">
      <path class="cls-1" d="M19.61,3.74c.04.38.82,1.25,1.15,1.32V1.07s-2.39,0-2.39,0v4c.2,0,1.2-.9,1.24-1.34M20.66,5.46c-.43-.28-.83-.72-1.06-1.13-.38.61-.67.87-1.22,1.21h0c.61.4.87.69,1.21,1.24.26-.48.72-.92,1.18-1.19v-.06s-.07-.04-.11-.07ZM20.77,12.43v-6.36s-.01,0-.01,0t0,0c-.19-.14-1.21,1.15-1.21,1.15,0,0-.88-1.16-1.17-1.2-.02,0,0,1.42,0,1.42L10.77.72v11.37s2.39,0,2.39,0v-6.28s7.61,6.61,7.61,6.61ZM20.76,6.06h0s0,0,0,0c0,0,0,0,0,0ZM20.76,6.06s0,0,0,0c0,0,0,0,0,0h0s0,0,0,0ZM33.84,1.05h-2.97s-2.85,3.81-2.85,3.81l-2.85-3.8h-3s4.37,5.55,4.37,5.55l-4.27,5.46h3s2.76-3.68,2.76-3.68l2.76,3.66h2.99s-4.26-5.46-4.26-5.46l4.32-5.56Z"/>
    </g>
    <g>
      <path class="cls-1" d="M3.14.44s-.05.05-.07.08-.05.05-.07.08c-.04.04-.08.09-.13.13s-.1.1-.16.15-.12.1-.18.14c-.07.05-.15.1-.24.14-.09.05-.18.09-.28.13s-.2.07-.31.11l-.14-.21c.19-.04.35-.1.49-.16.13-.06.24-.12.33-.18.05-.04.1-.07.15-.11s.09-.07.12-.11.06-.07.08-.1h-.75s-.05,0-.08,0c-.03,0-.06,0-.09,0-.03,0-.06,0-.08,0v-.24s.08,0,.13.01.09,0,.12,0h.86s.06,0,.08,0c.03,0,.05,0,.07-.01l.15.14ZM2.56.88v.62s0,.05,0,.08c0,.03,0,.06,0,.09,0,.03,0,.05,0,.08h-.26s0-.04,0-.07c0-.03,0-.06,0-.09,0-.03,0-.06,0-.08v-.53l.23-.1ZM2.58.02s0,.05,0,.08,0,.07,0,.1v.21h-.23v-.21s0-.06,0-.1c0-.03,0-.06,0-.08h.26ZM3.18,1.41c-.06-.05-.11-.09-.16-.12s-.1-.07-.15-.1c-.05-.03-.11-.06-.16-.1l.15-.17c.06.03.12.06.17.09s.1.06.15.09c.05.03.11.07.17.11l-.15.2Z"/>
      <path class="cls-1" d="M4.46.09s-.04.07-.06.1c-.02.04-.04.07-.05.09-.04.08-.1.16-.16.25-.06.09-.14.17-.22.25-.08.08-.17.16-.27.22l-.2-.15c.09-.05.16-.11.23-.17s.13-.12.18-.17c.05-.06.09-.11.13-.17.04-.05.07-.1.09-.15.01-.02.03-.05.04-.09s.03-.07.04-.1l.26.09ZM5.12.4s-.02.04-.03.06-.02.05-.03.07c-.02.06-.04.13-.07.2-.03.08-.07.16-.12.24s-.1.16-.16.23c-.09.11-.21.22-.33.31s-.28.18-.47.25l-.21-.19c.13-.04.25-.09.35-.14.1-.05.18-.11.26-.17s.14-.12.2-.19c.05-.05.09-.12.13-.18s.07-.14.1-.2c.03-.07.05-.13.06-.18h-.69l.08-.2h.59s.06,0,.09,0c.03,0,.05-.01.07-.02l.19.11Z"/>
      <path class="cls-1" d="M5.5.16s.05.08.08.13c.03.05.06.11.1.16s.06.11.09.16.05.09.07.13l-.23.13c-.02-.05-.05-.1-.08-.16-.03-.06-.06-.11-.09-.17-.03-.05-.06-.1-.09-.15-.03-.05-.05-.09-.08-.12l.23-.12ZM5.56,1.54c.16-.07.3-.15.41-.25s.2-.2.28-.3c.07-.11.13-.22.16-.33.04-.11.06-.21.08-.29,0-.04.01-.08.02-.12s0-.07,0-.1l.29.04s-.02.07-.03.11-.02.07-.02.1c-.03.12-.06.24-.1.36-.04.12-.1.24-.17.35-.08.12-.17.23-.29.34-.11.11-.25.2-.41.27l-.21-.18Z"/>
    </g>
  </g>
</svg>